<svg xmlns="http://www.w3.org/2000/svg" viewBox="0 0 285.5 59.13"><defs><style>.cls-1,.cls-2{fill:#fff;}.cls-2{font-size:31.82px;font-family:Arvo-Bold, Arvo;font-weight:700;}.cls-3{letter-spacing:-0.12em;}</style></defs><title>Asset 1</title><g id="Layer_2" data-name="Layer 2"><g id="Layer_1-2" data-name="Layer 1"><path d="M205.21,56.13c-5.29,0-11.33-.08-17.17-.17s-11.27-.16-16-.16-8.17.08-10.46.26H124c-2.29-.18-5.62-.26-10.46-.26s-10.24.08-16,.16-11.88.17-17.17.17c-2.86,0-5.25,0-7.32-.07a42.09,42.09,0,0,1-21.71-6.28c-1.1-.62-2-1.16-3-1.57A7.73,7.73,0,0,0,45,47.53a26.46,26.46,0,0,0-5.48.84,60.31,60.31,0,0,1-14,1.68c-1.89,0-3.86-.09-5.88-.26C5.09,48.55,3.59,37.07,3.54,36.58,3.39,35.17,3,31.11,3,29.42s.39-5.52.54-6.87c0-.49,1.55-12,16.09-13.21,2-.17,4-.26,5.88-.26a60.31,60.31,0,0,1,14,1.68A26.46,26.46,0,0,0,45,11.6a7.88,7.88,0,0,0,3.32-.67c.91-.41,1.86-.95,3-1.58A42.11,42.11,0,0,1,73,3.08C75,3,77.43,3,80.29,3c5.29,0,11.33.09,17.17.17s11.26.17,16,.17,8.17-.09,10.46-.26h37.6c2.29.17,5.62.26,10.46.26s10.24-.08,16-.17S199.92,3,205.21,3c2.86,0,5.25,0,7.32.08a42.11,42.11,0,0,1,21.71,6.27c1.1.63,2,1.17,3,1.58a7.88,7.88,0,0,0,3.32.67,26.28,26.28,0,0,0,5.47-.84,60.49,60.49,0,0,1,14-1.68c1.89,0,3.86.09,5.88.26,14.54,1.24,16,12.72,16.09,13.21.15,1.35.54,5.19.54,6.87s-.39,5.75-.54,7.18c0,.47-1.55,11.95-16.09,13.19-2,.17-4,.26-5.88.26a60.31,60.31,0,0,1-14-1.68,26.46,26.46,0,0,0-5.48-.84,7.73,7.73,0,0,0-3.32.68c-.91.41-1.86.95-3,1.57a42.09,42.09,0,0,1-21.71,6.28C210.46,56.11,208.07,56.13,205.21,56.13Z"/><path class="cls-1" d="M205.21,6c2.84,0,5.2,0,7.24.08A38.87,38.87,0,0,1,232.75,12c1.12.63,2.18,1.23,3.21,1.7a10.82,10.82,0,0,0,4.56.94,28.81,28.81,0,0,0,6.12-.91A57.37,57.37,0,0,1,260,12.08c1.8,0,3.69.09,5.62.25,5.11.44,8.88,2.29,11.2,5.5A12.71,12.71,0,0,1,279,22.91c.2,1.8.51,5.15.51,6.51s-.31,4.87-.52,6.81a12.38,12.38,0,0,1-2.17,5.07c-2.32,3.22-6.09,5.07-11.2,5.5-1.93.17-3.82.25-5.62.25a56.82,56.82,0,0,1-13.35-1.61,28.81,28.81,0,0,0-6.12-.91,10.82,10.82,0,0,0-4.56.94c-1,.47-2.09,1.07-3.21,1.71a38.87,38.87,0,0,1-20.3,5.88c-2,0-4.41.07-7.24.07-5.27,0-11.3-.08-17.13-.17S176.8,52.8,172,52.8s-8.21.08-10.58.26H124.07c-2.37-.18-5.75-.26-10.58-.26s-10.27.08-16.07.16-11.86.17-17.13.17c-2.84,0-5.2,0-7.24-.07a38.87,38.87,0,0,1-20.3-5.88c-1.12-.64-2.18-1.24-3.21-1.71A10.82,10.82,0,0,0,45,44.53a28.81,28.81,0,0,0-6.12.91,56.82,56.82,0,0,1-13.35,1.61c-1.8,0-3.69-.08-5.62-.25-5.11-.43-8.88-2.28-11.2-5.5a12.38,12.38,0,0,1-2.17-5.07C6.31,34.3,6,30.79,6,29.42s.31-4.71.51-6.51v0a12.49,12.49,0,0,1,2.17-5.05c2.32-3.21,6.09-5.06,11.2-5.5,1.93-.16,3.82-.25,5.62-.25a57.37,57.37,0,0,1,13.35,1.61A28.81,28.81,0,0,0,45,14.6a10.82,10.82,0,0,0,4.56-.94c1-.47,2.09-1.07,3.21-1.7a38.87,38.87,0,0,1,20.3-5.88C75.09,6,77.46,6,80.29,6c5.27,0,11.3.09,17.13.17s11.28.17,16.07.17,8.21-.09,10.58-.26h37.36c2.37.17,5.75.26,10.58.26s10.27-.08,16.07-.17S199.94,6,205.21,6m0-6c-10.44,0-23.53.34-33.2.34-4.3,0-7.93-.07-10.34-.26H123.83c-2.41.19-6,.26-10.34.26C103.82.34,90.73,0,80.29,0c-2.67,0-5.17,0-7.39.08C58.13.45,51.12,6.35,47.06,8.2A5,5,0,0,1,45,8.6c-3.56,0-9-2.52-19.47-2.52-1.88,0-3.91.08-6.13.27C2,7.83.55,22.22.55,22.22s-.55,5-.55,7.2.55,7.49.55,7.49S2,51.31,19.38,52.78c2.22.19,4.26.27,6.13.27C36,53.05,41.42,50.53,45,50.53a4.86,4.86,0,0,1,2.08.41c4.06,1.84,11.07,7.75,25.84,8.12,2.22,0,4.72.07,7.39.07,10.44,0,23.53-.33,33.2-.33,4.3,0,7.93.06,10.34.26h37.84c2.41-.2,6-.26,10.34-.26,9.67,0,22.76.33,33.2.33,2.67,0,5.17,0,7.39-.07,14.77-.37,21.78-6.28,25.84-8.12a4.86,4.86,0,0,1,2.08-.41c3.56,0,9,2.52,19.47,2.52,1.88,0,3.91-.08,6.13-.27C283.47,51.31,285,36.91,285,36.91s.55-5.27.55-7.49-.55-7.2-.55-7.2S283.47,7.83,266.12,6.35c-2.22-.19-4.26-.27-6.13-.27-10.51,0-15.91,2.52-19.47,2.52a5,5,0,0,1-2.08-.4C234.38,6.35,227.37.45,212.6.08,210.38,0,207.88,0,205.21,0Z"/><text class="cls-2" transform="translate(64.25 42.27)">L.M.L.D.<tspan class="cls-3" x="133.93" y="0">F</tspan><tspan x="150.03" y="0">.</tspan></text></g></g></svg>