<svg xmlns="http://www.w3.org/2000/svg" viewBox="0 0 291.1 291.1"><title>Asset 2</title><g id="Layer_2" data-name="Layer 2"><g id="Layer_1-2" data-name="Layer 1"><polygon points="104.92 31.24 104.98 31.38 105.3 31.25 105.24 31.11 104.92 31.24"/><path d="M99.07,48.39,99,48.25l-.44.18.23.58c.14-.06.23-.26.27-.62"/><path d="M98.29,50.83l.11.27.31-.13c-.07-.18-.21-.22-.42-.14"/><polygon points="98.5 46.54 98.44 46.39 98.15 46.51 98.21 46.65 98.5 46.54"/><rect x="99.45" y="31.25" width="0.51" height="0.16" transform="translate(-4.43 40.19) rotate(-22.31)"/><path d="M102.73,32l-.12-.29-.15.06a1.47,1.47,0,0,0-.48,1l.15-.07c.46-.33.66-.57.6-.71"/><rect x="101.43" y="31.17" width="0.17" height="0.46" transform="translate(-4.33 40.79) rotate(-22.26)"/><polygon points="101.56 30.83 101.44 30.54 101.28 30.6 101.4 30.89 101.56 30.83"/><polygon points="105.14 32.6 105.08 32.46 104.61 32.65 104.67 32.79 105.14 32.6"/><path d="M103.65,31.59l.16-.07a1,1,0,0,1,.06-.66l-.11-.29-.14.05c-.19.12-.26.26-.19.42Z"/><path d="M104.65,33.13l.23.55c.14,0,.23-.25.28-.59L105.1,33Z"/><path d="M100.41,50.78c-.07-.2-.22-.25-.43-.16l-.13.05L100,51Z"/><path d="M106.18,63.52v-.34l-.45.18a.31.31,0,0,0,.44.16"/><path d="M104.36,62.14l-.32.13.18.43a.28.28,0,0,0,.19-.41Z"/><path d="M101.47,54.25l0,.32.06.14.13-.05c.21-.09.28-.23.2-.42Z"/><path d="M104.11,59.81l.15-.53-.37,0c-.2.12-.27.25-.21.4a.3.3,0,0,0,.43.15"/><path d="M101.64,52.87l-.06-.14-.32.13.18.43c.21-.09.28-.23.2-.42"/><path d="M101.83,51.17l.16-.06-.22-.55-.48.19.11.26a.3.3,0,0,0,.43.16"/><path d="M104.41,61l0-.35-.16-.41-.92.38.1.26c.07.16.38.2.94.12"/><path d="M102.85,56.28l-.18-.43-.47.2c.06.14.28.22.65.23"/><path d="M62.82,94.05l1.1-1,.09-.14c.38-.55,1-1.66,1.91-3.32l-1.24-.85Q57.26,85.6,56,85.49q-1.1-.54-1.29-.27l-.1.15,8.17,8.82Z"/><polygon points="57.77 93.19 58 93.35 58.1 93.21 57.86 93.05 57.77 93.19"/><path d="M58.22,96.5l.13.09a.3.3,0,0,0,.42-.12l.08-.12-.36-.24Z"/><polygon points="108.42 62.93 108.36 62.79 108.05 62.92 108.11 63.06 108.42 62.93"/><path d="M55.1,90.15l.19-.28-.23-.16c-.1.2-.09.35,0,.44"/><rect x="56.67" y="90.86" width="0.34" height="0.15" transform="translate(-50.3 86.41) rotate(-55.57)"/><rect x="54.77" y="88.34" width="0.34" height="0.15" transform="translate(-49.05 83.78) rotate(-55.59)"/><rect x="56.32" y="84.36" width="0.51" height="0.15" transform="translate(-45.06 83.3) rotate(-55.53)"/><path d="M65.05,96.37l-.23-.16-.1.14c-.1.21-.09.36,0,.44Z"/><path d="M62.86,95.87A2,2,0,0,1,62.43,97l1.08-.47.23.16c.14-.2-.05-.53-.58-1Z"/><rect x="61.72" y="95.74" width="0.34" height="0.15" transform="translate(-52.14 92.74) rotate(-55.6)"/><path d="M64.52,97.42c-.17-.12-.32-.08-.45.11l-.18.25.72.33.1-.15a.28.28,0,0,0-.06-.45Z"/><polygon points="61.47 95.74 61.57 95.6 61.34 95.44 61.24 95.58 61.47 95.74"/><path d="M54.29,88.18l-.2.28.24.16.38-.56q-.23-.16-.42.12"/><path d="M64,99.71a1.2,1.2,0,0,1,.75-.31l.16.32.12.08.28-.39-.13-.09a.89.89,0,0,1-.46-.11l.1-.14a1.4,1.4,0,0,1-.72-.29l-.36.76Z"/><polygon points="96.15 40.35 96.31 40.28 96.19 40 96.03 40.06 96.15 40.35"/><path d="M96.2,40.47l.06.14a1,1,0,0,1,.33.37l.76-.31,0-.15a1.57,1.57,0,0,1-1.1-.05"/><path d="M96.56,43.08a1.16,1.16,0,0,1,.34.37L97,43.4l-.29-.7c-.18.11-.24.24-.18.38"/><polygon points="97.06 32.97 97.02 32.85 96.7 32.98 96.75 33.1 97.06 32.97"/><polygon points="95.93 40.27 95.64 40.39 95.7 40.53 95.99 40.41 95.93 40.27"/><polygon points="95.09 42.57 95.2 42.83 95.36 42.77 95.25 42.5 95.09 42.57"/><path d="M97.92,45.13a.27.27,0,0,0-.4-.15l.23.55a.27.27,0,0,0,.17-.4"/><polygon points="95.9 41.91 96.01 42.19 96.46 42.01 96.34 41.72 95.9 41.91"/><path d="M95.56,35.37l0-.31-.11-.29-.14,0a1.45,1.45,0,0,1-.41.34c0,.13.26.2.64.21"/><path d="M95,40.65,95,40.5a1.23,1.23,0,0,1-.31-.37l-.32.13.24.57Z"/><polygon points="94.24 36.58 94.12 36.29 93.99 36.35 94.11 36.63 94.24 36.58"/><path d="M54.15,89.7,54,89.62a.31.31,0,0,0,.08.43l.1.07c.12-.17.11-.31-.05-.42"/><rect x="54.02" y="84.11" width="0.17" height="0.44" transform="translate(-46.04 81.22) rotate(-55.54)"/><polygon points="95.89 38.81 96.18 38.69 96.07 38.43 95.78 38.55 95.89 38.81"/><path d="M95.59,33.27l0,.33.45-.19a.27.27,0,0,0-.4-.14"/><rect x="160.42" y="47.86" width="0.31" height="0.17" transform="translate(84.49 197.25) rotate(-79.62)"/><polygon points="173.39 27.45 173.05 27.39 172.78 27.94 173.28 28.03 173.39 27.45"/><path d="M172.88,39.31l0-.15-.34-.07-.08.46q.33.06.39-.24"/><path d="M172.8,40.69c0-.21-.05-.33-.28-.37l-.17,0-.1.58.16,0q.34.06.39-.21"/><path d="M174.84,33.23l-.31,0-.06.3a.28.28,0,0,0,.37-.25"/><rect x="173.5" y="28.72" width="0.44" height="0.17" transform="translate(113.93 194.44) rotate(-79.57)"/><path d="M171.19,42.07c.45-.07.7-.19.73-.34l-.29-.18-.5-.1a1,1,0,0,1-.28.56Z"/><path d="M174.14,34.34l.17,0,0-.15a.84.84,0,0,1-.08-.49c-.23,0-.37.07-.4.24a.31.31,0,0,0,.28.37"/><rect x="165.99" y="25.87" width="0.31" height="0.17" transform="translate(110.73 184.73) rotate(-79.64)"/><polygon points="175.55 29.37 175.24 29.31 175.21 29.47 175.52 29.52 175.55 29.37"/><path d="M166,27.3,163.5,40.81l1.38.7a1.7,1.7,0,0,0,.52,0l.79.27c1.53.29,2.49-.66,2.89-2.83.36-1.94.69-3.62,1-5s.6-2.53.86-3.39c-.29-1.79-1.12-2.81-2.48-3.06l-2.12-.39c-.21,0-.33.07-.36.23"/><path d="M165.06,25c0,.13.21.38.7.73a1,1,0,0,0,.25-.4,1.07,1.07,0,0,1-.09-.49,1.81,1.81,0,0,1-.84,0Z"/><polygon points="170.76 26.05 171.09 26.11 171.12 25.95 170.79 25.89 170.76 26.05"/><rect x="167.03" y="25.38" width="0.44" height="0.17" transform="translate(112.12 185.41) rotate(-79.64)"/><path d="M171,24.7a.28.28,0,0,0-.26-.36l-.11.61a.29.29,0,0,0,.37-.25"/><path d="M164.8,23.56l.42-.37-.42-.4-.23.28,0,.12a.3.3,0,0,0,.25.37"/><path d="M169.5,24.74l.05-.31c0-.2-.05-.32-.28-.37l-.17,0,0,.16c0,.15.11.33.42.55"/><polygon points="159.69 49.62 159.99 49.67 160.02 49.52 159.71 49.47 159.69 49.62"/><polygon points="173.13 38.91 173.3 38.94 173.38 38.48 173.21 38.45 173.13 38.91"/><rect x="158.38" y="48.49" width="0.59" height="0.34" transform="translate(82.26 195.99) rotate(-79.63)"/><polygon points="158.37 55.81 158.71 55.87 158.74 55.72 158.4 55.66 158.37 55.81"/><path d="M157.88,53l-.16,0-.06.31.5.09c0-.2,0-.32-.28-.37"/><path d="M162.6,31l.08-.46c-.21,0-.33.08-.36.25Z"/><rect x="109.21" y="63.84" width="0.31" height="0.16" transform="translate(-15.95 45.38) rotate(-21.89)"/><polygon points="59.52 96.98 59.77 97.16 60.05 96.76 59.79 96.59 59.52 96.98"/><path d="M170.05,43.7l.17,0,.05-.31-.5-.09a.31.31,0,0,0,.28.37"/><polygon points="170.8 43.23 170.97 43.26 171.02 42.96 170.86 42.93 170.8 43.23"/><rect x="172.81" y="42.01" width="0.31" height="0.14" transform="translate(99.62 204.28) rotate(-79.34)"/><path d="M166.7,43.55c0,.14.11.31.42.53l.14,0,.13-.73-.64-.12Z"/><rect x="162.43" y="29.49" width="0.16" height="0.31" transform="translate(103.87 184.08) rotate(-79.55)"/><path d="M168.79,43.15a.31.31,0,0,0,.28.37l.42-.37-.67-.12Z"/><polygon points="158.71 50.36 159.02 50.41 159.05 50.26 158.74 50.21 158.71 50.36"/><polygon points="158.31 47.82 157.69 47.57 157.64 47.85 158.28 47.97 158.31 47.82"/><path d="M159,41.66l.08-.44-.33-.06,0,.13a.3.3,0,0,0,.27.37"/><path d="M160.49,41.49a.28.28,0,0,0-.25-.36l-.34-.06-.11.58.34.06c.2,0,.32,0,.36-.22"/><path d="M160.2,45a1,1,0,0,1,.22.64l.65.12-.12-.31c0-.1.08-.14.2-.12L161,45a.31.31,0,0,1,.4-.24l.95.33.05-.28-.34-.06.06-.3.5.09,0-.15a1.35,1.35,0,0,1-.64-.28,1.17,1.17,0,0,1-.51.07c0-.21-.05-.33-.28-.37-.05.31-.18.44-.39.4l-.16,0c-.23,0-.32-.16-.28-.37-.79,0-1.2.05-1.23.25.33.06.46.29.39.68a1,1,0,0,0-.25.42,2.14,2.14,0,0,0,.87-.15"/><rect x="159.28" y="35.3" width="0.44" height="0.17" transform="translate(95.82 185.84) rotate(-79.57)"/><polygon points="159.47 38.84 159.14 38.77 159.11 38.93 159.45 38.99 159.47 38.84"/><rect x="159.13" y="42.12" width="0.59" height="0.17" transform="translate(89.2 191.42) rotate(-79.62)"/><path d="M163.75,26.59a1.65,1.65,0,0,1,.62.28,2.6,2.6,0,0,1,.69-.95l-.31-.22-.16,0c-.12,0-.39.24-.81.77Z"/><path d="M112.13,62.39l.32-.12-.12-.29a1.39,1.39,0,0,1-.75,0l-.13,0c.28.34.51.47.68.39"/><path d="M110.05,63.38l.47.32,0,.32a2.6,2.6,0,0,0,1.25,0l-.06-.14a4.7,4.7,0,0,0-1.43-.87l0-.14a.32.32,0,0,0-.18.41Z"/><path d="M114.69,58.59c.64-.73.93-1.18.87-1.34l-.35,0a1.78,1.78,0,0,1-1.07.91,1.05,1.05,0,0,1,.55.45"/><polygon points="114.27 59.73 114.38 60 114.54 59.93 114.43 59.67 114.27 59.73"/><path d="M115.25,56.88c.14-.06.25-.37.32-.94l-.11-.27c-.4.37-.58.66-.53.87a1,1,0,0,1,.32.34"/><path d="M157.59,55.51l0-.28a1.49,1.49,0,0,1-.75-.61l-.31-.06.11.34-.42.37-.05.3a2.33,2.33,0,0,1,1.37-.06"/><polygon points="159.45 45.42 159.33 45.11 158.55 44.81 158.33 45.06 158.61 45.27 159.45 45.42"/><path d="M160.56,32q-.34,0-.39.21l.31.22Z"/><path d="M162.57,24.7l.08-.46a.27.27,0,0,0-.25-.36l-.33-.07,0,.8Z"/><polygon points="162.36 27.7 162.03 27.64 162 27.8 162.33 27.86 162.36 27.7"/><rect x="163.04" y="23.11" width="0.47" height="0.17" transform="translate(110.9 179.58) rotate(-79.57)"/><path d="M163.71,24.91l.34.06,0-.15c0-.16-.15-.4-.53-.73l-.09.45a.3.3,0,0,0,.25.37"/><polygon points="163.32 43.54 162.84 43.45 162.81 43.6 163.29 43.69 163.32 43.54"/><rect x="161.26" y="28.68" width="0.31" height="0.17" transform="translate(104.09 182.37) rotate(-79.64)"/><path d="M162.33,26l-.06.3.5.09c0-.2-.05-.32-.28-.36Z"/><path d="M160.65,38.89l.3.06.06-.28c-.21,0-.33.07-.36.22"/><path d="M161.41,41.19l0-.15c0-.19-.06-.3-.29-.35l-.33-.06,0,.13a.3.3,0,0,0,.28.37Z"/><path d="M161,37l-.08.46.47.09c0-.15-.1-.34-.39-.55"/><path d="M160.72,42.14a12.09,12.09,0,0,0-.58,1.26l.3.21c.21-.47.36-.69.48-.67l-.12-.34a.79.79,0,0,0,.25-.4Z"/><path d="M160.26,33.62l.81.15q.33.06.39-.24a.88.88,0,0,1-.09-.46l-.16,0a1.79,1.79,0,0,1-.89.29Z"/><polygon points="161.2 38.55 161.23 38.4 160.92 38.34 160.9 38.49 161.2 38.55"/><path d="M74.06,86.74l-.18.26.26.17a.27.27,0,0,0-.08-.43"/><path d="M205.46,74.45a1.13,1.13,0,0,1,.19.79l-.33.11-.11.11.35.34.11-.12a.75.75,0,0,1,.18-.43l.12.11a1.46,1.46,0,0,1,.39-.66l-.68-.47Z"/><polygon points="225.16 61.46 225.04 61.34 224.73 61.66 224.86 61.78 225.16 61.46"/><path d="M207.39,74.61l-.43.66.12.12c.17.16.32.16.46,0l.11-.11a.29.29,0,0,0,0-.46Z"/><path d="M207.66,73.83c.16.16.31.17.44,0l-.49-.47a.31.31,0,0,0,0,.44"/><rect x="208.78" y="70.46" width="0.31" height="0.48" transform="translate(13.82 173.57) rotate(-46.49)"/><path d="M207.72,73.28l.51-.54a1.1,1.1,0,0,1-.26-.68l-.41.43c-.1.12-.09.35.05.69Z"/><rect x="205.72" y="71.66" width="0.31" height="0.17" transform="translate(11.96 171.4) rotate(-46.41)"/><path d="M208.8,75.77l-.13-.11c-.18-.14-.33-.15-.44,0l.37.35Z"/><rect x="209.57" y="72.77" width="0.16" height="0.34" transform="translate(12 173.97) rotate(-46.26)"/><path d="M208.41,73.3l.29,1.13-.2.21c.18.17.54,0,1.07-.42l-.12-.33a1.93,1.93,0,0,1-1-.59"/><polygon points="209.79 72.55 209.91 72.66 210.11 72.46 209.99 72.34 209.79 72.55"/><rect x="209.08" y="77.57" width="0.31" height="0.51" transform="translate(8.59 175.7) rotate(-46.4)"/><path d="M208.33,77l.37.35.11-.11c.15-.41.16-.67,0-.79Z"/><path d="M209.6,69.86l.3-.31-.35-.34-.11.11a.34.34,0,0,0,.05.45Z"/><rect x="223.3" y="61.6" width="0.31" height="0.17" transform="translate(24.13 180.03) rotate(-46.13)"/><path d="M222.2,65.27,222,65a.3.3,0,0,0-.44,0l.72.68a.29.29,0,0,0,0-.46"/><polygon points="222.44 66.96 222.31 66.84 222.01 67.16 222.13 67.28 222.44 66.96"/><polygon points="221.75 66.7 221.94 66.49 221.82 66.37 221.62 66.58 221.75 66.7"/><polygon points="220.62 63.55 220.39 63.34 220.28 63.45 220.51 63.67 220.62 63.55"/><rect x="211.45" y="78.01" width="0.62" height="0.31" transform="translate(9.34 178.05) rotate(-46.52)"/><path d="M224.14,61.09c.13-.14.23-.17.3-.11a1.39,1.39,0,0,1,.21-.43c-.43-.2-.7-.25-.81-.14a.33.33,0,0,0,0,.45Z"/><rect x="215.19" y="68.56" width="0.16" height="0.34" transform="translate(16.8 176.77) rotate(-46.27)"/><path d="M220.75,65.35c.1-.73.11-1.14,0-1.22l-.37-.35-.19.21-.06.8-.11.11q-.09.09-.21,0l-.09.35a4.28,4.28,0,0,0-.85.65,1.94,1.94,0,0,1,.93.46Z"/><path d="M216.9,66.26l.11-.11a.3.3,0,0,0-.44,0l-.09.09a.26.26,0,0,0,.42,0"/><polygon points="213.01 69.41 212.89 69.29 212.69 69.49 212.81 69.61 213.01 69.41"/><path d="M216.76,67.16c-.19-.13-.34-.14-.44,0l.24.23Z"/><path d="M218.39,66.64l-.25-.24-.2.21.5.47c.13-.14.11-.28-.05-.44"/><rect x="217.97" y="67.07" width="0.16" height="0.34" transform="translate(19.01 178.82) rotate(-46.41)"/><path d="M206.09,73.8a.3.3,0,0,0,0,.46l.25.23.51-.54c-.42-.21-.69-.26-.79-.15"/><path d="M224.59,67.33l.62-.44-.35-.33-.11.11a.83.83,0,0,1-.18.44l-.35-.13c.07-.07.07-.15,0-.23-.07.08-.14.08-.23,0a1.39,1.39,0,0,0-.08-1.11l.34-.11.52-.54-.23-.22q-.48-.24-1,.3.19.2-.15.9a2.47,2.47,0,0,0-1.1.41c.08.08.09.16,0,.23l.58.34.49.68a4.41,4.41,0,0,0,1.41.7,1.28,1.28,0,0,0,.37.57l.3-.32-.85-.81a.28.28,0,0,1,0-.44"/><path d="M223.21,70c.1-.1.07-.47-.08-1.11l-.25-.24-.07.33-.11.11c-.21.23-.48.18-.81-.13l-.2.2.36.13.14.34a.3.3,0,0,1,.42,0l.18.56.35.33c.12.12.42.13.9,0l.11-.11-.13-.12a2.11,2.11,0,0,1-.81-.34"/><rect x="225.92" y="68.66" width="0.31" height="0.17" transform="translate(20.94 186.02) rotate(-46.67)"/><rect x="226.17" y="68.23" width="0.62" height="0.17" transform="translate(20.8 185.17) rotate(-46.39)"/><path d="M222.92,73.63l-.52.54.13.12a.94.94,0,0,1,.65-.2l-.14-.35Z"/><rect x="222.43" y="75.71" width="0.31" height="0.17" transform="translate(14.17 184.66) rotate(-46.39)"/><path d="M228.07,60.05c-.22.23-.48.19-.8-.11l-.1.11a.15.15,0,0,0,0,.23,2.08,2.08,0,0,0-.85.4l.25.24c.34-.36.59-.47.74-.33s.65,0,1.65-.29a2.08,2.08,0,0,0-.39-.79Z"/><path d="M231,57.46l-.41.43c.11.11.33.11.66,0l-.12-.33Z"/><path d="M229.69,58.1c-.2.21-.38.25-.53.1l.09-.34c.08.08.15.09.21,0-.56-.53-1-.62-1.36-.26a1.87,1.87,0,0,0,.28.45l.67.25.62.79.22.22c.17.15.32.16.46,0l.11-.11c.13-.14.11-.29-.05-.44Z"/><path d="M228.94,62.77l-.25-.24a11.2,11.2,0,0,0-1.09-1.25c-.18.19-.78.18-1.8,0l-.31.32c.24.22.2.75-.11,1.57.25.23.3.42.17.56l-.32.33a1.61,1.61,0,0,0-.81-.38l-.35-.33.19-.21L225,63l.2-.21-.48-.45c-.11-.11-.32-.11-.65,0l-.21.23-.08.32a1.33,1.33,0,0,1-.47-.24l-.08.57c-.07.08-.14.08-.23,0s0,.13,0,.21l-.64.42-.22.23a.31.31,0,0,0,0,.46.13.13,0,0,1,.21,0l-.06.56a2.29,2.29,0,0,1,.69.47l.21-.22a.77.77,0,0,1,0-1.23q.18-.18,1.59.48c.38.37.43,1,.14,1.78l.13.12.19-.21.23.22-.3.11.6.56L226,67l.07-.57.85-.65-.15-.33-.89,0a.29.29,0,0,1,0-.46l.19-.2.57-.11.11-.11c-.65-.61-.62-1.28.06-2l-.33-.11-.12-.12a.28.28,0,0,1,0-.45,2.48,2.48,0,0,1,1.38.49l.09-.35.25.24c.11.1.12.33,0,.67l-.21.22-.25-.23-.41.43a1.59,1.59,0,0,0,.36,1.8l.43-.45c-.33-.45-.39-.78-.19-1s.47-.41,1.16-1"/><rect x="39.73" y="159.48" width="0.4" height="0.33"/><path d="M42.7,156.06q0-.36.12-.84c-.12,0-.17-.06-.17-.18-1.3.34-2,1.05-2,2.13,0,.16.2.33.6.52h.4c.24,0,.36-.12.36-.34l-1-.73c.2-.47.4-.7.6-.7.18.47.36.7.56.7h.4a4.75,4.75,0,0,1,.05-.56"/><path d="M41.09,158.93c.14.71.33,1.07.6,1.07,0-.59.19-.88.56-.88v-.7h-.56q0,.51-.6.51"/><path d="M39.17,156.28a1.4,1.4,0,0,0,1.36-1.06V155c-.91,0-1.36.41-1.36,1.24"/><rect x="38.97" y="156.62" width="0.6" height="0.18"/><path d="M41.09,151.69h.2V151a1.14,1.14,0,0,1-.4-.7H40.7c-.25,0-.37.16-.37.36V151c.51,0,.76.24.76.73"/><path d="M40.13,151.84c0-.22-.13-.34-.4-.34l-.36.52h.76Z"/><path d="M46.49,162.31h-.56c0,.23.17.34.37.34h.59c0-.22-.13-.34-.4-.34"/><rect x="45.93" y="170.11" width="0.17" height="0.7"/><path d="M43.41,162.47h-.2v.18c0,.14.52.38,1.56.73v.33l-.59.89h1a1.19,1.19,0,0,1,.39-.7v-.37c0-.4-.7-.76-2.12-1.06"/><rect x="45.53" y="160.18" width="0.2" height="0.88"/><rect x="40.33" y="143.89" width="0.56" height="0.15"/><rect x="44.17" y="169.04" width="0.4" height="0.18"/><rect x="42.65" y="162.13" width="0.36" height="0.33"/><path d="M43.21,160.52v-.16a1.28,1.28,0,0,1-.19-.54.17.17,0,0,0,.19-.19c-.26,0-.39-.23-.39-.7h-.37l.2,1.59Z"/><rect x="44.57" y="166.73" width="0.2" height="0.37"/><path d="M46.49,138.2v-.7h-.76v.18c0,.18.26.36.76.52"/><rect x="44.94" y="159.63" width="0.2" height="0.55"/><path d="M46.69,164.6a1.49,1.49,0,0,1,.37.88h.2v-1.4h-.57Z"/><path d="M42.25,152.2c.27,0,.4-.12.4-.36l-1-.15-.2.33.37.18Z"/><rect x="41.09" y="142.64" width="0.6" height="0.52"/><path d="M41.29,153.79l.4.18.17-.33v-.19h-.17c-.27,0-.4.16-.4.34"/><path d="M41.49,149.37c-.64.17-1,.34-1,.52h1.33Z"/><rect x="46.1" y="160.52" width="0.2" height="0.55"/><path d="M49.58,161.43h-.4v.34c.26,0,.4-.12.4-.34"/><rect x="49.78" y="161.25" width="0.4" height="0.18"/><path d="M47.65,162.65h.57V162a3.45,3.45,0,0,0-1.53-.7v.7c.25,0,.57.23,1,.7"/><path d="M47.46,160l1-.18v-.19l-1.36-.33v.33a.36.36,0,0,0,.4.37"/><path d="M42.65,152.9v.37H43a.33.33,0,0,0-.36-.37"/><path d="M44.94,140h.2v-.18c0-.18-.19-.36-.57-.55l-.2.37Z"/><path d="M44,138.2c.26,0,.39-.11.39-.34h-.76c0,.23.17.34.37.34"/><rect x="44.17" y="142.98" width="0.2" height="0.37"/><path d="M43.61,137.32l-.4-.19v.55c.27,0,.4-.12.4-.36"/><path d="M41.86,142.28v.18h.59c.18,0,.43-.29.76-.88v-.18L43,141a2.13,2.13,0,0,1,.59-.15l.76.33v-.33l-.19-.89H44c0,.35-.13.52-.37.52H43l-.57-.36a2,2,0,0,0-.76,1.61l.36.18Z"/><rect x="44.18" y="160" width="0.4" height="0.18"/><rect x="43.21" y="138.75" width="0.2" height="0.33"/><path d="M42.45,144.23c-.26,0-.4.16-.4.36v.18h1c0-.18-.18-.36-.56-.54"/><path d="M41.86,144.78l-1-.37H40.7v.18c.53,0,.79.4.79,1.07h.37v-.18a1.4,1.4,0,0,1-.17-.55c.11,0,.17-.05.17-.15"/><path d="M43.41,145.66H43c-.18,0-.37.17-.57.52v.18a.34.34,0,0,0,.37.36h.59Z"/><path d="M44,159.12v-.7a.33.33,0,0,0-.37-.37l-.2.88.4.19Z"/><path d="M44,160.88h.19c.27,0,.4-.12.4-.36h-1a.34.34,0,0,0,.37.36"/><path d="M41.86,146.72c-.82.31-1.26.6-1.33.89v.18h.17a1.76,1.76,0,0,0,.79-.18c.31,0,.7.35,1.16,1.06l.37-.18c-.56-1.18-.94-1.77-1.16-1.77"/><path d="M245.11,144.23q-.39.06-.39.36v.18h1q0-.27-.57-.54"/><rect x="241.63" y="156.62" width="0.6" height="0.18"/><path d="M241.83,156.28a1.39,1.39,0,0,0,1.36-1.06V155c-.9,0-1.36.41-1.36,1.24"/><rect x="242.4" y="159.48" width="0.4" height="0.33"/><path d="M243.76,158.93c.13.71.33,1.07.59,1.07,0-.59.19-.88.57-.88v-.7h-.57c0,.34-.2.51-.59.51"/><path d="M245.36,156.06c0-.24.07-.52.12-.84-.11,0-.17-.06-.17-.18q-2,.51-1.95,2.13c0,.16.2.33.59.52h.4c.25,0,.37-.12.37-.34l-1-.73c.19-.47.39-.7.59-.7.18.47.37.7.57.7h.39a4.75,4.75,0,0,1,.05-.56"/><path d="M245.88,160.52v-.16a1.2,1.2,0,0,1-.2-.54c.13,0,.2-.06.2-.19-.27,0-.4-.23-.4-.7h-.37l.2,1.59Z"/><rect x="243.76" y="142.64" width="0.6" height="0.52"/><path d="M244.52,142.28v.18h.59c.18,0,.44-.29.77-.88v-.18l-.2-.37a2.13,2.13,0,0,1,.59-.15l.77.33v-.33l-.2-.89h-.2c0,.35-.12.52-.37.52h-.59l-.57-.36a2,2,0,0,0-.76,1.61l.37.18Z"/><rect x="245.31" y="162.13" width="0.36" height="0.33"/><path d="M243.76,151.69H244V151a1.11,1.11,0,0,1-.39-.7h-.2c-.25,0-.37.16-.37.36V151c.51,0,.77.24.77.73"/><path d="M242.79,151.84c0-.22-.13-.34-.39-.34L242,152h.76Z"/><rect x="242.99" y="143.89" width="0.56" height="0.15"/><rect x="248.59" y="170.11" width="0.17" height="0.7"/><path d="M47.85,166c0-.24-.13-.37-.39-.37h-.4l-.37.19a4.3,4.3,0,0,1,.2,1.24,1.94,1.94,0,0,1,1-.18v-.7l-.39.15V166Z"/><path d="M249.36,164.6a1.53,1.53,0,0,1,.36.88h.2v-1.4h-.56Z"/><path d="M250.32,163.9c.26,0,.39-.12.39-.37h-.39Z"/><path d="M250.88,163.53v.55c1.41-.39,2.12-.74,2.12-1.07v-.18h-.36a3,3,0,0,1-1.76.7"/><rect x="246.84" y="169.04" width="0.4" height="0.18"/><path d="M145.55,10.44A135.11,135.11,0,1,0,280.66,145.55,135.11,135.11,0,0,0,145.55,10.44m36.7,55.29a8.53,8.53,0,0,1,.61-1l.89-1.78a1.75,1.75,0,0,1,1.93-.85c1.46.8,2.69,1.44,3.67,1.94a1.57,1.57,0,0,1,1,2l-1.56,3.09c-.65,1-1.41,1.31-2.29.87l-4.13-2.09c-.63-.39-.68-1.12-.14-2.18M153.67,53c.33-1.2.51-1.83.52-1.9a.86.86,0,0,1-.09-.46l.23-.28a1.44,1.44,0,0,0,0-.76c.35-1.27.6-2.3.75-3.1l.3-1.63a17.93,17.93,0,0,0,.51-4.66,6,6,0,0,0,.41-1.31l.28-1.48a35.37,35.37,0,0,1,.87-3.83,30.34,30.34,0,0,1,.55-3.89,4.65,4.65,0,0,1,.41-1.29,11.33,11.33,0,0,1,.19-2L159,24a23.91,23.91,0,0,1,.61-2.36,1.37,1.37,0,0,1,0-.77c.17-.95,1.16-1.43,3-1.45l.5.09a26.29,26.29,0,0,1,3.36.93,2.73,2.73,0,0,1,1-.12Q179.82,22.64,178,32.3l-1.44,7.85q-1.33,7.22-9.1,8.31a19.2,19.2,0,0,1-3-.27l-2.26-.42-2,11a1.41,1.41,0,0,0,0,.64c-.54,1-1.23,1.45-2.09,1.29l-4.08-.75a1.57,1.57,0,0,1-1.26-1.31q.63-4.4.87-5.67m67.11,92.6a75.24,75.24,0,1,1-75.23-75.24,75.24,75.24,0,0,1,75.23,75.24m.57-45.76a9,9,0,0,1,1.07-.51l1.73-1a1.73,1.73,0,0,1,2.07.35c.78,1.47,1.45,2.69,2,3.64a1.58,1.58,0,0,1-.27,2.25l-3,1.71c-1.1.5-1.9.32-2.38-.54l-2.29-4c-.31-.68.05-1.31,1.09-1.9M133.6,53.87c1.66-.11,3-.22,4.13-.33s1.73.28,2,1.15l.34,3.45c0,1.21-.48,1.86-1.46,2l-4.61.46q-1.11,0-1.29-1.77a8.92,8.92,0,0,1,0-1.19l-.2-2a1.75,1.75,0,0,1,1.17-1.75M91.76,33.52a10.8,10.8,0,0,1,5.76-5.59q5-1.11,7-.27a9,9,0,0,1,5.65,5.47l1.19,2.92q.31,1.66-.9,2.16l-4,1.63a1.5,1.5,0,0,1-2-1l-.17-.41a2.47,2.47,0,0,1-.14-1.25q-1.94-3.9-4.56-2.82c-1.33.82-1.79,1.71-1.4,2.66L107,58.62c.78,1.41,1.79,1.86,3,1.35,1.76-1,2.41-2,2-3.06l-.91-2.23a7.16,7.16,0,0,0-.68-1.2,2.27,2.27,0,0,1,1.61-2.61l2.6-1.06c1.38-.44,2.24-.24,2.58.59l1.13,2.77q2.92,7.15-4.11,12.24a14,14,0,0,1-1.79.89q-5.86,2.4-11-2.47a8.23,8.23,0,0,1-1.31-2.39l-.63-1.53a1.41,1.41,0,0,0-.44-.63l-.18-.9L98.2,56.7c-.3-.74-.72-1.6-1.23-2.56a1.07,1.07,0,0,0,0-.5l-.26-.2a6.56,6.56,0,0,0-.37-1.33l-.16-.4c-.12-.29-.23-.41-.34-.37l-.12-.76-1.31-3.2a33.05,33.05,0,0,0-1.41-3,8,8,0,0,0-.52-1.71c-.12-.3-.5-1.07-1.12-2.31q-.87-6.31.42-6.84M84.67,75.4c1.33-1,2.43-1.85,3.28-2.53a1.56,1.56,0,0,1,2.26-.09l2.17,2.7c.66,1,.61,1.82-.16,2.44l-3.61,2.9q-.93.62-2-.78a10.22,10.22,0,0,1-.68-1l-1.25-1.55a1.75,1.75,0,0,1,0-2.11M39.55,74c1.38-2,2.93-2.4,4.66-1.21q34.23,13.1,35.11,13.69c.73.51.77,1.34.1,2.49l-2.25,3.28c-.58.84-1.77.82-3.58-.08-.28.22-.62.19-1-.09l-5,7.35q2.91,2.66,1.89,4.13L67,107.14a2,2,0,0,1-2,.59l-5.59-6.46a83.89,83.89,0,0,1-5.95-6.48,15.64,15.64,0,0,1-2.74-2.91L38.84,78.77c-.74-1-.85-1.9-.34-2.65-.08-.06.27-.75,1-2.08m5.22,106.88a3.08,3.08,0,0,1-1.75.52H40.33A2.34,2.34,0,0,1,39,179.12c.44-1.4.85-3,1.23-4.66s.74-3.57,1.09-5.6c.2,0,.52-1.13,1-3.38l-.2-2.1H35.13a2.52,2.52,0,0,1-1.36-2.31q2.22-10.73,3.48-17.36c.84-4.43,1.35-7.5,1.52-9.23a3.3,3.3,0,0,1,2.92-1.58h5.2c1.64,0,2.73.47,3.28,1.4q0,.33-5.6,20.74a11.61,11.61,0,0,0,2.32.54H50a26.07,26.07,0,0,0,2.69-.18q2.52.27,2.52,1.77Q45.54,180,44.77,180.92m18.95,39-1.3-1.44-6.16,5.55a1,1,0,0,0-.27.4,1.56,1.56,0,0,1-1.93-.32l-2.35-2.6a1.34,1.34,0,0,1-.25-1.46c1.57-1.54,2.59-2.53,3.07-3l1.18-.87a.64.64,0,0,1,.14-.33l.27-.05a1,1,0,0,0,.32-.48c.79-.58,1.4-1.07,1.85-1.47l.91-.82a11.73,11.73,0,0,0,2.39-2.54,4.61,4.61,0,0,0,.85-.57l.83-.75a22.52,22.52,0,0,1,2.26-1.84,20.64,20.64,0,0,1,2.07-2.06,3.47,3.47,0,0,1,.84-.57,8.58,8.58,0,0,1,1-1.08l1.32-1.19a15.57,15.57,0,0,1,1.44-1.1.9.9,0,0,1,.32-.48c.53-.48,1.39-.26,2.57.68l.29.32a22.06,22.06,0,0,1,1.79,2.33,2.27,2.27,0,0,1,.73.47q7.14,7.9,1.72,12.79l-4.41,4q-4,3.65-9.62.21A17.13,17.13,0,0,1,63.72,220m18.73,28.78-2.72-2c-.7-.51-.71-1.43,0-2.78a.59.59,0,0,1,0-.79l-6.11-4.41q-2.06,2.08-3.29,1.2l-2.94-2.12a1.64,1.64,0,0,1-.54-1.62l5.07-3.92a59,59,0,0,1,5.07-4.2,10.68,10.68,0,0,1,2.28-1.93l10.27-8.3a1.78,1.78,0,0,1,2.14-.09,6.3,6.3,0,0,1,1.71,1c1.66,1.2,2,2.43,1.12,3.7q-9.58,25.71-10,26.35c-.39.54-1.06.51-2-.08m16.61,6.83a1.32,1.32,0,0,1-1.72.44l-3.57-1.61a1.88,1.88,0,0,1-.48-1.31,4.17,4.17,0,0,1,.55-.87c.44-1.21.73-2,.88-2.3a20,20,0,0,1,1.18-2.27c.48-1.3.91-2.37,1.3-3.22s1.14-2.42,2.29-4.72q.42-1.28.69-1.89l.59-1a.71.71,0,0,0,0-.46,10,10,0,0,0,.78-1.37l1.29-2.85a7.83,7.83,0,0,0,.2-1.49l-3-1.38a1.65,1.65,0,0,1-1.16-1.51l.23-.15a.7.7,0,0,0,0-.36l.36-.45A11.89,11.89,0,0,0,100,225a2.14,2.14,0,0,1,2-.43l1.22.67,1.53.7c.68.31,1.5.63,2.45,1a1.2,1.2,0,0,0,.35.28,1.26,1.26,0,0,0,.55.12c1.47.75,2.68,1.34,3.64,1.78l1.4.63a14.82,14.82,0,0,0,1.45.53c.85.6,1.16,1.15.94,1.64l-1.19,2.64c-.31.69-1.15.73-2.5.12l-2.8-1.27Zm17,5.28a1,1,0,0,0,0,.45,1.56,1.56,0,0,1-1.82.76l-3.34-.94a1.49,1.49,0,0,1-1.07-1.34c.12-.41.42-1.3.91-2.66.35-1.59.6-2.64.74-3.16a5.63,5.63,0,0,1,.62-1.2l.42-2.44a3.67,3.67,0,0,0,.38-.83c.19-1,.33-1.68.41-2l.26-.39a2.72,2.72,0,0,1,.11-.89,1,1,0,0,1,.29-.51l.18-1.69.67-1.3c0-.13.11-.57.23-1.33.46-1.28.74-2.09.84-2.44,0-.06,0-.36.11-.91l.29-.49V237a.7.7,0,0,1,.23-.27c0-.06,0-.37.11-.91q1.25-4.4,2.31-4.09l1,.16c2.7.76,4,1.36,3.86,1.79Zm26.68,4.55a1.28,1.28,0,0,1-1.5,1l-3.48-.36c-1-.1-1.73-1.56-2.08-4.38-.34-.79-.73-1.87-1.17-3.22s-1-3-1.5-4.95c-.31,0-.62-.7-.93-2-.18,0-.25-.18-.22-.47h-.14l-1.3,12.58a.75.75,0,0,0,.09.47,1.61,1.61,0,0,1-1.67,1.06l-3.75-.39c-.28-.07-.62-.44-1-1.13a12.87,12.87,0,0,0,.32-1.64l.45-4.35.21-.66a17.91,17.91,0,0,1,.1-3.71l.16-.2a.68.68,0,0,0-.11-.36c.23-1.22.37-2.18.45-2.88.11-1.1.17-2.14.18-3.13l.51-2.2-.19-.93a10.12,10.12,0,0,0,.3-1.53l.11-1a.84.84,0,0,0-.1-.46.78.78,0,0,0,.18-.33c.11-1.06.17-2.56.17-4.47.42-1.09,1-1.59,1.85-1.51,1.15.2,1.8.3,1.94.32l.85,0c1.59.16,2.46.85,2.61,2.06l3.67,12h.15l.3-.08a.54.54,0,0,1-.11-.34,4.37,4.37,0,0,1,.21-.67l-.12-.23a3.2,3.2,0,0,0,.41-1.42l0-.35c.07-.73.13-1.35.15-1.86s0-.89,0-1.14c.07-.41.15-.88.23-1.42s.15-1.14.22-1.82l.05-.44c0-.29.05-.61.06-1s0-.75,0-1.16a1.78,1.78,0,0,1,1.81-1.16l2.79.29a2.15,2.15,0,0,1,1.71,1ZM173,262.91a14.77,14.77,0,0,1-1.62.48,8.23,8.23,0,0,1-8.66-3,5.27,5.27,0,0,1-.69-1.91l-.26-1.2a1,1,0,0,0-.26-.51v-.69l-.29-1.31a17.05,17.05,0,0,0-.59-2,.91.91,0,0,0,.07-.37l-.19-.18a4.34,4.34,0,0,0-.08-1l-.07-.32c0-.23-.12-.33-.21-.31l0-.57-.55-2.51a21.42,21.42,0,0,0-.66-2.37,5.43,5.43,0,0,0-.14-1.33c0-.24-.24-.84-.55-1.82.23-3.18.72-4.86,1.49-5a9.76,9.76,0,0,1,5.66-3.52c2.84-.18,4.78,0,5.82.56A6.33,6.33,0,0,1,175,238.6l.5,2.28a1.36,1.36,0,0,1-1.1,1.5l-3.56.78a1.18,1.18,0,0,1-1.48-.94l-.07-.32a1.72,1.72,0,0,1,.09-.94c-.63-2.06-1.72-2.92-3.29-2.58-1.22.46-1.75,1.07-1.59,1.82l3.69,16.91a1.8,1.8,0,0,0,2.28,1.33c1.6-.52,2.31-1.2,2.13-2.05l-.38-1.75a4.94,4.94,0,0,0-.36-1c.06-.93.64-1.52,1.75-1.76l2.32-.5c1.21-.18,1.89.06,2,.71l.47,2.18q1.23,5.61-5.41,8.6M198.75,254l-9.61,4.13c-.86.36-1.53,0-2-1.2a11,11,0,0,1-.62-1.8l-.53-.86-.92-2.53c-.25-.57-.66-1.41-1.23-2.5q-.5-1.5-.93-2.52a14.48,14.48,0,0,0-.84-1.59,22.13,22.13,0,0,0-1-2.72c-.16-.39-.31-.61-.44-.66a4.85,4.85,0,0,0-.26-1l-.05-.1a27.48,27.48,0,0,0-1.41-2.93,17.59,17.59,0,0,0-.79-2.21,4.31,4.31,0,0,0-.92-1.42,4.63,4.63,0,0,0-.27-1l-.57-1.32c-.28-.66.18-1.34,1.39-2.06l.26-.11a19.42,19.42,0,0,1,1.83-.66,1,1,0,0,1,.36-.28c1-.29,1.62-.11,1.89.52l9.52,22.17a6.42,6.42,0,0,1,1.14-.13,1.34,1.34,0,0,0,.35-.28c.88-.29,1.54-.53,2-.72l2-1c.82-.19,1.35,0,1.58.53l1.06,2.47a1.38,1.38,0,0,1-.92,1.73m16.39-10.18a21.81,21.81,0,0,1-2,1.61,8.18,8.18,0,0,1-8.36.83,8.8,8.8,0,0,1-2.83-2.67,3.09,3.09,0,0,0-.35-1,10.2,10.2,0,0,1-.79-.82,7.13,7.13,0,0,1-.68-.88l-.45-.65a4.1,4.1,0,0,1-.57-1.09,7.53,7.53,0,0,1-.92-1.11l-.38-.56q-1.07-1.58-2.33-3.68a4.93,4.93,0,0,1-.63-.67s-.1-.24-.25-.64c-.64-.77-1.1-1.35-1.37-1.76-.18-.25-.51-.83-1-1.75l-1.11-1.12a2.85,2.85,0,0,0-.39-.83.74.74,0,0,0-.36-.28q-1.32-1.94,1.1-3.58l1.39-.94c1.12-.52,1.77-.64,2-.38L207,239.77c1.18,1.73,2.42,2.14,3.73,1.25l.33-.22c.72-.77.91-1.4.58-1.88l-.12-.18a5.23,5.23,0,0,1-.76-1.38,13.66,13.66,0,0,1-1.06-1.3q-.91-1.35-3.77-5.81c-.6-.72-1-1.16-1.06-1.3a4.75,4.75,0,0,0-.5-1,4.88,4.88,0,0,0-.63-.66,11,11,0,0,0-.95-1.65l-.12-.18a3,3,0,0,0-.62-.66,2.73,2.73,0,0,0-.39-.83q-.6-.89-1.62-2.13c0-.05-.16-.33-.38-.82a8.11,8.11,0,0,1-.88-1c-.54-.8-.07-1.69,1.39-2.69l1.16-.78c1.31-.89,2.19-1,2.65-.32L216.08,234q3.27,4.83-.94,9.8m19.46-17.36a14,14,0,0,1-1.8,2.36L227.91,234a2,2,0,0,1-1.49-.06c-.74-.83-1.25-1.38-1.52-1.65-.07-.06-.37-.28-.91-.66-.05,0-.05-.11,0-.18a4.41,4.41,0,0,1-.74-.51c-1-.9-1.91-1.88-2.89-2.95a23.72,23.72,0,0,1-2-1.74l-.3-.49c-1.33-1.06-2.07-1.63-2.23-1.72a4.12,4.12,0,0,0-.63-.8l-1.53-1.45a3.27,3.27,0,0,1-.87-1.2l-4.47-3.88a5.63,5.63,0,0,0-1-1.11c-.13-.11-.56-.46-1.31-1q-.81-.77.66-2.64,1.68-1.6,2.58-2.55c.36-.38,1-1.11,1.93-2.2a12.36,12.36,0,0,1,4.7-2.68,6.75,6.75,0,0,1,6.15,1.81l2.26,2.15a6.75,6.75,0,0,1,2.22,4.63,7.36,7.36,0,0,1,4.74,2l2.26,2.16q3.89,3.69,1.06,9.28m.53-167.36q-18.31,31.75-19,32.52c-.62.65-1.44.55-2.47-.29l-2.88-2.74c-.75-.71-.53-1.88.64-3.52a.83.83,0,0,1,.25-1l-6.46-6.15c-2.06,1.63-3.51,2-4.38,1.22l-3.11-3a2,2,0,0,1-.27-2.11l7.27-4.5A84.75,84.75,0,0,1,212,64.7a15.28,15.28,0,0,1,3.31-2.24l14.8-9.59c1.13-.57,2-.55,2.67.08.08-.07.7.38,1.88,1.36q2.64,2.5.47,4.79m10.55,122.34H243a2.35,2.35,0,0,1-1.36-2.32c.45-1.4.85-3,1.23-4.66s.74-3.57,1.09-5.6c.2,0,.52-1.13,1-3.38l-.19-2.1h-6.93a2.52,2.52,0,0,1-1.36-2.31q2.22-10.73,3.48-17.36c.84-4.43,1.35-7.5,1.53-9.23a3.27,3.27,0,0,1,2.91-1.58h5.21c1.63,0,2.72.47,3.28,1.4q0,.33-5.6,20.74a11.31,11.31,0,0,0,2.32.54h3.08a25.9,25.9,0,0,0,2.68-.18q2.52.27,2.52,1.77Q248.2,180,247.43,180.92a3.06,3.06,0,0,1-1.75.52"/><rect x="247.24" y="166.73" width="0.2" height="0.37"/><path d="M246.08,162.47h-.2v.18c0,.14.52.38,1.55.73v.33l-.59.89h1a1.16,1.16,0,0,1,.4-.7v-.37c0-.4-.71-.76-2.12-1.06"/><rect x="248.2" y="160.18" width="0.2" height="0.88"/><path d="M249.16,162.31h-.57c0,.23.17.34.37.34h.59c0-.22-.13-.34-.39-.34"/><rect x="245.88" y="138.75" width="0.2" height="0.33"/><path d="M250.52,166c0-.24-.14-.37-.4-.37h-.4l-.36.19a4.63,4.63,0,0,1,.19,1.24,2,2,0,0,1,1-.18v-.7l-.4.15V166Z"/><rect x="248.76" y="160.52" width="0.2" height="0.55"/><rect x="247.6" y="159.63" width="0.2" height="0.55"/><path d="M249.16,138.2v-.7h-.77v.18c0,.18.26.36.77.52"/><path d="M250.32,162.65h.56V162a3.42,3.42,0,0,0-1.52-.7v.7c.24,0,.56.23,1,.7"/><path d="M247.6,140h.2v-.18c0-.18-.19-.36-.56-.55l-.2.37Z"/><path d="M252.24,161.43h-.4v.34c.27,0,.4-.12.4-.34"/><path d="M48.22,163.53v.55c1.41-.39,2.12-.74,2.12-1.07v-.18H50a2.91,2.91,0,0,1-1.75.7"/><path d="M250.12,160l1-.18v-.19l-1.36-.33v.33a.36.36,0,0,0,.4.37"/><path d="M47.65,163.9c.27,0,.4-.12.4-.37h-.4Z"/><path d="M244.92,152.2q.39,0,.39-.36l-1-.15-.2.33.37.18Z"/><rect x="252.44" y="161.25" width="0.4" height="0.18"/><path d="M246.27,137.32l-.39-.19v.55q.39,0,.39-.36"/><rect x="246.84" y="160" width="0.4" height="0.18"/><path d="M246.64,160.88h.2q.39,0,.39-.36h-1c0,.24.15.36.37.36"/><rect x="246.84" y="142.98" width="0.2" height="0.37"/><path d="M246.64,138.2c.26,0,.4-.11.4-.34h-.77c0,.23.17.34.37.34"/><path d="M246.64,159.12v-.7a.32.32,0,0,0-.37-.37l-.2.88.4.19Z"/><path d="M246.08,145.66h-.4c-.18,0-.37.17-.57.52v.18c0,.24.15.36.37.36h.6Z"/><path d="M245.31,152.9v.37h.37a.33.33,0,0,0-.37-.37"/><path d="M244,153.79l.4.18.17-.33v-.19h-.17c-.26,0-.4.16-.4.34"/><path d="M244.15,149.37c-.64.17-1,.34-1,.52h1.33Z"/><path d="M244.52,146.72c-.82.31-1.26.6-1.33.89v.18h.17a1.73,1.73,0,0,0,.79-.18c.31,0,.7.35,1.16,1.06l.37-.18c-.55-1.18-.94-1.77-1.16-1.77"/><path d="M244.52,144.78l-1-.37h-.2v.18c.53,0,.79.4.79,1.07h.37v-.18a1.6,1.6,0,0,1-.17-.55c.11,0,.17-.05.17-.15"/><path d="M226.22,66.82l.1.1c.15-.15.48-.18,1-.08l-.59-.57Z"/><polygon points="221.48 69.37 221.85 69.72 221.96 69.61 221.59 69.25 221.48 69.37"/><path d="M221.89,64.16l-.14-.35-.31.32q.26.23.45,0"/><path d="M213.08,79.64l-.1-.1a1.18,1.18,0,0,1-.76.31l.24.23c.12.11.37.07.76-.1Z"/><rect x="214.08" y="85.55" width="0.16" height="0.34" transform="translate(4.4 181.7) rotate(-46.4)"/><path d="M216.26,86.4a.28.28,0,0,0,.44,0l-.23-.21Z"/><path d="M214.39,82.34l.32-.33-.35-.34c-.08.09-.07.31,0,.67"/><path d="M214.42,81.12q-.16-.15-1,.09l-.2.21c-.1.11-.09.33,0,.67a1.09,1.09,0,0,1,.77-.31Z"/><path d="M216.39,83.38,216,83c-.1-.09,0-.53.34-1.31l-.12-.12.33-.11.11-.11-.12-.12c-.18-.11-.32-.11-.44,0a3.56,3.56,0,0,0-.73,2.2l-.32.34c-.13.14-.31.09-.56-.14l-.11.11-.35,1.56.13.11c.16.16.32.17.46,0a2,2,0,0,0,.36-1.12c.41-.44.79-.5,1.12-.19l.92-1a.29.29,0,0,0,0-.46Z"/><path d="M214,83.21l-.12-.11-.21.22a.3.3,0,0,0,0,.46l.34-.11c.14-.15.13-.3,0-.46"/><rect x="220.77" y="77.45" width="0.31" height="0.17" transform="translate(12.39 184.01) rotate(-46.39)"/><path d="M218.38,78.65a.31.31,0,0,0,0,.46l.32-.34c.13-.14.12-.28,0-.44Z"/><path d="M221.12,67.35l-10,6.68.13.12.85,1.24.13.12q.72.67,3,2.4l1-1.09q4.25-6.84,4.55-8.12c.48-.66.63-1.07.47-1.23Z"/><rect x="217.48" y="80.29" width="0.16" height="0.34" transform="translate(8.95 181.91) rotate(-46.23)"/><polygon points="216.98 79.38 216.5 78.93 216.18 79.27 216.55 79.83 216.98 79.38"/><polygon points="217.69 81.52 217.81 81.64 218.02 81.41 217.9 81.29 217.69 81.52"/><rect x="73.63" y="89.27" width="0.34" height="0.16" transform="translate(-41.62 99.76) rotate(-55.6)"/><path d="M68.3,92.19l.19-.28c.09-.12,0-.37-.21-.73l-.32.19-.08.12a1.11,1.11,0,0,1,.42.7"/><path d="M53.19,81.8l.13.09a.86.86,0,0,1,.45.11l-.06.37a.14.14,0,0,0-.23,0c.09.06.1.13,0,.23a1.4,1.4,0,0,0-1.09.25l-.16-.32-.62-.42-.17.26q-.16.51.45.93c.11-.15.41-.15.91,0a2.48,2.48,0,0,0,.58,1c.07-.1.14-.12.23-.06l.24-.62.59-.59A4.74,4.74,0,0,0,55,81.6a1.34,1.34,0,0,0,.5-.45l-.36-.25-.66,1a.27.27,0,0,1-.43.08l-.54-.54Z"/><polygon points="67.6 87.92 67.09 87.57 66.72 88.11 67.11 88.37 67.6 87.92"/><path d="M69,87.69a.31.31,0,0,0,.08.43,3.39,3.39,0,0,0,2.28.36l.39.27c.15.11.13.3-.06.58l.13.09,1.59.1.1-.15a.28.28,0,0,0-.06-.45,2,2,0,0,0-1.16-.18q-.75-.51-.36-1.08l-1.11-.76a.29.29,0,0,0-.45.11l.75.51-.29.42c-.08.11-.53.07-1.35-.13l-.1.14-.16-.32-.12-.08Z"/><rect x="61.22" y="99.57" width="0.17" height="0.31" transform="translate(-55.6 93.54) rotate(-55.39)"/><path d="M66.6,86.19l-.39-.26c-.15-.11-.3-.07-.42.12l.36.25a.31.31,0,0,0,.45-.11"/><rect x="68.93" y="86.22" width="0.17" height="0.31" transform="translate(-41.25 94.49) rotate(-55.59)"/><rect x="55.07" y="80.1" width="0.17" height="0.31" transform="translate(-42.23 80.4) rotate(-55.59)"/><path d="M71.34,89.87l-.1.14.26.17a.3.3,0,0,0,.45-.1l-.16-.32a.29.29,0,0,0-.45.11"/><path d="M56,83.53c.25.18.25.45,0,.83l.23.16.06-.37.33-.19a.3.3,0,0,1-.06-.42l.52-.26.28-.4c.09-.14.06-.44-.11-.9l-.12-.09L57,82a2.32,2.32,0,0,1-.21.86c-.12-.08-.48,0-1.09.25l-.19.28.33,0Z"/><polygon points="54.97 80.03 54.46 79.67 54.36 79.82 54.87 80.17 54.97 80.03"/><path d="M61.19,82.89a1,1,0,0,1-.3-.62l-.32.19-.1.14.62.43Z"/><rect x="62.59" y="82.44" width="0.17" height="0.31" transform="translate(-40.89 87.62) rotate(-55.59)"/><rect x="64.57" y="83.8" width="0.17" height="0.31" transform="translate(-41.15 89.84) rotate(-55.59)"/><polygon points="68.23 86.73 68.11 86.64 67.91 86.92 68.04 87.01 68.23 86.73"/><path d="M63,97.2l-.39.56a.31.31,0,0,0,.43-.12c.13-.19.12-.33,0-.44"/><rect x="63.06" y="100.67" width="0.34" height="0.15" transform="translate(-55.61 95.95) rotate(-55.57)"/><path d="M65.18,100.7l-.13-.09-.93-.46-.39.56a5.46,5.46,0,0,1,1.17.39Z"/><path d="M63.94,98.81l-.62-.42c-.15.45-.15.72,0,.81a.3.3,0,0,0,.45-.11Z"/><path d="M61.28,97.61l.49.34c.13.08.35,0,.68-.16l.08-.12-.62-.42a1.11,1.11,0,0,1-.63.36"/><path d="M62.36,100.56l-.19.28.25.17a.28.28,0,0,0-.06-.45"/><rect x="66.55" y="92.6" width="0.31" height="0.62" transform="translate(-47.64 95.23) rotate(-55.49)"/><path d="M69.77,89.79c.1.07.32,0,.65-.14L70,89.39Z"/><rect x="226.17" y="59.95" width="0.47" height="0.17" transform="translate(26.82 182.63) rotate(-46.41)"/><polygon points="66.5 95.58 66.76 95.75 67.05 95.33 66.8 95.16 66.5 95.58"/><path d="M69.21,89.82c-.08.12,0,.44.25,1l.23.16c.13.09.35,0,.66-.13a1.1,1.1,0,0,1-.42-.71Z"/><rect x="65.32" y="100.78" width="0.14" height="0.31" transform="translate(-54.83 97.81) rotate(-55.57)"/><path d="M65.45,96.06l.62.43.29-.43L66.23,96c-.42-.09-.68-.06-.78.08"/><polygon points="64.46 102.8 65.1 103.23 65.28 102.98 64.56 102.65 64.46 102.8"/><polygon points="204.75 73.56 204.5 73.32 204.39 73.44 204.64 73.67 204.75 73.56"/><path d="M204.89,72.66l-.25-.23-.21.22c.17.16.32.16.46,0"/><path d="M51.44,86.22l-.29.42.23.16.8-.07.13.09c.07.05.07.12,0,.21l.35,0a5,5,0,0,0,.78.74,2,2,0,0,1,.3-1l-1.1-.76c-.75,0-1.15.07-1.21.17"/><path d="M51.28,85.11l-.32.2.37.25c.13-.19.11-.34,0-.45"/><polygon points="50.71 86.72 50.84 86.81 51.02 86.55 50.89 86.46 50.71 86.72"/><path d="M229.72,56.88l-.23-.22-.2.21a.28.28,0,0,0,.43,0"/><polygon points="53.48 84.83 53.72 84.99 53.82 84.85 53.58 84.69 53.48 84.83"/><path d="M47.79,81.71l.36.25c.19-.26.71-.31,1.57-.13.19-.28.37-.37.52-.26l.39.26a1.52,1.52,0,0,0-.25.87l-.28.39-.23-.16-.24-.75L49.4,82l-.37.54c-.09.13-.06.34.09.65l.25.17.33,0a1.38,1.38,0,0,1-.16.51h.58c.08,0,.09.13,0,.22s.14,0,.2-.06l.52.56.26.18a.3.3,0,0,0,.44-.11c-.08-.06-.1-.12,0-.2l.55,0a2.47,2.47,0,0,1,.36-.76l-.25-.17a.76.76,0,0,1-1.21.16c-.15-.09-.07-.64.22-1.64.3-.44.87-.58,1.73-.43l.1-.14-.24-.16.18-.26.15.28.47-.67-.1-.08-.58,0-.78-.74-.3.21L52,81a.29.29,0,0,1-.45.11l-.23-.16-.19-.55L51,80.26c-.5.74-1.17.82-2,.25l-.05.35-.1.14a.28.28,0,0,1-.44.11,2.54,2.54,0,0,1,.26-1.44l-.35,0,.19-.28c.09-.12.31-.17.66-.13l.26.17-.2.28.49.34a1.58,1.58,0,0,0,1.73-.64L50.9,79c-.4.39-.72.51-1,.34s-.48-.4-1.14-1l-.19.28a10.61,10.61,0,0,0-1.06,1.27c.21.15.29.75.24,1.79"/><rect x="203.89" y="75.53" width="0.31" height="0.14" transform="translate(8.48 171.01) rotate(-46.34)"/><polygon points="201.82 74.94 202.04 75.16 202.48 74.5 202.35 74.38 201.82 74.94"/><path d="M204,75.09l.35.33.1-.11.61-.85-.49-.47a6.84,6.84,0,0,1-.57,1.1"/><polygon points="228.02 59.4 227.65 59.05 227.26 59.71 227.5 59.94 228.02 59.4"/><polygon points="46.05 80.51 46.24 80.23 45.62 79.81 45.33 80.23 46.05 80.51"/><path d="M43.86,80a1.4,1.4,0,0,0,.39-.34l.14-.7.69-.74.18-.25a.29.29,0,0,0-.07-.46l-.12-.09c-.16-.1-.3-.06-.43.12l-.56.82q.36.26.18.51l-.35,0c.06-.09.06-.16,0-.21-.44.64-.46,1.1,0,1.38"/><path d="M42.86,78.53l-.17.26.23.16a.26.26,0,0,0-.06-.42"/><path d="M53.31,80.3c-.17-.12-.25-.45-.23-1l-.47.68.62.43Z"/><path d="M43.64,76.86l-.31.16-.09.15.49.33c.08-.12.05-.34-.09-.64"/><rect x="46.42" y="81.07" width="0.17" height="0.47" transform="translate(-46.84 73.51) rotate(-55.46)"/><rect x="48.52" y="83.8" width="0.17" height="0.31" transform="translate(-48.13 76.58) rotate(-55.57)"/><path d="M52.79,84.53a.29.29,0,0,0-.45.1l-.2.28c-.09.19-.06.34.08.43Z"/><polygon points="48.1 82.31 48.01 82.45 48.37 82.69 48.47 82.55 48.1 82.31"/><path d="M46.27,80.46l.13.09c.08.06.16,0,.22-.06a2.14,2.14,0,0,0,.53.78l.2-.28c-.41-.28-.56-.51-.44-.68s-.11-.64-.55-1.58a2.08,2.08,0,0,0-.72.5l.62.43c.25.17.26.44,0,.8"/><path d="M47.75,83.1a1.4,1.4,0,0,1-.46-.15c-.13.46-.13.74,0,.82a.32.32,0,0,0,.43-.11l.19-.29c-.15-.1-.2-.2-.15-.27"/><path d="M145.55,214.64a69.1,69.1,0,1,0-69.1-69.09,69.16,69.16,0,0,0,69.1,69.09m0-133.27a64.18,64.18,0,1,1-64.18,64.18,64.25,64.25,0,0,1,64.18-64.18"/><polygon points="114.4 254.45 114.68 254.52 114.71 254.41 114.43 254.34 114.4 254.45"/><path d="M114.34,258.26a.23.23,0,0,0,.19.29l.09-.33-.25-.07Z"/><polygon points="115 256.47 115.25 256.54 115.28 256.43 115.03 256.36 115 256.47"/><rect x="106.71" y="231.89" width="0.12" height="0.29" transform="translate(-148.64 234.13) rotate(-65.76)"/><polygon points="117.37 240.9 117.23 240.87 117.17 241.07 117.31 241.11 117.37 240.9"/><path d="M115.35,247.51l.24.19.39.11.12-.42-.25-.07a.55.55,0,0,0-.5.19"/><polygon points="85.98 237.66 86.1 237.74 86.23 237.55 86.12 237.47 85.98 237.66"/><path d="M111.72,232.62l.09-.2-.26-.12c0,.14,0,.25.17.32"/><path d="M107.2,232.42c-.17,0-.28,0-.32.08s0,.27.23.48l.13.06.14-.31c.06-.13,0-.23-.18-.31"/><path d="M116.35,248.62a1.73,1.73,0,0,1,.84.11l0-.11a2.15,2.15,0,0,1-.78-.32Z"/><path d="M110.64,230.29l-.09.21.24.1c.06-.14,0-.24-.15-.31"/><path d="M109,231.61l0,.11c0,.24,0,.37.1.4a2,2,0,0,1,.43.09c0-.1,0-.27-.25-.49Z"/><polygon points="117.02 247.77 116.74 247.69 116.72 247.78 116.99 247.86 117.02 247.77"/><polygon points="142.15 238.63 141.88 238.61 141.86 238.82 142.13 238.84 142.15 238.63"/><path d="M120.68,235.92l-.09.31.26.08,0-.11c0-.14,0-.23-.2-.28"/><path d="M140.62,248.05a2.92,2.92,0,0,0-.38.86l.27.15.71-.05v-.11c-.32,0-.48-.31-.47-.84Z"/><path d="M136.29,247.71c-.2,0-.3.07-.31.2l.28,0Z"/><rect x="138.95" y="248.58" width="0.12" height="0.29" transform="translate(-122.69 361.44) rotate(-84.1)"/><path d="M140.84,247.28a1.2,1.2,0,0,1-.23-.59l-.28,0c-.18,0-.28.08-.29.21l.65.51c0-.08.06-.11.15-.1"/><polygon points="118.29 241.27 118.43 241.31 118.49 241.1 118.35 241.06 118.29 241.27"/><path d="M119.57,235.72c-.18,0-.28,0-.32.13l.33.34.28.08a.72.72,0,0,1-.16-.51Z"/><path d="M118.67,237.9l-.27-.08,0,.11c0,.46,0,.71.21.76l.14,0,0-.11a.94.94,0,0,1-.07-.72"/><path d="M118.07,244.58l-.13,0c-.29,0-.48.17-.58.53l-.06.22.53.15.29-.49a.81.81,0,0,1-.05-.37"/><path d="M119.29,241.33l-.19.17.39.11c0-.14,0-.23-.2-.28"/><rect x="118.88" y="238.96" width="0.23" height="0.14" transform="translate(-143.43 288.3) rotate(-74.17)"/><path d="M121.19,235.61l-.13,0,0,.09c0,.11.08.26.32.45l.06-.22c0-.14,0-.23-.22-.28"/><path d="M90.16,225.67l-.23-.17a12.21,12.21,0,0,0-1.06-.91c-.12.16-.6.18-1.45.08l-.19.26c.22.16.28.57.16,1.22.23.17.31.31.22.43l-.2.28a1.46,1.46,0,0,0-.71-.25l-.33-.24.13-.17.6-.14.12-.17-.45-.32c-.1-.08-.28-.07-.52,0l-.13.19V226a1.53,1.53,0,0,1-.42-.16l0,.45q-.06.09-.18,0c0,.06,0,.11.06.17l-.44.36-.14.19a.26.26,0,0,0,.1.36c0-.07.1-.07.17,0l0,.44a2.22,2.22,0,0,1,.62.33l.13-.19a.61.61,0,0,1-.17-1c.08-.11.52,0,1.34.28a1.32,1.32,0,0,1,.4,1.37l.11.08.13-.17.21.16-.22.1.57.41,0-.08,0-.45.58-.55-.18-.25-.7,0c-.16-.12-.19-.24-.1-.36l.12-.17.44-.11.06-.1a1,1,0,0,1-.26-1.56l-.28-.06-.12-.08c-.15-.12-.19-.23-.1-.36a2.31,2.31,0,0,1,1.18.3v-.27l.24.17c.1.07.14.25.12.52l-.13.18-.23-.16-.26.35a1.34,1.34,0,0,0,.57,1.39l.27-.38c-.33-.33-.43-.59-.31-.76s.31-.35.77-.82"/><path d="M88.64,229l.09.07c.09-.12.36-.16.8-.11l-.57-.41Z"/><path d="M90.71,222.49,90,222c-.13.18-.27.21-.41.11l0-.27c.08,0,.13.06.17,0-.53-.39-.9-.43-1.12-.13a1.48,1.48,0,0,0,.29.33l.57.15.62.59.21.15c.16.12.28.11.37,0l.07-.09c.08-.11,0-.23-.11-.34"/><path d="M105.8,231.79c-.17,0-.28,0-.32.08l0,.1.85.51c0-.1-.07-.31-.34-.64Z"/><polygon points="88.89 230.26 89 230.35 89.28 229.98 89.16 229.89 88.89 230.26"/><path d="M102.52,228.57a.24.24,0,0,0,.16.33l.14-.3-.26-.11Z"/><path d="M91,221.43l-.26.36a.6.6,0,0,0,.52,0l-.14-.25Z"/><path d="M87.08,234.45l-.32.45.11.09c.07-.1.23-.16.49-.19l-.16-.26Z"/><polygon points="88.7 230.53 88.81 230.61 88.95 230.43 88.83 230.34 88.7 230.53"/><path d="M86.74,231.6c.06-.08,0-.37-.24-.86l-.23-.16v.25l-.07.09c-.13.19-.35.17-.66,0l-.13.17.3.07.17.27a.24.24,0,0,1,.34,0l.22.42.33.24a1,1,0,0,0,.73,0l.07-.09-.12-.09a1.77,1.77,0,0,1-.7-.22"/><polygon points="87.03 236.21 87.14 236.29 87.28 236.11 87.16 236.02 87.03 236.21"/><path d="M87.42,229.47l.42-.38-.33-.24-.06.09a.66.66,0,0,1-.08.35l-.3-.07c.05-.07,0-.13,0-.18s-.1.06-.18,0a1.12,1.12,0,0,0-.24-.86l.25-.1.33-.46-.22-.15c-.28-.11-.52,0-.74.29.13.1.14.33,0,.71a1.74,1.74,0,0,0-.81.38c.08.06.1.12,0,.18l.52.23.49.5a4.56,4.56,0,0,0,1.24.46,1.16,1.16,0,0,0,.38.42l.19-.27-.8-.57c-.14-.1-.17-.22-.08-.34"/><rect x="85.33" y="229.32" width="0.33" height="0.14" transform="translate(-150.44 164.09) rotate(-54.09)"/><path d="M97.27,252.42l0,.11.51.22,0-.25a1.25,1.25,0,0,1-.41-.08"/><path d="M103.57,239.47l.13.06a.22.22,0,0,0,.34-.1c-.08,0-.1-.08-.07-.15s.27,0,.33-.09l.18-.4c-.19-.08-.49.14-.91.68"/><polygon points="103.34 240.34 103.58 240.45 103.62 240.36 103.38 240.25 103.34 240.34"/><path d="M104.64,228.31c0-.13,0-.23-.18-.31,0,.1-.25.22-.6.34l.64.28Z"/><path d="M105,230.09l0-.27q-.7-.13-.78,0c.26.12.3.39.12.79l.24.11.37-.46Z"/><path d="M105.36,234.51a.23.23,0,0,0,.15.32l.13-.3-.24-.1Z"/><polygon points="104.61 234.43 105.14 234.66 105.18 234.56 104.66 234.32 104.61 234.43"/><path d="M102.67,239.43l-.14.31.13.06q.25.12.36-.09l.13-.3-.13-.06c-.19,0-.3,0-.35.08"/><path d="M100.78,242.26l-.36.45,0,.1q.16.08.51-.15a.75.75,0,0,1,0-.34Z"/><path d="M106.93,230.34l0-.11c-.8-.26-1.22-.33-1.27-.21l0,.1.11,0c.61.28,1,.33,1.16.17"/><polygon points="99.7 243.6 100.23 243.84 100.31 243.65 99.79 243.41 99.7 243.6"/><path d="M99.59,245.89l0,.1.53.24.14-.31a1.18,1.18,0,0,1-.62,0"/><rect x="106.86" y="230.67" width="0.56" height="0.12" transform="translate(-147.25 233.07) rotate(-65.62)"/><path d="M107.8,231.09a1.27,1.27,0,0,1,0,.62c-.09,0-.15,0-.18,0l.39.18,0-.27c.17.08.29.05.35-.08l.18-.4-.48-.34a.73.73,0,0,0-.27.24"/><path d="M129.66,251.87l.45-.4,0-.34a10.64,10.64,0,0,0-1.12.11v.12c.18,0,.39.19.65.51"/><path d="M128.93,254.73l.7.19.06-.58a1.35,1.35,0,0,1-.74.16Z"/><path d="M129.45,252.52l-.39-.27a1.18,1.18,0,0,1-.44.07v.12a2.93,2.93,0,0,1,1.08.55c0-.14.15-.19.42-.17l0-.34-.27.09Z"/><path d="M130.51,251.84l.14,0c.14,0,.29-.12.45-.4l-.55-.06Z"/><path d="M133.31,249.2a5.28,5.28,0,0,0-1.21-.45l-.87,0-.22-.37c.78-.14,1.21-.2,1.27-.2a.71.71,0,0,1,.11.34l.14,0c0-.22.18-.31.47-.28v-.12c-.55-.13-.82-.27-.8-.43l0-.32c0-.15.16-.21.43-.19v-.11a4.62,4.62,0,0,0-1-.22l0-.32.43,0v-.11l-.7-.19a1,1,0,0,1-1,.34l-.06.57-1.07.78h-.14l-1-.2,0,.32c.37,0,.54.14.53.29l.3-.09.66.4.6-.27c.17.05.25.13.24.26v.1c0,.11-.16.21-.44.3l-.29,0-.38-.27-.14,0-.11,1,.36.48h-.14c.11.32.24.49.38.5s.06-.11.16-.1l-.09-.57V250l.79.53,0-.23a6.83,6.83,0,0,0-.2-.91l.3-.09c0,.12.15.28.5.5l.43,0-.25-.35v-.12c.56.06.82.28.78.65l.57.05c.18,0,.34-.26.5-.85m-2.07-1.68.1.24-.28.09-.12-.25Z"/><polygon points="132.89 251.86 133.03 251.87 133.06 251.66 132.91 251.65 132.89 251.86"/><path d="M131.65,250.38q.28,0,.3-.18l0-.12-.29,0Z"/><path d="M128.64,250.74l.17-.19v-.12l-.43,0v.11a.24.24,0,0,0,.26.24"/><polygon points="126.8 261.82 126.94 261.83 126.96 261.62 126.82 261.61 126.8 261.82"/><path d="M127.69,261.35c0,.15-.17.21-.46.19v.11c0,.09.27.27.82.53,0-.08.05-.11.13-.1-.18-.47-.34-.71-.48-.73"/><path d="M127.42,257.16l0-.23q0-.21-.27-.24l-.14,0,0,.21c0,.16.08.24.26.26Z"/><rect x="128.09" y="248.58" width="0.12" height="0.29" transform="translate(-132.44 350.61) rotate(-84.09)"/><path d="M128.45,255.35l0,.21.29,0c0-.14-.07-.22-.27-.24"/><path d="M141,253.49l-.57-.06c0,.31-.13.45-.31.43a1.42,1.42,0,0,0-.42-.16l-.27.09a1.52,1.52,0,0,0-.56-.17l-.62.61c-.19,0-.3.07-.31.2.37.19.54.4.52.61l.27-.09.27.15c0-.08.06-.11.16-.1l.12.24a8,8,0,0,1-1.8.82l0,.23a.83.83,0,0,1,.81.53,2.63,2.63,0,0,1-1,0v.11a1.84,1.84,0,0,1,.68.19,1.71,1.71,0,0,0-.36.64h.15l.75-.48.54.39h.11c0-.45.51-.81,1.4-1.09l-.12-.25-.71.05-.14,0-.27-.14c0,.15-.12.22-.29.2l-.29,0c-.12,0-.25-.14-.37-.39s.3-.18.86-.12c0,.14.21.23.67.28q0-.21.57-.15l0-.34c-.47,0-.69-.18-.66-.4a2.88,2.88,0,0,1,1.17-1.81m-1.52,1h-.12l0-.23h.12Z"/><path d="M141.17,257.67c0-.1-.12-.22-.38-.37l-.43,0c-.19,0-.29.07-.31.2l0,.21,1.12.12Z"/><polygon points="140.43 259.41 140.47 259.06 140.32 259.05 140.29 259.39 140.43 259.41"/><path d="M134.43,251.92l-.06.55.14,0a.83.83,0,0,1,.34-.43l-.28-.13Z"/><path d="M137.88,255.42l0-.44-.4,0c-.15,0-.3.08-.47.28l.28.14Z"/><path d="M140.76,252l-.6.51c.19,0,.27.14.25.36l.4,0c0-.3.24-.42.62-.38,0-.09-.24-.27-.67-.53"/><polygon points="136.47 251.34 136.44 251.55 136.59 251.56 136.61 251.35 136.47 251.34"/><path d="M127.77,260.57l.16-.2a.81.81,0,0,1-.1-.35c-.2,0-.3.07-.31.19l0,.12a.27.27,0,0,0,.27.24"/><path d="M135.46,254.26l0-.2-.29,0a.25.25,0,0,0,.26.24"/><path d="M134.89,253.09c0,.15.08.24.26.25l.4,0,0-.23a1.88,1.88,0,0,1-.67-.3Z"/><path d="M136.27,253.23c.23.4.4.6.52.61l-.17.22v.11l1.09.11c.12,0,.34-.26.67-.83v-.12l-.43,0c-.45.32-.75.48-.89.46l-.23-.35q0-.3,1-.57l.29,0,.41.26.26,0v-.09a1.21,1.21,0,0,1-.32-.82v-.12l.29,0c0,.25.22.51.76.75l.12,0,.07-.67a1.92,1.92,0,0,0,.87-1.38h-.15l-.3.08c-.53-.23-.8-.42-.78-.54s.63-.41,1.45-.53c0-.14.16-.19.45-.16v-.12a1.9,1.9,0,0,1-1.23-.47H140l-.64.6-.4,0,.2-.54,0-.21c-.11,0-.33.19-.64.61l0,.33.25.37,0,.21c0,.09-.45.24-1.32.44l-.12-.24v-.12c0-.15.21-.21.6-.17l0-.32-.14,0a1.89,1.89,0,0,1-.72.14l-.12-.22c.19,0,.3,0,.31-.2v-.12l-.71-.07a.82.82,0,0,1-.32.53v.11c1,.8,1.53,1.5,1.47,2.08l0,.21c0,.16-.12.22-.31.2s-.31-.22-.35-.59l-.14,0,0,.33a.73.73,0,0,1,.11.35c-.16,0-.36.11-.62.38Zm2.77-2.3c.42.17.64.34.67.51v.12c0,.15-.12.22-.31.2a5.84,5.84,0,0,1-.77-.76,1,1,0,0,1,.42-.07"/><path d="M135.46,250.33l-.14,0-.3.09c0-.12-.11-.32-.37-.6,0-.31.31-.66.83-1.05,0-.12-.29-.33-.92-.66,0,.13-.18.3-.49.51.46.05.69.15.67.3V249l-.68-.19c0,.08,0,.12.13.13l-.2.54,0,.23.25.35c-.1,0-.15,0-.16.1l-.27-.14c-.15,0-.45.22-.92.7.07.23.16.36.25.37a16.74,16.74,0,0,0,1.61-.63v.12l-.2.54c.09,0,.14.05.13.13l.73,0h.12l.27.14.48-.41c-.54-.2-.8-.41-.78-.64"/><path d="M135.57,251.81l-.16.21c0,.14.1.22.26.24l.17-.19c0-.16-.07-.24-.27-.26"/><path d="M130.26,243.25v.11c.11.32.24.49.38.51l.55,0,0-.34c0-.15-.07-.24-.26-.26Z"/><path d="M129.55,246.11c.18,0,.26.14.23.37l.29,0c.19,0,.31-.19.35-.64l-.53-.4h-.12a1.13,1.13,0,0,1-.22.65"/><path d="M130.75,244.09a1.42,1.42,0,0,0-.42-.16c-.23,0-.5.33-.8,1.06h.14a.88.88,0,0,0,1.08-.91"/><rect x="140.93" y="251.39" width="0.35" height="0.29" transform="translate(-123.58 366.07) rotate(-84.11)"/><path d="M132.08,244.79a2.94,2.94,0,0,0,.51-.72l-.07-.8-.28,0q-.06.56-.75.48l0,.23-.23.75c.1,0,.14.06.14.13-.4.08-.6.17-.61.28a.84.84,0,0,1,.11.34.91.91,0,0,0-.18.33l.57.06c.13,0,.27-.08.44-.3l-.2-.58h.12l.54.29-.16.2,0,.34c.2.39.37.6.5.61l.72,0,0-.12c-.48,0-.71-.14-.7-.28l.56-1.18-.45.17-.27,0Z"/><path d="M132.17,242.56v-.12c0-.15-.08-.23-.27-.25l-.26,0c0,.37-.2.54-.49.51q0-.21-.24-.24a1.89,1.89,0,0,1-.58,0l0,.23a1.16,1.16,0,0,1,.67.3l.28,0c.59-.24.89-.39.9-.47"/><path d="M136.26,249.39h.14a2.36,2.36,0,0,1,.07-.35c0-.14.09-.31.14-.51l-.38-.27a1.14,1.14,0,0,0-.36.64V249c0,.1.12.22.4.37"/><polygon points="133.48 244.72 133.53 244.26 132.85 244.1 132.94 244.66 133.48 244.72"/><polygon points="134.31 244.92 134.04 244.9 134.04 244.99 134.3 245.02 134.31 244.92"/><polygon points="135.74 247.66 135.59 247.64 135.57 247.87 135.71 247.88 135.74 247.66"/><path d="M134.26,248.18a1.27,1.27,0,0,1-.54-.17l0,.44c.37-.07.57-.16.58-.27"/><rect x="133.38" y="246.43" width="0.12" height="0.29" transform="translate(-125.55 353.93) rotate(-84.09)"/><path d="M133.22,248.63l.29,0c0-.15-.07-.24-.26-.26Z"/><polygon points="130.59 241.49 130.4 241.91 130.94 242.32 131.08 242.1 131.14 241.55 130.86 241.63 130.59 241.49"/><rect x="129.23" y="242.45" width="0.23" height="0.29" transform="translate(-125.26 346.33) rotate(-84.1)"/><path d="M129.44,240.23l0-.32-.26,0V240a.24.24,0,0,0,.24.23"/><path d="M129.81,238a1.83,1.83,0,0,1-.17-.92l-.28,0,0,.11.07.8Z"/><path d="M129.84,243.32l0-.23c-.5.11-.76.34-.8.71l.57.06Z"/><path d="M127.67,253.36l0,.21.29,0q0-.21-.27-.24"/><polygon points="128.76 245.58 128.62 245.57 128.58 246.01 128.72 246.02 128.76 245.58"/><path d="M131.24,240.53c-.13,0-.27.09-.44.31a.72.72,0,0,1,.24.47c.31-.35.56-.51.75-.49,0-.15-.07-.24-.26-.26Z"/><path d="M132.4,240.33l0-.23-.14,0c-.13,0-.28.09-.44.3l0,.21.15,0c.12,0,.27-.08.44-.28"/><path d="M130.09,236.71c-.19,0-.29.07-.31.18l.29,0Z"/><path d="M132.21,240.75c-.18,0-.28.07-.29.2v.12a.24.24,0,0,0,.24.23l.14,0c.19,0,.3,0,.31-.18V241c0-.15-.07-.24-.26-.26Z"/><path d="M129.63,238.34c.09.38.22.58.38.6l1.12.12-.25-.36v-.11a.8.8,0,0,1,.74-.37v-.11c-.18,0-.26-.07-.25-.15l-.3.09a1.06,1.06,0,0,0-.42-.16l-.47.63-.28-.15Z"/><polygon points="130.14 240.42 130.41 240.45 130.44 240.12 130.18 240.1 130.14 240.42"/><path d="M127.81,256l.14,0,0-.23-.41-.05a.23.23,0,0,0,.24.26"/><path d="M64.05,213.82c.11-.1.11-.22,0-.35l-.19-.21-.33.29.19.22c.12.13.23.15.34,0"/><path d="M63.09,215.08c.33-.18.54-.23.6-.16l.08-.26a.61.61,0,0,0,.33-.11l-.19-.22a8.86,8.86,0,0,0-.93.46Z"/><path d="M68.28,208.14c-.15-.13-.27-.15-.35-.07l.1.29Z"/><path d="M68.19,209.54a.56.56,0,0,1,.15-.33l-.1-.11a1.56,1.56,0,0,1-.7-.29l-.18.15.47.52q.19.21.36.06"/><rect x="62.82" y="213.62" width="0.44" height="0.14" transform="translate(-126.19 96.08) rotate(-41.7)"/><path d="M63.21,212.9l-.19-.22-.07.07c-.11.11-.1.23,0,.36Z"/><polygon points="70.39 206.62 70.3 206.51 70.13 206.66 70.22 206.77 70.39 206.62"/><polygon points="71.35 206.5 71.16 206.29 71.07 206.36 71.26 206.58 71.35 206.5"/><path d="M72.16,205.57l-.09-.1-.17.15.29.32c.11-.1.1-.23,0-.37"/><path d="M70.32,208.37c-.14-.12-.26-.13-.35-.05l.09.28Z"/><path d="M73.07,204.57c.11-.11.11-.22,0-.35l-.19-.22-.33.49.27.31Z"/><polygon points="61.13 217.78 61.22 217.88 61.39 217.73 61.3 217.63 61.13 217.78"/><polygon points="70.72 207.81 70.54 207.61 70.46 207.69 70.63 207.89 70.72 207.81"/><path d="M67.67,217q1.32,1.47,3.14-.18c1.1-1,2-1.81,2.87-2.49s1.51-1.21,2.06-1.59a2.63,2.63,0,0,0-.28-3.14l-1.22-1.36c-.14-.11-.25-.13-.33-.05L66.32,215l.6,1.15a1.56,1.56,0,0,0,.36.25Z"/><path d="M66.38,211.37l-.26.23.28.3c.08-.08.08-.26,0-.53"/><polygon points="66.16 209.46 65.92 209.68 66.02 209.79 66.26 209.57 66.16 209.46"/><path d="M72.75,206.56a1.42,1.42,0,0,1,.28.49,1.91,1.91,0,0,1,.88-.2l-.11-.3-.1-.1c-.06-.07-.35-.06-.87,0Z"/><path d="M68.76,219.2a.25.25,0,0,0,0,.37h.44l-.39-.43Z"/><polygon points="65.64 212.23 65.81 212.43 65.9 212.35 65.72 212.15 65.64 212.23"/><path d="M67.21,218.34c-.08.06-.06.24.05.53l.08.09.41-.37-.37-.41Z"/><rect x="64.77" y="216.23" width="0.11" height="0.41" transform="translate(-128.28 99.15) rotate(-42.05)"/><polygon points="64.36 211.47 64.27 211.55 64.47 211.76 64.55 211.69 64.36 211.47"/><path d="M63.57,216c.12-.1.11-.22,0-.37-.17.16-.31.17-.43,0l-.1-.11c-.13-.14-.13-.26,0-.37-.5-.43-.8-.6-.92-.5a.39.39,0,0,1,0,.62.68.68,0,0,0-.36.13,2.21,2.21,0,0,0,.64.36.74.74,0,0,1-.14.51l.37.41.06-.25c.06-.05.12,0,.19,0l.07-.26a.24.24,0,0,1,.36.06l.48.7.16-.14-.2-.22.18-.15.29.32.08-.08a1.26,1.26,0,0,1-.3-.5,1.32,1.32,0,0,1-.36-.23"/><path d="M65.3,212.34l.17.2.16-.14c-.14-.12-.25-.13-.33-.06"/><polygon points="61.06 214.84 61.15 215.11 61.63 215.64 61.69 215.4 61.31 214.8 61.06 214.84"/><path d="M69.34,220.19l.1.11.17-.16-.29-.32a.26.26,0,0,0,0,.37"/><path d="M64.87,214.05c.11-.1.09-.21,0-.36l-.2-.21-.07.06a.25.25,0,0,0,0,.37l.2.22Z"/><path d="M57.19,219.26l-.17.15.29.32c.11-.1.11-.22,0-.36Z"/><polygon points="56.35 221.34 56.55 221.55 56.63 221.47 56.44 221.26 56.35 221.34"/><path d="M55.73,219.64l-.08.26h-.43l-.17.15a2.32,2.32,0,0,1,.92.68l.16-.14a1.38,1.38,0,0,1-.23-.76Z"/><polygon points="59.84 216.49 59.54 216.01 59.38 216.16 59.75 216.56 59.84 216.49"/><rect x="59.05" y="218.16" width="0.11" height="0.26" transform="translate(-131.05 95.88) rotate(-42.08)"/><path d="M77.5,208.32c.12-.11.11-.23,0-.37l-.09-.11-.09.08c-.08.08-.07.26,0,.55Z"/><polygon points="79.26 214.45 79.08 214.25 79 214.33 79.18 214.53 79.26 214.45"/><polygon points="78.14 213.2 78.23 213.31 78.47 213.09 78.38 212.99 78.14 213.2"/><polygon points="59.77 216.93 59.44 217.23 59.64 217.44 59.96 217.15 59.77 216.93"/><rect x="77.67" y="209.85" width="0.11" height="0.29" transform="translate(-120.69 106.22) rotate(-42.08)"/><polygon points="78.36 212.45 78.69 212.16 78.5 211.94 78.08 212.13 78.36 212.45"/><path d="M78.34,209.24c.11-.1.11-.22,0-.35l-.34.31c.12.13.24.15.35,0"/><polygon points="71.84 220.78 71.92 220.87 72.09 220.72 72.01 220.63 71.84 220.78"/><path d="M75.21,205.28l-.1-.46-.27.05-.07.07a.23.23,0,0,0,0,.35Z"/><path d="M76.15,216.7l.1.11.08-.08a.64.64,0,0,1,.16-.33q-.22-.19-.36-.06a.24.24,0,0,0,0,.36"/><polygon points="75.71 207.67 75.61 207.57 75.37 207.78 75.47 207.89 75.71 207.67"/><path d="M74.78,207a.89.89,0,0,1,.16-.34,2,2,0,0,1-.55-.44l-.08.08c-.08.07,0,.34.14.81a.53.53,0,0,0,.33-.11"/><rect x="60.02" y="218.23" width="0.12" height="0.26" transform="translate(-130.85 96.55) rotate(-42.08)"/><rect x="73.76" y="204.2" width="0.34" height="0.14" transform="translate(-117.15 100.94) rotate(-41.7)"/><polygon points="74.56 207.58 74.73 207.42 74.64 207.31 74.47 207.47 74.56 207.58"/><path d="M73.66,205.74l.09-.08c.08-.07.07-.31,0-.71l-.26.23a.23.23,0,0,0,0,.35Z"/><path d="M77.09,216.4l-.17-.19-.17.15c.11.13.23.15.34,0"/><path d="M72.36,219.35l-.33.29.1.11c.13.14.24.17.35.07s.1-.22,0-.37Z"/><polygon points="73.47 218.92 73.57 219.03 73.83 218.8 73.73 218.69 73.47 218.92"/><path d="M72.77,219c.13.14.25.16.37.05l.08-.07-.19-.22Z"/><polygon points="83.25 239.26 82.81 238.94 82.61 239.22 82.98 239.64 83.25 239.26"/><path d="M80.81,229.78,81,230l.12-.17c-.17-.09-.29-.09-.35,0"/><rect x="80.16" y="230.94" width="0.12" height="0.29" transform="translate(-153.93 160.29) rotate(-54.03)"/><polygon points="82.29 229.9 82.35 229.81 82.12 229.64 82.05 229.74 82.29 229.9"/><path d="M80.1,239.62a.81.81,0,0,1-.56.28l.24.17c.1.07.3,0,.59-.12l-.17-.26Z"/><path d="M85.85,224.47l.23.17c.08-.11.16-.14.22-.1a.88.88,0,0,1,.11-.35c-.38-.13-.61-.15-.67-.06a.25.25,0,0,0,.11.34"/><polygon points="78.67 238.73 78.89 238.88 79.16 238.51 78.94 238.35 78.67 238.73"/><path d="M81.14,229.08l.07-.1c-.16-.08-.28-.07-.35,0l-.06.07c.14.11.26.1.34,0"/><path d="M84.61,227.87l.68.49c.09-.13.06-.24-.1-.36l-.23-.16c-.16-.09-.27-.08-.35,0"/><path d="M84.77,227.15l-.16-.26-.2.27c.16.11.28.11.36,0"/><polygon points="85.75 225.09 85.64 225.01 85.5 225.2 85.62 225.28 85.75 225.09"/><path d="M84.05,228.15c0-.58-.09-.9-.17-1l-.35-.25-.12.17.08.62-.07.1s-.09,0-.17,0l0,.27a3.13,3.13,0,0,0-.58.56,1.85,1.85,0,0,1,.82.3Z"/><polygon points="83.67 226.76 83.45 226.61 83.39 226.7 83.6 226.85 83.67 226.76"/><path d="M82.38,229.28l-.24-.16-.12.17.47.33c.08-.11,0-.22-.11-.34"/><polygon points="78.53 231.74 78.42 231.66 78.3 231.83 78.41 231.91 78.53 231.74"/><path d="M84.45,238.35l-.19.26a.24.24,0,0,0,.1.36l.2-.28c.08-.12,0-.23-.11-.34"/><polygon points="84.16 240.88 84.27 240.97 84.41 240.78 84.29 240.7 84.16 240.88"/><polygon points="84.03 240.11 83.8 239.94 83.73 240.03 83.97 240.2 84.03 240.11"/><path d="M83.79,244.76c.14.1.26.09.35,0l-.22-.16Z"/><polygon points="84.94 229.05 85.06 229.13 85.18 228.97 85.06 228.88 84.94 229.05"/><path d="M84.67,229.68l-6.91,5.76.12.09.87.91.12.09c.45.32,1.37.89,2.74,1.69l.65-.9a37.3,37.3,0,0,0,2.35-6.57c.27-.55.33-.87.17-1Z"/><path d="M83.81,241.86l-.4.55-.35-.25c-.09-.07-.06-.42.07-1L83,241l.25-.1.06-.09-.11-.09c-.16-.08-.28-.07-.35,0a2.51,2.51,0,0,0-.23,1.76l-.2.28c-.08.11-.24.08-.47-.09l-.07.1,0,1.23.11.08c.16.12.28.11.37,0a1.47,1.47,0,0,0,.11-.9c.26-.36.55-.43.86-.2l.59-.81c.09-.13,0-.25-.1-.36"/><polygon points="70.04 220.3 70.14 220.41 70.31 220.26 70.21 220.15 70.04 220.3"/><polygon points="85.27 231.23 85.62 231.48 85.69 231.38 85.33 231.13 85.27 231.23"/><path d="M81.54,241.2c-.06.07,0,.24.13.51l.2-.28Z"/><path d="M81.49,240.76c-.1-.07-.36,0-.77.13l-.12.17c-.07.1,0,.27.13.52a.76.76,0,0,1,.56-.28Z"/><polygon points="81.86 244.31 82.09 244.48 82.16 244.39 81.93 244.22 81.86 244.31"/><path d="M81.52,242.41l-.12-.08-.13.18a.25.25,0,0,0,.09.36l.26-.1c.09-.13,0-.25-.1-.36"/><rect x="72.26" y="237.01" width="0.23" height="0.12" transform="translate(-162.3 157.28) rotate(-54.24)"/><rect x="86.63" y="224.89" width="0.33" height="0.14" transform="translate(-145.89 161.75) rotate(-53.71)"/><path d="M72.59,234.74l-.24-.17-.13.19c.15.11.28.1.37,0"/><rect x="72.4" y="235.26" width="0.12" height="0.29" transform="translate(-160.8 156.32) rotate(-54.16)"/><path d="M73.32,236.1a1,1,0,0,1,.28.6l-.25.1-.07.1.33.23.07-.09a.57.57,0,0,1,.07-.35l.12.09a.84.84,0,0,1,.21-.54l-.62-.33Z"/><polygon points="73.24 233.84 73.1 234.03 73.22 234.11 73.36 233.92 73.24 233.84"/><path d="M72.22,236.68l.33.24.07-.09.35-.7-.46-.33a3.91,3.91,0,0,1-.29.88"/><path d="M74.93,235.06l.33-.45a1,1,0,0,1-.32-.51l-.25.36c-.07.09,0,.27.14.53Z"/><path d="M71.43,220l-.1-.26-.29-.32a.69.69,0,0,1-.42.18l.19.22c.33.19.54.25.62.18"/><polygon points="70.5 236.69 70.71 236.84 70.95 236.31 70.84 236.22 70.5 236.69"/><rect x="75.38" y="232.78" width="0.23" height="0.41" transform="translate(-157.62 157.91) rotate(-54.2)"/><path d="M75.79,232.22l.1.07.19-.26-.33-.24-.07.09a.26.26,0,0,0,.11.34"/><path d="M73.71,235.55a.26.26,0,0,0,.1.36l.24.17.32-.45c-.37-.14-.59-.17-.66-.08"/><rect x="76.48" y="234.25" width="0.21" height="0.14" transform="translate(-158.11 158.89) rotate(-54.08)"/><path d="M75.09,236.27l-.21-.16-.24.54.12.08c.15.12.28.11.37,0l.06-.09c.09-.12.06-.24-.1-.35"/><polygon points="76.61 238.47 76.96 238.72 77.1 238.54 76.75 238.28 76.61 238.47"/><polygon points="88.9 223.11 88.55 222.85 88.34 223.39 88.58 223.56 88.9 223.11"/><polygon points="87.87 223.59 87.75 223.51 87.55 223.79 87.67 223.87 87.87 223.59"/><path d="M87.76,224.2l.23.17q.33-.45.54-.3c.1.07.52,0,1.27-.32a1.8,1.8,0,0,0-.43-.59l-.33.45c-.13.19-.35.17-.65,0l-.06.09c0,.06,0,.12,0,.18a1.32,1.32,0,0,0-.62.36"/><path d="M89.86,221.05l-.22-.16-.12.17c.14.11.25.1.34,0"/><path d="M75,235.49q.24.16.36,0l-.47-.34a.27.27,0,0,0,.11.34"/><polygon points="76.26 234.65 76.5 234.81 76.56 234.72 76.33 234.55 76.26 234.65"/><path d="M76,237.89l.35.25.06-.09c.06-.33,0-.53-.09-.62Z"/><path d="M76.18,236.93l-.11-.08c-.18-.09-.29-.09-.36,0l.35.25Z"/><path d="M75.48,235l.41.87-.12.17q.26.18.78-.39l-.14-.24a1.94,1.94,0,0,1-.93-.41"/><path d="M132.82,247.24l0,.34c0,.1.11.22.37.37h.14l.4-1,0-.21h-.15c-.12,0-.37.14-.74.48"/><polygon points="214.21 237.98 214.28 238.07 214.62 237.84 214.55 237.75 214.21 237.98"/><path d="M226.1,216.26l.08-.09L226,216l-.28.29a.24.24,0,0,0,.36-.05"/><path d="M226.76,215.56l-.23-.22-.18.19.06.07a.24.24,0,0,0,.35,0"/><rect x="225.67" y="214.86" width="0.55" height="0.21" transform="translate(-85.55 230.2) rotate(-46.37)"/><path d="M222.91,217.66l.25.24c.26-.53.34-.84.25-.92a1.84,1.84,0,0,1-.55.43Z"/><rect x="225.14" y="213.68" width="0.14" height="0.23" transform="translate(-84.84 230.92) rotate(-46.67)"/><polygon points="215 236.91 215.12 237.08 215.24 237 215.12 236.83 215 236.91"/><path d="M232.72,220.63l-.08-.08c-.1-.09-.22-.07-.35.07l.08.08a.26.26,0,0,0,.35-.07"/><polygon points="231.9 220.05 231.73 219.89 231.63 220 231.8 220.16 231.9 220.05"/><rect x="223.04" y="214.98" width="0.29" height="0.11" transform="translate(-86.43 228.85) rotate(-46.49)"/><rect x="230.07" y="217.64" width="0.29" height="0.1" transform="translate(-86.16 234.86) rotate(-46.5)"/><polygon points="228.86 216.59 228.62 216.37 228.54 216.46 228.77 216.68 228.86 216.59"/><path d="M229,218.61a1,1,0,0,1-.38-.57l-.28.3.48.46Z"/><path d="M225.61,214.83l-.15-.14c-.12.15-.13.27-.05.35Z"/><path d="M221.73,211.14c-.11-.1-.23-.09-.37.05l.07.26Z"/><path d="M222,216.63c.09-.09.1-.26,0-.52l-.16-.15-.28.29Z"/><path d="M223.58,218.1c-.11-.1-.23-.09-.36.05l.07.26Z"/><rect x="220.61" y="208.81" width="0.26" height="0.11" transform="translate(-82.88 221.7) rotate(-45.84)"/><rect x="220.51" y="209.14" width="0.29" height="0.44" transform="translate(-83.1 225.28) rotate(-46.5)"/><polygon points="222.81 218.92 222.64 218.76 222.54 218.87 222.71 219.02 222.81 218.92"/><path d="M222,217.71l.18-.2c.13-.13.15-.25,0-.35l-.19.21c-.11.14-.12.26,0,.34"/><path d="M224.15,217.68l.08-.09c.18-.36.23-.58.14-.66l-.29.32c-.11.14-.11.26,0,.35Z"/><path d="M225,216.59a.91.91,0,0,1-.5-.28l-.2.21.4.38Z"/><path d="M224,216.21c-.09-.08-.34,0-.73.27l.3.49.2-.21a1.24,1.24,0,0,1,.23-.55"/><path d="M224.09,214.18l.39-.42a1,1,0,0,1-.15-.51l-.28.3c-.1.1-.12.28-.05.55Z"/><path d="M223,213.34a1.37,1.37,0,0,0,.46-.32l-.07-.27a2.23,2.23,0,0,1-.76.64l.25.24Z"/><path d="M223.38,215.23l.3.48.09.08.81-.18c-.07.07-.08.12,0,.17l.3-.32-.49-.46c-.07-.07-.4,0-1,.23"/><polygon points="200.64 236.13 200.77 236.32 200.88 236.24 200.75 236.05 200.64 236.13"/><path d="M200.85,236a.25.25,0,0,0,.37,0l.12-.08-.13-.19Z"/><path d="M201.58,237.78a.25.25,0,0,0,.37,0l-.26-.38c-.14.13-.18.25-.11.35"/><path d="M202.7,237.42c-.14.13-.18.25-.11.35l.12-.08c.15-.1.18-.21.09-.34Z"/><rect x="202.48" y="238.13" width="0.14" height="0.44" transform="translate(-98.94 155.03) rotate(-34.19)"/><polygon points="203.61 238.03 203.49 238.11 203.61 238.29 203.73 238.21 203.61 238.03"/><path d="M203,238.33l.06.09a.26.26,0,0,0,.36,0l-.18-.27Z"/><path d="M199.89,233.28c-.09-.13-.21-.14-.37,0s-.18.24-.11.35l.06.08.47-.32Z"/><path d="M198.77,232.14l-.07-.1q-.09-.12-.54,0l.25.37Z"/><path d="M220.34,207.9l-.09-.08-.2.21.26.23c.13-.13.14-.26,0-.36"/><path d="M214.36,239l-.43-.13-.33.5a.77.77,0,0,1,.37.29l.34-.23c.16-.11.19-.23.11-.36Z"/><path d="M198.57,233.08c-.12.08-.19.31-.21.68l.06.09.22-.15c.12-.08.19-.3.21-.67l-.06-.1Z"/><path d="M203.84,239.61c-.13.09-.2.32-.19.69l.45-.3Z"/><path d="M200.33,234.18a1.23,1.23,0,0,1-.45.58l.12.18c.4-.27.57-.52.51-.74l-.06-.1Z"/><polygon points="198.51 231.5 198.32 231.23 198.2 231.31 198.39 231.58 198.51 231.5"/><path d="M212.17,234.24l.13.19.24-.16c-.09-.13-.21-.14-.37,0"/><polygon points="210.22 243.8 210.35 243.99 210.47 243.91 210.34 243.72 210.22 243.8"/><path d="M209.57,243.82l.26.38.22-.15-.13-.19c-.09-.12-.2-.14-.35,0"/><path d="M213.93,238.59c.12-.08.18-.26.16-.53L214,238a1.44,1.44,0,0,1-.59.15l-.1.07.24.36a.24.24,0,0,0,.35.05"/><polygon points="204.02 240.86 204.08 240.94 204.29 240.79 204.24 240.71 204.02 240.86"/><path d="M208.77,244.64v.28a.38.38,0,0,1,.6.12l.12-.08-.31-.46a1.34,1.34,0,0,1-.42.14"/><path d="M214,235.16l-.12-.44-.48.32a.78.78,0,0,1,.49.2Z"/><path d="M204.1,240.25l-.12.08.13.19a.25.25,0,0,0,.37,0l.12-.08-.13-.19c-.09-.13-.21-.14-.37,0"/><polygon points="205.48 242.28 205.55 242.38 206.07 242.16 205.94 241.97 205.48 242.28"/><path d="M209.15,243.71l-.22.15.13.19c.15-.1.18-.21.09-.34"/><path d="M207.68,243.51l-.24.16q-.23.2-.12.33l.69-.47c-.08-.11-.19-.12-.33,0"/><path d="M207.32,242.52l-.06-.1-.12.08a2.22,2.22,0,0,1-.79.81l.07.1c.06.08.23.1.52,0,.3-.56.43-.87.38-.93"/><path d="M221.19,218.34c-.12.16-.13.28,0,.37l.17.15.38-.4-.33-.31Z"/><path d="M225.34,227.29l.28-.3-.25-.24q-.13.13,0,.54"/><rect x="224.52" y="228.12" width="0.14" height="0.21" transform="translate(-95.57 233.21) rotate(-46.35)"/><path d="M218,221.51l-.2.21.41.38c.13-.14.14-.26,0-.37Z"/><path d="M227.78,228.28c-.19.2-.39.19-.62,0l-.09.11a.75.75,0,0,1,.2.59l.56-.43Z"/><rect x="227.83" y="227.62" width="0.26" height="0.12" transform="translate(-94.12 236.03) rotate(-46.45)"/><path d="M223.53,225.76l-.2.21-.4.58c.24.09.51,0,.83-.37l.1-.1-.26-.05Z"/><path d="M228.76,228.06l.07.06.2-.2-.24-.23c-.11.16-.12.28,0,.37"/><path d="M219.6,222.62l.24.23.2-.21-.41-.38c-.11.15-.12.28,0,.36"/><path d="M219.44,221.31l-.26.12c.11.1.06.26-.13.47l.32.3.19-.21c-.08-.08-.12-.3-.12-.68"/><path d="M220.1,224.82c.33.11.53.12.62,0l.1-.11-.34-.32Z"/><path d="M196.12,229.48c-.14.13-.18.24-.11.35a.26.26,0,0,0,.36,0c.12-.08.15-.28.09-.59Z"/><path d="M222.11,218.85l-.39.4c.09.08.29,0,.62-.18Z"/><path d="M221,225.07l.4.38.1-.1c.14-.15.11-.38-.11-.7Z"/><path d="M228.68,225.86l1.25-1.32c.42-.88.1-1.83-1-2.85a8.42,8.42,0,0,0-1-1.19,10.75,10.75,0,0,1-1-.74l-.39-.57a2.36,2.36,0,0,0-2.66.55l-1.54,1.62,5.43,5.15c.56-.38.86-.6.91-.65"/><polygon points="230.74 218.18 230.9 218.34 231.1 218.13 230.93 217.97 230.74 218.18"/><path d="M232.11,221.61c-.11-.11-.23-.09-.35,0l.17.16a.23.23,0,0,0,.35,0Z"/><path d="M231.14,226.84l.06.26a.26.26,0,0,0,.36-.06l.18-.19c-.3-.11-.5-.11-.6,0"/><path d="M232.41,223.25l-.09.09c-.1.1-.11.28-.06.53l.28-.13a1.43,1.43,0,0,1,.3-.47l-.08-.08c-.1-.1-.22-.08-.35.06"/><path d="M232.4,222.45l.32.3.1-.1c.12-.13.13-.25,0-.35Z"/><path d="M228.15,229l-.1.11c-.33.72-.45,1.12-.37,1.2l.17.16a.25.25,0,0,0,.36-.05c.19-.73.25-1.13.19-1.18Z"/><path d="M228.81,229.62a.24.24,0,0,0,.33,0l.1-.1-.15-.15Z"/><polygon points="228.66 228.16 228.48 228.35 228.63 228.5 228.81 228.31 228.66 228.16"/><path d="M229.87,226.23l.25.24.29-.32a.63.63,0,0,1-.35-.13Z"/><polygon points="229.49 228.75 229.57 228.82 229.87 228.51 229.78 228.43 229.49 228.75"/><path d="M230.8,219.76l.07.07.18-.19-.24-.23c-.1.15-.11.26,0,.35"/><path d="M220,220.46l-.32-.5-.07-.07a3.93,3.93,0,0,1-.83.37c-.05.06-.29.36-.69.9l.08.08a4.44,4.44,0,0,1,1.83-.78"/><rect x="210.37" y="213.51" width="0.14" height="0.21" transform="translate(-89.38 218.56) rotate(-46.37)"/><path d="M212.32,210.67l-.1.11c-.11.15-.13.27,0,.35q.19-.21.45,0l.28-.3-.25-.23c-.1-.1-.22-.09-.34,0"/><polygon points="209.78 213.65 210.03 213.89 210.21 213.7 209.96 213.46 209.78 213.65"/><rect x="212.4" y="215.01" width="0.26" height="0.23" transform="translate(-89.84 219.85) rotate(-46.24)"/><path d="M210,212.66c-.32-.1-.52-.1-.62,0l-.1.1.08.08c.1.09.33.05.72-.11Z"/><path d="M211.88,211.61c-.22-.08-.37-.09-.43,0-.61.71-.82,1.15-.64,1.31l.08.08c.07.08.43,0,1.07-.14-.25-.24-.28-.65-.08-1.23"/><path d="M210.65,213.71l-.1.11q-.28.3.27,1c.16-.49.21-.76.15-.82Z"/><path d="M215.81,208.79c.12-.13.12-.25,0-.35l-.26.11-.1.1.25.24Z"/><polygon points="211.71 210.48 211.39 210.18 211.29 210.28 211.61 210.59 211.71 210.48"/><path d="M217.76,207.21l.1-.11-.32-.3a10.16,10.16,0,0,1-1.12.85l.08.08Z"/><polygon points="216.87 208.48 217.17 208.16 217.09 208.08 216.79 208.4 216.87 208.48"/><path d="M214.62,208.25l-.25-.23-.18.19a.91.91,0,0,1,.15.34Z"/><path d="M136.47,255.51l.25.14.17-.22,0-.22q0-.21-.24-.24Z"/><path d="M220.5,216.16q1.35-1.42-.91-3.58l-2.18-2.07c-.77-.73-1.84-.46-3.23.8l-1,1c-.1.14-.11.26,0,.34l5.19,4.93c.19.15.89-.32,2.12-1.43"/><path d="M220.54,223.72l-.15-.14q-.15.21,0,.33Z"/><path d="M220.3,220.58l-.2.21a.26.26,0,0,0,.37,0Z"/><polygon points="218.16 219.9 217.97 220.11 218.3 220.43 218.4 220.32 218.16 219.9"/><path d="M214.47,217.15c-.1.11-.12.35-.07.72l.16.16.1-.1a1.07,1.07,0,0,1,.23-.58l-.32-.3Z"/><path d="M219.37,219.13l-.18.19.15.15.38-.4c-.1-.1-.21-.08-.35.06"/><path d="M215.62,218a2.26,2.26,0,0,1-.19,1.18c.08.08.26.06.53-.06l.1-.1a.76.76,0,0,0,0-.56Z"/><polygon points="218.33 207.75 218.17 207.59 218.09 207.68 218.25 207.83 218.33 207.75"/><path d="M221,219.08l.16.16c.12-.13.13-.24,0-.35Z"/><rect x="216.7" y="220.3" width="0.14" height="0.21" transform="translate(-92.33 225.14) rotate(-46.35)"/><path d="M220.7,222.11l.48-.5c.13-.14.14-.26,0-.37l-.15-.15-.1.11c-.26.53-.35.83-.26.91"/><polygon points="221.4 219.9 221 219.51 220.9 219.62 221.3 220 221.4 219.9"/><path d="M221.17,220.64l-.08-.08c-.11-.11-.24-.09-.37.05l.25.24Z"/><path d="M214.5,209.66l-.24-.22a1.09,1.09,0,0,1-.38.23l.06.25a1.16,1.16,0,0,1,.56-.26"/><path d="M165.16,251l.14,0-.1-.43-.42.09.05.21c0,.14.15.2.33.16"/><path d="M163,237.11l-.1.24.4-.08c0-.14-.13-.19-.3-.16"/><polygon points="196.31 228 196.18 227.81 196.06 227.9 196.19 228.09 196.31 228"/><polygon points="162.27 242.42 162.41 242.38 162.36 242.16 162.22 242.19 162.27 242.42"/><path d="M162.53,242.93l.68-.15,0-.11a1.46,1.46,0,0,1-.89-.16l0,.11a.66.66,0,0,1,.22.31"/><polygon points="162.52 240.99 162.26 241.04 162.31 241.25 162.57 241.19 162.52 240.99"/><path d="M164.71,252.27l0-.11-.28.06.07.34c.19,0,.27-.14.23-.29"/><rect x="168.1" y="236.2" width="0.14" height="0.34" transform="translate(-46.41 41.16) rotate(-12.28)"/><rect x="161.18" y="239.21" width="0.12" height="0.23" transform="translate(-48.06 40.66) rotate(-12.52)"/><rect x="168.13" y="235.74" width="0.14" height="0.23" transform="translate(-47 41.93) rotate(-12.48)"/><polygon points="166.92 236.14 166.89 236.03 166.47 236.12 166.49 236.23 166.92 236.14"/><rect x="161.05" y="243.93" width="0.14" height="0.21" transform="translate(-48.31 39.95) rotate(-12.31)"/><path d="M161.07,242.09l-.28.06.1.45.39-.09,0-.11a.94.94,0,0,1-.19-.31"/><polygon points="163.94 237.02 163.96 237.12 164.24 237.05 164.22 236.96 163.94 237.02"/><rect x="161.86" y="242.36" width="0.26" height="0.12" transform="translate(-48.63 40.81) rotate(-12.5)"/><path d="M169.08,236.92l-.05-.22-.14,0a1.19,1.19,0,0,0-.56.69l.14,0c.43-.2.63-.35.61-.47"/><path d="M163.72,250.43l-.11,0,0,.23.4-.09c0-.15-.14-.2-.33-.16"/><path d="M164.34,253.28l-.07.23,0,.11.11,0c.19,0,.27-.14.24-.29Z"/><path d="M165.07,254.59l-.42.09c0,.12.19.2.5.25Z"/><path d="M165.41,259.43l-.28.06.08.34c.18,0,.26-.14.23-.29Z"/><path d="M162.92,248.66l.1.45c.12,0,.23-.17.32-.43l0-.11Z"/><polygon points="163.15 247.13 162.89 247.19 162.92 247.3 163.18 247.25 163.15 247.13"/><polygon points="162.2 243.45 161.8 243.54 161.85 243.76 162.25 243.68 162.2 243.45"/><path d="M162.49,244.77l-.12-.55c-.17.06-.24.15-.21.26a.92.92,0,0,1,.21.31Z"/><path d="M162.93,246.14q0-.21-.3-.15l.1.43c.17,0,.24-.13.2-.28"/><path d="M162.29,250.41l.05.2.28-.06c0-.14-.14-.19-.33-.14"/><path d="M141.32,252.17h.15c.17,0,.27,0,.28-.18l-.4,0Z"/><polygon points="140.29 260.75 140.44 260.76 140.48 260.32 140.34 260.31 140.29 260.75"/><path d="M140.56,259.54l-.14,0c-.39.07-.6.15-.61.27l.41.27.28,0Z"/><path d="M139.23,261.61a5.44,5.44,0,0,1-.57,0c0,.1.38.37,1.17.8l.17-.2,0-.23-.25-.35h-.54"/><path d="M140.77,258.88v.1a.24.24,0,0,0,.24.26l.17-.22-.28-.12Z"/><polygon points="139.47 263.13 139.61 263.14 139.63 262.94 139.49 262.92 139.47 263.13"/><path d="M140.49,261.67c.17,0,.27-.05.28-.2v-.11l-.26,0Z"/><path d="M138.47,259.21a5.15,5.15,0,0,1,1.62-.74l0-.23-1-.43c0,.44-.39.7-1,.8H138a.74.74,0,0,1-.1-.36c-.13,0-.38.15-.76.48l.84.09,0,.34Z"/><path d="M137.5,257.64a6.85,6.85,0,0,1-1.08-.23l.5.5c.38-.07.57-.16.58-.27"/><path d="M140.77,256.16l0,.35.55.05.05-.44a1.56,1.56,0,0,1-.56,0"/><rect x="138.49" y="262.4" width="0.11" height="0.26" transform="translate(-136.37 374.51) rotate(-84.34)"/><path d="M139.13,261.07c0,.15.08.24.26.26s.27-.05.28-.21l-.51-.38Z"/><path d="M139.68,259.89v-.11c0-.12-.16-.28-.52-.5l-.27,0c-.19,0-.29.08-.32.3l.1.47a3,3,0,0,1-.64.61v.11c0,.15.1.22.26.24s.36-.26,1-.45a1.15,1.15,0,0,0,.35-.64"/><path d="M169.9,236.75l.14,0a.7.7,0,0,1,.16-.48l0-.23-.12,0c-.18.06-.26.16-.23.28Z"/><polygon points="171.31 236.67 171.28 236.56 171 236.62 171.02 236.74 171.31 236.67"/><path d="M142.76,240.84l.28.12c.19,0,.29,0,.31-.18l0-.45-.43-.05a.93.93,0,0,1-.2.56"/><rect x="142.81" y="238.65" width="0.23" height="0.12" transform="translate(-108.69 357.47) rotate(-84.36)"/><polygon points="170.95 237.65 170.93 237.54 170.51 237.63 170.53 237.75 170.95 237.65"/><path d="M170.89,238l0-.11-.4.09.1.43c.12,0,.23-.16.33-.41"/><path d="M142.26,249.91l0-.23-.29,0c0,.16.09.24.27.26"/><polygon points="141.72 242.76 141.86 242.77 141.89 242.54 141.74 242.53 141.72 242.76"/><rect x="141.49" y="256.62" width="0.12" height="0.29" transform="translate(-128.42 371.15) rotate(-84.09)"/><path d="M164.85,258.2l.05.2c0,.13.27.19.75.19l.09-.25-.07-.32Z"/><polygon points="142.11 238.96 141.97 238.94 141.95 239.17 142.09 239.19 142.11 238.96"/><polygon points="142.15 245.62 142 245.6 141.98 245.81 142.13 245.83 142.15 245.62"/><path d="M141.65,255.81v-.11c0-.14-.07-.22-.27-.24l-.54-.06,0,.21c.27,0,.4.16.37.39h.15c.19,0,.29,0,.31-.2"/><path d="M162.61,238.67l.07-.23-.05-.23-.12,0a1.42,1.42,0,0,1-.39.2c0,.1.18.18.49.23"/><path d="M204,222.24q-.22.19-.12.33l.06.1.12-.08a1,1,0,0,1,.29-.34c-.07-.12-.19-.12-.35,0"/><rect x="204.17" y="223.31" width="0.14" height="0.23" transform="translate(-90.43 154.14) rotate(-34.34)"/><rect x="204.96" y="222" width="0.41" height="0.12" transform="translate(-89.28 153.45) rotate(-34.15)"/><path d="M205.34,224.7l-.1.07.13.19a.25.25,0,0,0,.34,0v-.25c-.09-.13-.21-.14-.37,0"/><rect x="206.54" y="224.5" width="0.29" height="0.34" transform="translate(-90.59 155.21) rotate(-34.24)"/><path d="M205.67,222.46c-.13.12-.16.22-.09.32l.25.38c.12-.08.11-.34,0-.79Z"/><path d="M204.29,219.9l-.7.47a.63.63,0,0,1,.07.35l.47-.32c.11-.08.16-.24.16-.5"/><polygon points="192.13 252.71 192.18 252.81 192.42 252.71 192.38 252.6 192.13 252.71"/><polygon points="192.12 252.36 192 252.41 192.09 252.6 192.2 252.55 192.12 252.36"/><rect x="193.3" y="253.52" width="0.14" height="0.23" transform="translate(-84.14 96.44) rotate(-23.15)"/><path d="M191.71,253.49l0-.11-.13.06c.06.15-.15.37-.64.65l0,.11.77-.34a.83.83,0,0,1,0-.37"/><polygon points="193.31 253.31 193.04 253.42 193.08 253.51 193.34 253.4 193.31 253.31"/><path d="M201.69,220.57l.19.27.36-.25c-.06-.08-.24-.09-.55,0"/><rect x="206.28" y="225.46" width="0.29" height="0.12" transform="translate(-90.44 152.43) rotate(-33.7)"/><path d="M211.09,232.4l-.51.23.18.27.22-.15c.16-.11.2-.23.11-.35"/><rect x="211.34" y="232.1" width="0.14" height="0.33" transform="translate(-93.99 158.99) rotate(-34.2)"/><polygon points="209.99 231.54 210.11 231.72 210.23 231.64 210.11 231.46 209.99 231.54"/><polygon points="194.58 226.74 194.71 226.93 194.83 226.85 194.7 226.66 194.58 226.74"/><path d="M194.63,226.31l-.06-.09-.24.16.18.27c.16-.11.2-.22.12-.34"/><rect x="211.09" y="233.27" width="0.26" height="0.11" transform="translate(-94.58 158.89) rotate(-34.17)"/><polygon points="207.93 225.52 207.76 225.75 207.47 225.83 207.72 226.19 208.18 225.88 207.93 225.52"/><path d="M206.66,226.64l-.58.39.07.09a.6.6,0,0,1,.31.21l.46-.31c.16-.11.19-.23.11-.36s-.21-.13-.37,0"/><polygon points="208.58 228.44 208.65 228.54 208.98 228.31 208.92 228.21 208.58 228.44"/><path d="M210.85,230.54l.19.54.07.1a1,1,0,0,1,.32-.5c-.31-.24-.53-.31-.65-.23l-.12.08c.05.06.11.07.19,0"/><path d="M208.54,227.4c-.06-.1-.25-.11-.55,0-.13.12-.16.23-.09.34l.25.36.12-.08a1,1,0,0,1,.32-.5Z"/><path d="M174.13,257.53c.23.14.36.27.38.39.65-.47,1-.77.94-.9l-.28,0a1.69,1.69,0,0,1-1,.56"/><rect x="180.85" y="232.62" width="0.14" height="0.35" transform="translate(-76.94 89.85) rotate(-23.14)"/><polygon points="169.1 261.25 169.13 261.37 169.39 261.31 169.36 261.2 169.1 261.25"/><polygon points="180.72 235.36 180.81 235.57 180.94 235.52 180.85 235.3 180.72 235.36"/><path d="M183,240l-.22-.51c-.11,0-.19.21-.24.46a.23.23,0,0,0,.33.11Z"/><polygon points="182.86 240.65 182.91 240.75 183.28 240.59 183.23 240.49 182.86 240.65"/><polygon points="173.98 258.72 174.02 258.93 174.16 258.89 174.12 258.69 173.98 258.72"/><path d="M185.73,244.53l-.38.16.13.3.11-.05c.18-.07.24-.18.18-.32Z"/><path d="M170.11,260.7l0-.11c-.17.06-.24.16-.21.28l0,.09.33.28-.09.24a2.41,2.41,0,0,0,1,.13l0-.11c0-.1-.36-.37-1-.8"/><polygon points="190.97 252.85 190.62 252.4 190.49 252.45 190.59 253.01 190.88 253.01 191.01 252.96 190.97 252.85"/><path d="M175.05,256.42a.8.8,0,0,1,.21.29q.18,0,.42-.66l-.05-.21c-.39.23-.58.43-.58.58"/><path d="M165.27,257.52a.25.25,0,0,0,.33.16l.21-.38-.31-.05c-.18.06-.26.15-.23.27"/><path d="M186.21,246.37l0,.26.09.21.37-.16c.18-.07.24-.18.17-.32Z"/><polygon points="190.33 253.85 190.37 253.94 190.63 253.83 190.59 253.74 190.33 253.85"/><polygon points="168.33 260.4 168.35 260.52 168.63 260.45 168.61 260.34 168.33 260.4"/><path d="M190.42,253l-.51.22c-.17.1-.22.21-.17.32l.08.2c.44-.19.65-.4.64-.63Z"/><path d="M166.69,260.64l.07-.25-.4.09c0,.15.16.2.33.16"/><path d="M171.4,260.07l-.12,0c.17.28.34.4.5.37l.28-.06-.05-.23a1.16,1.16,0,0,1-.61-.1"/><path d="M188.48,252.33a1.31,1.31,0,0,1-.36.28l0,.1c.26-.11.44-.07.52.13l.14-.05c.11,0,.2-.21.24-.46a1,1,0,0,0-.59,0"/><polygon points="187.22 248.74 187.26 248.84 187.53 248.73 187.48 248.62 187.22 248.74"/><path d="M188.76,251.6a.25.25,0,0,0,.36.1l-.09-.21Z"/><path d="M248.47,42.63A145.55,145.55,0,0,0,42.63,248.47,145.55,145.55,0,0,0,248.47,42.63M245,245A140.64,140.64,0,0,1,46.1,46.1,140.64,140.64,0,0,1,245,245"/></g></g></svg>