<svg xmlns="http://www.w3.org/2000/svg" viewBox="0 0 289.7 289.7"><defs><style>.cls-1{fill:#fff;}</style></defs><title>Asset 3</title><g id="Layer_2" data-name="Layer 2"><g id="Layer_1-2" data-name="Layer 1"><path class="cls-1" d="M105.67,63.21v-.34l-.45.19a.31.31,0,0,0,.44.15"/><path class="cls-1" d="M103.85,61.84l-.31.13.17.43c.21-.09.28-.22.2-.41Z"/><path class="cls-1" d="M103.61,59.53l.15-.54h-.37q-.3.18-.21.39a.3.3,0,0,0,.43.16"/><path class="cls-1" d="M103.91,60.71l0-.35-.17-.4-.91.37.1.26c.07.16.38.2.94.12"/><path class="cls-1" d="M62.52,93.6l1.09-1,.09-.14c.38-.54,1-1.64,1.9-3.3l-1.23-.84q-7.4-3.09-8.69-3.2-1.09-.54-1.29-.27L54.3,85l8.12,8.79Z"/><polygon class="cls-1" points="57.49 92.74 57.72 92.91 57.82 92.76 57.59 92.61 57.49 92.74"/><path class="cls-1" d="M57.94,96l.13.09a.32.32,0,0,0,.42-.12l.08-.12-.36-.25Z"/><polygon class="cls-1" points="107.9 62.63 107.84 62.49 107.53 62.62 107.59 62.76 107.9 62.63"/><path class="cls-1" d="M54.83,89.71l.19-.27-.23-.17c-.1.21-.09.36,0,.44"/><rect class="cls-1" x="56.4" y="90.42" width="0.34" height="0.15" transform="translate(-50.06 85.9) rotate(-55.52)"/><rect class="cls-1" x="54.5" y="87.92" width="0.34" height="0.15" transform="translate(-48.81 83.22) rotate(-55.51)"/><rect class="cls-1" x="56.05" y="83.96" width="0.51" height="0.15" transform="translate(-44.84 82.8) rotate(-55.48)"/><path class="cls-1" d="M64.74,95.91l-.24-.16-.09.14c-.1.2-.09.35,0,.44Z"/><path class="cls-1" d="M62.56,95.4a2,2,0,0,1-.43,1.12l1.07-.47.23.16c.14-.2,0-.52-.57-1Z"/><rect class="cls-1" x="61.42" y="95.28" width="0.34" height="0.15" transform="translate(-51.88 92.13) rotate(-55.51)"/><path class="cls-1" d="M64.21,97a.29.29,0,0,0-.45.11l-.18.25.72.32.1-.14a.29.29,0,0,0-.07-.45Z"/><rect class="cls-1" x="61.02" y="94.99" width="0.17" height="0.28" transform="translate(-51.9 91.64) rotate(-55.52)"/><path class="cls-1" d="M54,87.75l-.2.28.24.16.38-.55c-.15-.11-.3-.07-.42.11"/><path class="cls-1" d="M63.73,99.23a1.2,1.2,0,0,1,.75-.31l.15.32.13.08.27-.39-.12-.09a.8.8,0,0,1-.46-.11l.1-.14a1.37,1.37,0,0,1-.72-.28l-.35.75Z"/><path class="cls-1" d="M53.89,89.27l-.13-.09c-.09.2-.06.34.08.44l.1.07a.27.27,0,0,0,0-.42"/><rect class="cls-1" x="53.75" y="83.7" width="0.17" height="0.44" transform="matrix(0.56, -0.83, 0.83, 0.56, -45.82, 80.97)"/><polygon class="cls-1" points="109.01 63.62 108.95 63.48 108.66 63.6 108.72 63.74 109.01 63.62"/><rect class="cls-1" x="59.26" y="96.25" width="0.48" height="0.31" transform="translate(-53.66 90.87) rotate(-55.52)"/><path class="cls-1" d="M111.59,62.09l.32-.12-.12-.29a1.27,1.27,0,0,1-.74,0l-.13.06c.27.33.5.46.67.38"/><path class="cls-1" d="M109.52,63.08l.46.31,0,.33a2.88,2.88,0,0,0,1.25,0l-.05-.15a5.23,5.23,0,0,0-1.43-.86l-.06-.14a.31.31,0,0,0-.17.4Z"/><rect class="cls-1" x="113.77" y="59.4" width="0.17" height="0.28" transform="translate(-14.04 47.18) rotate(-22.09)"/><path class="cls-1" d="M73.7,86.32l-.17.26.25.17a.27.27,0,0,0-.08-.43"/><path class="cls-1" d="M204.47,74.1c.13.11.19.37.19.78l-.33.11-.11.11.35.33.11-.11a.78.78,0,0,1,.18-.44L205,75a1.24,1.24,0,0,1,.39-.65l-.68-.48Z"/><rect class="cls-1" x="223.65" y="61.18" width="0.44" height="0.17" transform="matrix(0.69, -0.73, 0.73, 0.69, 25.52, 181.79)"/><path class="cls-1" d="M206.39,74.25l-.43.66.13.12c.16.15.31.16.45,0l.11-.11a.29.29,0,0,0,0-.46Z"/><path class="cls-1" d="M206.66,73.48c.16.16.31.17.44,0l-.49-.47a.32.32,0,0,0,0,.44"/><rect class="cls-1" x="207.78" y="70.12" width="0.31" height="0.48" transform="translate(13.66 172.55) rotate(-46.44)"/><path class="cls-1" d="M206.72,72.93l.51-.54a1.1,1.1,0,0,1-.26-.67l-.41.43c-.1.11-.09.34.05.68Z"/><rect class="cls-1" x="204.73" y="71.32" width="0.31" height="0.17" transform="translate(11.84 170.45) rotate(-46.37)"/><path class="cls-1" d="M207.79,75.41l-.12-.12c-.19-.13-.33-.14-.44,0l.37.35Z"/><polygon class="cls-1" points="208.46 72.53 208.71 72.77 208.81 72.65 208.57 72.42 208.46 72.53"/><path class="cls-1" d="M207.4,72.94l.3,1.13-.2.21c.18.17.53,0,1.06-.41l-.12-.33a2,2,0,0,1-1-.6"/><rect class="cls-1" x="208.8" y="72.07" width="0.28" height="0.17" transform="translate(12.49 173.48) rotate(-46.34)"/><rect class="cls-1" x="208.07" y="77.2" width="0.31" height="0.51" transform="translate(8.72 175.21) rotate(-46.51)"/><path class="cls-1" d="M207.33,76.6l.37.35.1-.11c.15-.41.16-.67,0-.78Z"/><path class="cls-1" d="M208.59,69.53l.3-.32-.35-.33-.11.11a.33.33,0,0,0,0,.44Z"/><polygon class="cls-1" points="222.54 61.34 222.42 61.22 222.21 61.44 222.33 61.56 222.54 61.34"/><path class="cls-1" d="M221.13,65l-.25-.23a.31.31,0,0,0-.44,0l.72.69a.29.29,0,0,0,0-.46"/><rect class="cls-1" x="220.94" y="66.65" width="0.44" height="0.17" transform="translate(20.26 180.77) rotate(-46.37)"/><rect class="cls-1" x="220.57" y="66.13" width="0.28" height="0.17" transform="translate(21.03 181.21) rotate(-46.64)"/><rect class="cls-1" x="219.31" y="63.04" width="0.15" height="0.31" transform="translate(22.27 178.39) rotate(-46.37)"/><polygon class="cls-1" points="210.41 77.9 210.64 78.12 211.07 77.67 210.84 77.46 210.41 77.9"/><path class="cls-1" d="M223.06,60.8c.13-.14.23-.18.3-.11a1.27,1.27,0,0,1,.21-.43c-.43-.2-.7-.25-.81-.14a.32.32,0,0,0,.05.44Z"/><rect class="cls-1" x="214.15" y="68.23" width="0.15" height="0.34" transform="translate(17.11 176.65) rotate(-46.48)"/><path class="cls-1" d="M215.86,65.94l.11-.11a.31.31,0,0,0-.44,0l-.09.09a.26.26,0,0,0,.42,0"/><polygon class="cls-1" points="211.99 69.07 211.86 68.95 211.67 69.16 211.79 69.28 211.99 69.07"/><path class="cls-1" d="M215.71,66.83c-.18-.13-.33-.14-.44,0l.25.23Z"/><path class="cls-1" d="M217.34,66.32l-.25-.23-.19.2.49.47c.13-.14.11-.29,0-.44"/><rect class="cls-1" x="216.92" y="66.75" width="0.15" height="0.34" transform="translate(19.26 178.57) rotate(-46.59)"/><path class="cls-1" d="M205.09,73.44a.31.31,0,0,0,0,.46l.24.24.52-.54c-.43-.22-.69-.27-.8-.16"/><polygon class="cls-1" points="224.82 68.47 224.94 68.58 225.15 68.36 225.03 68.24 224.82 68.47"/><polygon class="cls-1" points="225.12 68.15 225.24 68.27 225.67 67.82 225.54 67.7 225.12 68.15"/><path class="cls-1" d="M221.85,73.27l-.52.54.13.12a1,1,0,0,1,.65-.2l-.14-.34Z"/><rect class="cls-1" x="221.35" y="75.35" width="0.31" height="0.17" transform="translate(14.04 183.65) rotate(-46.35)"/><rect class="cls-1" x="39.54" y="158.72" width="0.4" height="0.33"/><rect class="cls-1" x="45.71" y="169.29" width="0.17" height="0.7"/><rect class="cls-1" x="43.96" y="168.23" width="0.4" height="0.18"/><rect class="cls-1" x="44.36" y="165.93" width="0.2" height="0.36"/><path class="cls-1" d="M46.27,137.53v-.69h-.76V137c0,.18.25.35.76.51"/><path class="cls-1" d="M42.44,152.17v.36h.37a.32.32,0,0,0-.37-.36"/><rect class="cls-1" x="240.47" y="155.87" width="0.59" height="0.18"/><path class="cls-1" d="M240.67,155.53a1.38,1.38,0,0,0,1.35-1.06v-.18c-.9,0-1.35.42-1.35,1.24"/><rect class="cls-1" x="241.23" y="158.72" width="0.4" height="0.33"/><path class="cls-1" d="M242.58,158.17c.13.71.33,1.06.6,1.06,0-.59.18-.88.56-.88v-.7h-.56c0,.35-.2.52-.6.52"/><path class="cls-1" d="M244.18,155.31c0-.24.07-.51.12-.84-.11,0-.17-.06-.17-.18-1.3.34-1.94,1.05-1.94,2.12,0,.16.19.34.59.52h.4c.24,0,.36-.11.36-.34l-1-.72c.2-.47.4-.7.6-.7.17.46.36.7.56.7h.39a4.75,4.75,0,0,1,.05-.56"/><path class="cls-1" d="M244.69,159.75v-.16a1.28,1.28,0,0,1-.19-.54c.13,0,.19-.06.19-.18-.26,0-.39-.24-.39-.7h-.37l.2,1.58Z"/><rect class="cls-1" x="244.13" y="161.35" width="0.36" height="0.33"/><path class="cls-1" d="M242.58,151h.2v-.73a1.09,1.09,0,0,1-.4-.7h-.19c-.25,0-.37.17-.37.37v.33c.51,0,.76.24.76.73"/><path class="cls-1" d="M241.63,151.11c0-.22-.14-.33-.4-.33l-.36.51h.76Z"/><rect class="cls-1" x="241.82" y="143.2" width="0.56" height="0.15"/><rect class="cls-1" x="247.4" y="169.29" width="0.16" height="0.7"/><rect class="cls-1" x="245.65" y="168.23" width="0.4" height="0.18"/><path class="cls-1" d="M144.85,10.39A134.46,134.46,0,1,0,279.31,144.85,134.46,134.46,0,0,0,144.85,10.39m36.52,55a9.35,9.35,0,0,1,.61-1l.89-1.77a1.73,1.73,0,0,1,1.92-.85c1.45.79,2.67,1.44,3.65,1.93a1.55,1.55,0,0,1,1,2l-1.55,3.07q-1,1.53-2.28.87l-4.11-2.07c-.63-.4-.67-1.12-.14-2.18M152.93,52.7c.33-1.2.51-1.83.52-1.9a.85.85,0,0,1-.09-.46l.22-.27a1.36,1.36,0,0,0,0-.76c.35-1.26.59-2.29.74-3.08l.3-1.62A17.8,17.8,0,0,0,155.1,40a6.59,6.59,0,0,0,.41-1.31l.27-1.46a34.73,34.73,0,0,1,.88-3.82,27.77,27.77,0,0,1,.54-3.87,4.82,4.82,0,0,1,.4-1.28,13.71,13.71,0,0,1,.19-2l.44-2.35a21.34,21.34,0,0,1,.6-2.34,1.37,1.37,0,0,1,0-.77q.25-1.41,2.94-1.44l.5.09a23.55,23.55,0,0,1,3.34.93,2.78,2.78,0,0,1,1-.13Q179,22.54,177.19,32.14L175.75,40q-1.32,7.17-9.06,8.26a19.15,19.15,0,0,1-3-.26l-2.25-.42-2,10.93a1.36,1.36,0,0,0,0,.63c-.54,1-1.23,1.45-2.08,1.29l-4.06-.75a1.56,1.56,0,0,1-1.26-1.3q.63-4.38.87-5.64m66.79,92.15A74.88,74.88,0,1,1,144.85,70a74.87,74.87,0,0,1,74.87,74.88m.56-45.54a9,9,0,0,1,1.07-.51l1.72-1a1.75,1.75,0,0,1,2.07.36c.77,1.46,1.43,2.67,2,3.62a1.57,1.57,0,0,1-.26,2.24l-3,1.7c-1.1.5-1.89.32-2.37-.53l-2.29-4c-.3-.67.06-1.3,1.09-1.89M133,53.61c1.66-.11,3-.22,4.12-.33s1.71.28,1.93,1.15l.35,3.43c0,1.2-.48,1.85-1.46,2l-4.59.46c-.73,0-1.16-.58-1.28-1.76a11,11,0,0,1,0-1.19l-.2-2A1.74,1.74,0,0,1,133,53.61M91.32,33.36a10.75,10.75,0,0,1,5.73-5.57q4.92-1.09,7-.27A9,9,0,0,1,109.65,33l1.19,2.91c.2,1.1-.1,1.81-.9,2.14l-4,1.63a1.49,1.49,0,0,1-2-1l-.17-.4a2.37,2.37,0,0,1-.14-1.25c-1.28-2.59-2.8-3.52-4.54-2.81-1.32.82-1.78,1.7-1.39,2.65l8.77,21.47c.78,1.4,1.79,1.85,3,1.34q2.63-1.43,2-3l-.91-2.21a7,7,0,0,0-.67-1.2,2.25,2.25,0,0,1,1.6-2.59l2.59-1.06c1.37-.43,2.23-.24,2.56.59l1.13,2.76q2.91,7.11-4.1,12.17a13.29,13.29,0,0,1-1.77.89q-5.84,2.4-11-2.46a7.91,7.91,0,0,1-1.31-2.38L99,59.62a1.39,1.39,0,0,0-.44-.63l-.18-.89-.68-1.67a27.16,27.16,0,0,0-1.23-2.55,1,1,0,0,0,0-.49l-.26-.2a7.12,7.12,0,0,0-.36-1.33l-.16-.4c-.12-.29-.23-.41-.34-.37l-.12-.75-1.31-3.19a32.6,32.6,0,0,0-1.4-3A8.5,8.5,0,0,0,92,42.46c-.13-.3-.5-1.06-1.12-2.29q-.87-6.29.42-6.81M84.26,75q2-1.5,3.27-2.52a1.55,1.55,0,0,1,2.25-.09l2.15,2.68c.67,1,.61,1.82-.15,2.43l-3.6,2.89c-.61.41-1.29.15-2-.77-.21-.27-.44-.6-.68-1l-1.23-1.55a1.72,1.72,0,0,1,0-2.09m-44.9-1.35c1.37-2,2.91-2.39,4.64-1.21q34.07,13,34.93,13.63c.74.5.77,1.33.11,2.47L76.8,91.85q-.87,1.26-3.57-.09c-.27.23-.62.2-1-.09l-5,7.32q2.89,2.64,1.89,4.11l-2.42,3.52a2,2,0,0,1-2,.59l-5.56-6.43a82.81,82.81,0,0,1-5.93-6.44,15.92,15.92,0,0,1-2.72-2.9l-11.74-13c-.74-1-.86-1.89-.34-2.64-.09-.06.26-.75,1-2.06m5.2,106.36a3.07,3.07,0,0,1-1.75.51H40.14a2.31,2.31,0,0,1-1.36-2.3c.44-1.39.85-2.94,1.22-4.64s.74-3.55,1.09-5.57c.2,0,.52-1.12,1-3.37l-.2-2.09H35a2.51,2.51,0,0,1-1.35-2.3q2.2-10.66,3.46-17.27t1.52-9.18a3.27,3.27,0,0,1,2.9-1.58h5.18c1.62,0,2.71.47,3.26,1.39q0,.34-5.57,20.64a11.74,11.74,0,0,0,2.31.55h3.06a23.59,23.59,0,0,0,2.67-.19c1.68.19,2.51.77,2.51,1.76q-9.6,22.72-10.35,23.64m18.85,38.86-1.29-1.44L56,223a1,1,0,0,0-.26.4,1.57,1.57,0,0,1-1.94-.32l-2.33-2.59a1.33,1.33,0,0,1-.25-1.44c1.57-1.54,2.58-2.52,3.06-2.95l1.17-.86a.56.56,0,0,1,.15-.33l.26,0a1,1,0,0,0,.32-.48c.78-.58,1.39-1.07,1.84-1.47l.91-.82a11.55,11.55,0,0,0,2.37-2.52,5.18,5.18,0,0,0,.85-.57l.82-.75a22.46,22.46,0,0,1,2.26-1.83,18.45,18.45,0,0,1,2.06-2,3,3,0,0,1,.83-.56,8.52,8.52,0,0,1,1-1.08l1.32-1.19a15.4,15.4,0,0,1,1.43-1.09.9.9,0,0,1,.32-.48c.53-.48,1.38-.25,2.56.68L75,201a24.25,24.25,0,0,1,1.78,2.31,2.85,2.85,0,0,1,.73.47q7.1,7.88,1.7,12.73l-4.38,4q-4,3.63-9.58.22a19.08,19.08,0,0,1-1.85-1.74m18.65,28.63-2.72-1.95c-.69-.5-.7-1.42,0-2.76a.6.6,0,0,1,0-.79l-6.08-4.39q-2.05,2.07-3.28,1.2l-2.92-2.11a1.64,1.64,0,0,1-.54-1.62l5-3.89a54.47,54.47,0,0,1,5.05-4.18,10,10,0,0,1,2.27-1.92l10.22-8.27a1.79,1.79,0,0,1,2.13-.09,6.75,6.75,0,0,1,1.7.95c1.65,1.19,2,2.42,1.12,3.68q-9.54,25.59-10,26.22c-.39.54-1.06.51-2-.08m16.52,6.8a1.31,1.31,0,0,1-1.71.44l-3.55-1.6a1.9,1.9,0,0,1-.48-1.31,5.22,5.22,0,0,1,.54-.87c.44-1.19.73-2,.88-2.28a19,19,0,0,1,1.18-2.26q.72-1.94,1.29-3.21c.38-.84,1.14-2.41,2.28-4.69q.42-1.27.69-1.89l.59-.95a.79.79,0,0,0,0-.46,10.9,10.9,0,0,0,.77-1.36l1.29-2.84a8.08,8.08,0,0,0,.19-1.48l-3-1.37a1.64,1.64,0,0,1-1.15-1.51l.22-.15a.66.66,0,0,0,0-.35l.36-.45a11.89,11.89,0,0,0,.52-1.84,2.14,2.14,0,0,1,2-.42l1.21.67,1.52.69c.68.31,1.5.63,2.44,1a1.6,1.6,0,0,0,.35.28,1.26,1.26,0,0,0,.55.12c1.46.74,2.67,1.33,3.62,1.76l1.4.63a13.56,13.56,0,0,0,1.44.53c.84.6,1.15,1.15.93,1.64l-1.18,2.62q-.47,1-2.49.12l-2.79-1.26Zm16.94,5.25a.89.89,0,0,0,0,.46,1.57,1.57,0,0,1-1.81.75l-3.32-.94a1.47,1.47,0,0,1-1.07-1.33c.12-.41.42-1.29.9-2.65.35-1.58.6-2.63.75-3.14a5.88,5.88,0,0,1,.61-1.2l.42-2.42a4.19,4.19,0,0,0,.38-.83c.19-1,.33-1.67.41-2l.26-.39a2.41,2.41,0,0,1,.1-.88,1,1,0,0,1,.29-.51l.18-1.68.67-1.3c0-.12.11-.56.23-1.33.45-1.27.73-2.08.83-2.42a8.12,8.12,0,0,0,.11-.9l.29-.5v-.57a.7.7,0,0,1,.23-.27c0-.06,0-.36.11-.9.82-2.92,1.59-4.28,2.29-4.08l1,.16q4,1.14,3.83,1.79Zm26.55,4.53a1.29,1.29,0,0,1-1.5,1l-3.46-.36c-1-.1-1.72-1.56-2.07-4.36-.34-.79-.73-1.86-1.17-3.2s-.94-3-1.49-4.93c-.31,0-.61-.69-.93-2-.17,0-.24-.18-.21-.47h-.15l-1.29,12.52a.75.75,0,0,0,.09.47,1.58,1.58,0,0,1-1.66,1.05l-3.73-.38c-.28-.07-.62-.44-1-1.12a14.83,14.83,0,0,0,.31-1.64l.45-4.33.21-.65a17.23,17.23,0,0,1,.09-3.7l.17-.19a.68.68,0,0,0-.11-.36c.22-1.22.37-2.18.44-2.87q.17-1.63.18-3.12l.51-2.19-.19-.92a10.27,10.27,0,0,0,.3-1.52l.11-1a.82.82,0,0,0-.1-.45A.84.84,0,0,0,126,239c.11-1.06.17-2.55.17-4.46.42-1.08,1-1.58,1.84-1.5,1.14.2,1.79.3,1.93.32l.84,0c1.59.17,2.45.85,2.6,2.06l3.66,11.93.14,0,.3-.09a.58.58,0,0,1-.11-.33c0-.05.08-.28.21-.67l-.12-.23a3.15,3.15,0,0,0,.41-1.41l0-.35c.08-.73.13-1.35.16-1.85s0-.88,0-1.14.15-.87.23-1.41.15-1.14.22-1.81l0-.44c0-.29.05-.61.06-1s0-.74,0-1.15a1.76,1.76,0,0,1,1.8-1.15l2.77.28a2.15,2.15,0,0,1,1.71,1Zm30.12-2.47a15.34,15.34,0,0,1-1.61.47,8.2,8.2,0,0,1-8.62-3,5.51,5.51,0,0,1-.68-1.9L161,256a1,1,0,0,0-.26-.51v-.68l-.29-1.31a17.26,17.26,0,0,0-.58-2,.71.71,0,0,0,.06-.37l-.18-.17a4.3,4.3,0,0,0-.08-1l-.07-.32q-.08-.33-.21-.3l0-.57-.54-2.5c-.17-.75-.39-1.54-.66-2.36a5.34,5.34,0,0,0-.15-1.32c-.05-.24-.23-.84-.54-1.82.22-3.16.72-4.83,1.48-5a9.77,9.77,0,0,1,5.64-3.5q4.23-.28,5.79.56a6.28,6.28,0,0,1,3.72,4.64l.5,2.27a1.35,1.35,0,0,1-1.09,1.49L170,242q-1.25.13-1.47-.93l-.07-.32a1.55,1.55,0,0,1,.09-.94q-.95-3.08-3.28-2.57c-1.22.46-1.74,1.07-1.58,1.81l3.67,16.84a1.79,1.79,0,0,0,2.27,1.32c1.6-.52,2.3-1.2,2.12-2l-.38-1.73a4.94,4.94,0,0,0-.36-1c.06-.93.64-1.51,1.75-1.75l2.31-.5c1.2-.17,1.87.06,2,.71l.47,2.17q1.21,5.58-5.39,8.56m25.6-8.87-9.57,4.11c-.84.36-1.52,0-2-1.2a12,12,0,0,1-.62-1.79l-.52-.86s-.33-.89-.92-2.51q-.37-.85-1.23-2.49c-.32-1-.63-1.83-.92-2.51a16,16,0,0,0-.83-1.58,23.18,23.18,0,0,0-1-2.7c-.16-.39-.31-.61-.44-.67a4.31,4.31,0,0,0-.26-1l0-.1A28.91,28.91,0,0,0,178,236.6a17,17,0,0,0-.79-2.2,4.15,4.15,0,0,0-.92-1.41,4.14,4.14,0,0,0-.26-1l-.57-1.32q-.42-1,1.38-2l.27-.12c.45-.19,1.06-.41,1.82-.65a.88.88,0,0,1,.35-.28c1-.28,1.61-.11,1.88.52l9.47,22.06a8.22,8.22,0,0,1,1.14-.13,1.34,1.34,0,0,0,.35-.28c.88-.29,1.53-.53,2-.71l2-1c.82-.19,1.35,0,1.58.53l1.05,2.45a1.38,1.38,0,0,1-.92,1.73m16.31-10.13a23.65,23.65,0,0,1-1.94,1.6,8.17,8.17,0,0,1-8.33.83,8.81,8.81,0,0,1-2.81-2.66,3.09,3.09,0,0,0-.36-1q-.41-.39-.78-.81c-.24-.28-.47-.57-.68-.87l-.44-.65a4.43,4.43,0,0,1-.57-1.09,7.53,7.53,0,0,1-.92-1.11l-.37-.55c-.71-1-1.48-2.27-2.32-3.67A4.43,4.43,0,0,1,194,232s-.1-.24-.25-.63c-.64-.77-1.09-1.36-1.36-1.76-.18-.25-.51-.83-1-1.74l-1.11-1.12a3.19,3.19,0,0,0-.38-.82.75.75,0,0,0-.37-.28c-.87-1.29-.51-2.47,1.1-3.56l1.38-.94c1.12-.52,1.77-.64,1.94-.38L206,238.62c1.16,1.71,2.4,2.13,3.7,1.24l.34-.22c.71-.76.9-1.39.58-1.87l-.12-.18a5.08,5.08,0,0,1-.76-1.37,13.66,13.66,0,0,1-1.06-1.3c-.6-.89-1.86-2.82-3.75-5.78-.6-.72-1-1.15-1.05-1.3a4.59,4.59,0,0,0-.51-1,3.73,3.73,0,0,0-.62-.66,11.8,11.8,0,0,0-.94-1.65l-.12-.17a2.83,2.83,0,0,0-.62-.67,2.92,2.92,0,0,0-.39-.82c-.4-.59-.94-1.29-1.61-2.11,0-.06-.16-.33-.39-.83a8.06,8.06,0,0,1-.87-1c-.53-.79-.07-1.68,1.39-2.68l1.15-.77c1.3-.89,2.18-1,2.64-.32l12,17.74q3.26,4.81-.94,9.76m19.37-17.28a13.35,13.35,0,0,1-1.79,2.35l-4.87,5.12a2,2,0,0,1-1.48-.05c-.73-.84-1.24-1.38-1.52-1.65q-.09-.09-.9-.66s0-.11,0-.18a4.33,4.33,0,0,1-.74-.5c-.94-.89-1.9-1.87-2.88-2.93-.73-.57-1.4-1.15-2-1.74l-.3-.49q-2-1.57-2.22-1.71a4.43,4.43,0,0,0-.62-.79l-1.53-1.45a3.25,3.25,0,0,1-.87-1.19l-4.44-3.86a5.62,5.62,0,0,0-1-1.1c-.12-.12-.56-.47-1.31-1-.53-.51-.31-1.38.66-2.63,1.12-1.07,2-1.91,2.57-2.53.36-.38,1-1.11,1.92-2.19a12.26,12.26,0,0,1,4.68-2.67,6.74,6.74,0,0,1,6.12,1.79l2.25,2.15a6.69,6.69,0,0,1,2.21,4.6,7.33,7.33,0,0,1,4.71,2l2.26,2.14q3.86,3.68,1.05,9.24M234,58.82q-18.24,31.59-19,32.36c-.61.64-1.43.55-2.46-.29l-2.87-2.73c-.74-.7-.52-1.87.64-3.5a.83.83,0,0,1,.25-1l-6.43-6.12q-3.06,2.44-4.36,1.22l-3.09-3a2,2,0,0,1-.27-2.09l7.23-4.48a82.31,82.31,0,0,1,7.3-4.84,15.33,15.33,0,0,1,3.29-2.23L229,52.62c1.11-.58,2-.55,2.65.08.07-.08.7.37,1.88,1.35,1.74,1.66,1.9,3.25.46,4.77m10.5,121.74h-2.68a2.31,2.31,0,0,1-1.35-2.3c.44-1.39.85-2.94,1.22-4.64s.74-3.55,1.09-5.57c.2,0,.52-1.12,1-3.37l-.2-2.09h-6.89a2.5,2.5,0,0,1-1.36-2.3q2.22-10.66,3.47-17.27c.83-4.41,1.34-7.47,1.51-9.18a3.27,3.27,0,0,1,2.91-1.58h5.17c1.63,0,2.72.47,3.27,1.39q0,.34-5.57,20.64a11.55,11.55,0,0,0,2.3.55h3.07a23.59,23.59,0,0,0,2.67-.19c1.67.19,2.51.77,2.51,1.76q-9.6,22.72-10.36,23.64a3,3,0,0,1-1.74.51"/><rect class="cls-1" x="246.04" y="165.93" width="0.2" height="0.36"/><rect class="cls-1" x="244.69" y="138.08" width="0.2" height="0.33"/><path class="cls-1" d="M248,137.53v-.69h-.76V137c0,.18.25.35.76.51"/><path class="cls-1" d="M246.41,139.32h.2v-.18c0-.18-.19-.36-.57-.55l-.19.37Z"/><path class="cls-1" d="M243.74,151.47q.39,0,.39-.36l-.95-.15-.2.33.36.18Z"/><rect class="cls-1" x="251.22" y="160.47" width="0.4" height="0.18"/><path class="cls-1" d="M245.09,136.65l-.4-.18V137c.27,0,.4-.12.4-.37"/><rect class="cls-1" x="245.65" y="159.23" width="0.4" height="0.18"/><path class="cls-1" d="M245.45,160.11h.2c.26,0,.39-.12.39-.37h-.95c0,.25.14.37.36.37"/><rect class="cls-1" x="245.65" y="142.29" width="0.2" height="0.36"/><path class="cls-1" d="M245.45,137.53c.27,0,.4-.11.4-.33h-.76a.34.34,0,0,0,.36.33"/><path class="cls-1" d="M245.45,158.35v-.7a.32.32,0,0,0-.36-.36l-.2.88.4.18Z"/><path class="cls-1" d="M244.13,152.17v.36h.37a.33.33,0,0,0-.37-.36"/><path class="cls-1" d="M242.78,153.05l.4.18.16-.33v-.18h-.16c-.27,0-.4.15-.4.33"/><path class="cls-1" d="M225.13,66.5l.1.09c.15-.15.48-.17,1-.07l-.59-.56Z"/><rect class="cls-1" x="220.57" y="68.9" width="0.15" height="0.51" transform="translate(18.62 181.64) rotate(-46.51)"/><path class="cls-1" d="M220.82,63.85l-.14-.35-.3.32c.16.15.31.17.44,0"/><path class="cls-1" d="M212.06,79.25l-.1-.09a1.18,1.18,0,0,1-.76.3l.24.24c.11.1.36.07.76-.1Z"/><polygon class="cls-1" points="212.95 85.25 213.2 85.48 213.31 85.37 213.06 85.14 212.95 85.25"/><path class="cls-1" d="M215.22,86a.28.28,0,0,0,.44,0l-.23-.22Z"/><path class="cls-1" d="M213.36,82l.32-.34-.35-.33c-.08.09-.07.31,0,.67"/><path class="cls-1" d="M213.39,80.73q-.16-.15-1,.09l-.19.21q-.17.16,0,.66a1.1,1.1,0,0,1,.76-.3Z"/><path class="cls-1" d="M213,82.81l-.12-.11-.21.22a.3.3,0,0,0,0,.46l.34-.11c.14-.15.13-.3,0-.46"/><rect class="cls-1" x="219.71" y="77.08" width="0.31" height="0.17" transform="translate(12.27 183) rotate(-46.35)"/><path class="cls-1" d="M217.33,78.27a.31.31,0,0,0,0,.46l.32-.34c.13-.14.11-.28-.05-.44Z"/><path class="cls-1" d="M220.06,67l-9.95,6.64.12.12.85,1.24.13.11c.47.46,1.46,1.25,3,2.39l1-1.08q4.22-6.81,4.53-8.08c.47-.66.63-1.07.46-1.22Z"/><rect class="cls-1" x="216.43" y="79.91" width="0.15" height="0.34" transform="translate(8.92 181.05) rotate(-46.24)"/><polygon class="cls-1" points="215.93 79 215.46 78.55 215.14 78.89 215.51 79.44 215.93 79"/><rect class="cls-1" x="216.65" y="80.99" width="0.31" height="0.17" transform="translate(8.5 182) rotate(-46.35)"/><rect class="cls-1" x="73.27" y="88.84" width="0.34" height="0.15" transform="translate(-41.43 99.16) rotate(-55.54)"/><path class="cls-1" d="M68,91.75l.19-.28c.09-.12,0-.37-.21-.73l-.32.19-.08.12a1.11,1.11,0,0,1,.42.7"/><polygon class="cls-1" points="67.28 87.5 66.77 87.15 66.4 87.68 66.78 87.94 67.28 87.5"/><rect class="cls-1" x="60.92" y="99.09" width="0.17" height="0.31" transform="translate(-55.34 93.35) rotate(-55.52)"/><path class="cls-1" d="M66.27,85.78l-.38-.26q-.23-.17-.42.12l.36.24a.3.3,0,0,0,.44-.1"/><rect class="cls-1" x="68.6" y="85.8" width="0.17" height="0.31" transform="translate(-41.05 93.93) rotate(-55.53)"/><rect class="cls-1" x="54.81" y="79.72" width="0.17" height="0.31" transform="matrix(0.57, -0.82, 0.82, 0.57, -42.02, 79.92)"/><polygon class="cls-1" points="54.71 79.64 54.2 79.29 54.1 79.43 54.61 79.78 54.71 79.64"/><path class="cls-1" d="M60.89,82.49a1,1,0,0,1-.29-.62l-.32.2-.1.14.62.42Z"/><rect class="cls-1" x="62.28" y="82.05" width="0.17" height="0.31" transform="translate(-40.7 87.1) rotate(-55.53)"/><rect class="cls-1" x="64.25" y="83.4" width="0.17" height="0.31" transform="translate(-40.96 89.31) rotate(-55.53)"/><polygon class="cls-1" points="67.9 86.31 67.78 86.23 67.58 86.51 67.71 86.59 67.9 86.31"/><path class="cls-1" d="M62.74,96.73l-.39.56a.32.32,0,0,0,.43-.12c.13-.19.11-.33,0-.44"/><rect class="cls-1" x="62.76" y="100.18" width="0.34" height="0.15" transform="translate(-55.34 95.37) rotate(-55.52)"/><path class="cls-1" d="M64.86,100.22l-.12-.09-.93-.47-.39.56a7.07,7.07,0,0,1,1.17.39Z"/><path class="cls-1" d="M63.63,98.34,63,97.92c-.14.45-.15.71,0,.8a.31.31,0,0,0,.45-.1Z"/><path class="cls-1" d="M61,97.14l.49.34c.12.08.35,0,.67-.16l.08-.12-.62-.42a1.07,1.07,0,0,1-.62.36"/><path class="cls-1" d="M62.06,100.07l-.19.28.25.18a.29.29,0,0,0-.06-.46"/><rect class="cls-1" x="66.23" y="92.15" width="0.31" height="0.62" transform="translate(-47.42 94.76) rotate(-55.48)"/><path class="cls-1" d="M69.43,89.35c.1.07.32,0,.65-.13L69.7,89Z"/><polygon class="cls-1" points="225.53 59.63 225.41 59.52 225.09 59.85 225.21 59.97 225.53 59.63"/><rect class="cls-1" x="66.2" y="94.84" width="0.51" height="0.31" transform="matrix(0.57, -0.82, 0.82, 0.57, -49.47, 96)"/><path class="cls-1" d="M68.88,89.39c-.09.12,0,.44.24,1l.24.16c.13.08.34,0,.65-.14a1.08,1.08,0,0,1-.42-.7Z"/><polygon class="cls-1" points="64.91 100.42 65.16 100.6 65.25 100.48 64.99 100.31 64.91 100.42"/><path class="cls-1" d="M65.14,95.6l.61.42L66,95.6l-.13-.08c-.42-.09-.68-.06-.77.08"/><polygon class="cls-1" points="64.15 102.3 64.78 102.74 64.96 102.48 64.25 102.16 64.15 102.3"/><rect class="cls-1" x="203.51" y="72.97" width="0.15" height="0.34" transform="translate(10.36 170.41) rotate(-46.48)"/><path class="cls-1" d="M203.91,72.31l-.25-.23-.21.22a.29.29,0,0,0,.46,0"/><path class="cls-1" d="M51,84.7l-.32.2.36.24c.13-.18.11-.33,0-.44"/><polygon class="cls-1" points="50.47 86.3 50.6 86.39 50.77 86.13 50.65 86.05 50.47 86.3"/><rect class="cls-1" x="202.9" y="75.16" width="0.31" height="0.14" transform="translate(8.02 169.32) rotate(-46.08)"/><polygon class="cls-1" points="200.85 74.58 201.07 74.8 201.5 74.14 201.38 74.03 200.85 74.58"/><path class="cls-1" d="M203,74.73l.34.33.11-.11.61-.84-.5-.47a6.06,6.06,0,0,1-.56,1.09"/><polygon class="cls-1" points="226.92 59.12 226.55 58.77 226.16 59.42 226.41 59.66 226.92 59.12"/><polygon class="cls-1" points="45.82 80.12 46.02 79.84 45.4 79.42 45.12 79.84 45.82 80.12"/><path class="cls-1" d="M43.64,79.62a1.48,1.48,0,0,0,.4-.35l.13-.69.69-.73.18-.26a.28.28,0,0,0-.06-.45l-.13-.09c-.16-.11-.3-.07-.43.12l-.56.82c.24.16.3.33.19.5l-.35,0c.06-.09.06-.16,0-.21-.44.64-.46,1.1,0,1.38"/><path class="cls-1" d="M42.66,78.15l-.18.26.23.16a.27.27,0,0,0-.05-.42"/><path class="cls-1" d="M53.05,79.91c-.17-.11-.24-.44-.23-1l-.46.68L53,80Z"/><path class="cls-1" d="M43.43,76.49l-.3.16-.1.14.49.34c.08-.12,0-.34-.09-.64"/><rect class="cls-1" x="46.19" y="80.69" width="0.17" height="0.46" transform="translate(-46.61 73.16) rotate(-55.46)"/><rect class="cls-1" x="48.28" y="83.4" width="0.17" height="0.31" transform="translate(-47.89 76.12) rotate(-55.52)"/><path class="cls-1" d="M52.53,84.12a.28.28,0,0,0-.44.1l-.2.28c-.09.19-.06.34.08.43Z"/><rect class="cls-1" x="47.92" y="81.88" width="0.17" height="0.44" transform="translate(-46.83 74.87) rotate(-55.33)"/><path class="cls-1" d="M46.05,80.07l.13.09a.14.14,0,0,0,.22,0,2.05,2.05,0,0,0,.53.77l.19-.28c-.41-.28-.56-.51-.44-.68s-.1-.63-.54-1.57a2.08,2.08,0,0,0-.72.5l.62.42c.25.18.25.44,0,.8"/><path class="cls-1" d="M47.52,82.7a1.4,1.4,0,0,1-.46-.15c-.13.46-.13.73,0,.82a.3.3,0,0,0,.42-.12l.19-.28c-.15-.1-.2-.2-.15-.27"/><path class="cls-1" d="M144.85,213.61a68.76,68.76,0,1,0-68.76-68.76,68.84,68.84,0,0,0,68.76,68.76m0-132.63A63.87,63.87,0,1,1,81,144.85,63.94,63.94,0,0,1,144.85,81"/><rect class="cls-1" x="113.94" y="253.06" width="0.11" height="0.29" transform="translate(-160.67 294.01) rotate(-74.21)"/><path class="cls-1" d="M113.79,257c0,.15,0,.24.19.29l.09-.33-.25-.07Z"/><polygon class="cls-1" points="114.44 255.24 114.69 255.31 114.73 255.2 114.47 255.13 114.44 255.24"/><polygon class="cls-1" points="106.41 230.92 106.15 230.81 106.1 230.91 106.36 231.03 106.41 230.92"/><polygon class="cls-1" points="116.81 239.75 116.67 239.71 116.61 239.91 116.75 239.95 116.81 239.75"/><path class="cls-1" d="M114.79,246.32l.24.19.39.11.12-.42-.25-.07c-.14,0-.3,0-.5.19"/><polygon class="cls-1" points="85.57 236.51 85.68 236.6 85.82 236.41 85.7 236.33 85.57 236.51"/><path class="cls-1" d="M111.18,231.51l.09-.21-.26-.12c-.05.14,0,.25.17.33"/><path class="cls-1" d="M106.69,231.3c-.17-.05-.28,0-.33.08s0,.27.23.48l.13.06.14-.31c.06-.13,0-.23-.17-.31"/><path class="cls-1" d="M115.79,247.42a1.93,1.93,0,0,1,.84.12l0-.11a2.59,2.59,0,0,1-.78-.32Z"/><path class="cls-1" d="M110.11,229.18l-.1.21.24.1c.07-.13,0-.24-.14-.31"/><path class="cls-1" d="M108.44,230.5l0,.1c0,.24,0,.37.11.41a1.34,1.34,0,0,1,.43.09c0-.11,0-.27-.25-.49Z"/><polygon class="cls-1" points="116.45 246.58 116.18 246.5 116.15 246.59 116.43 246.67 116.45 246.58"/><polygon class="cls-1" points="141.46 237.49 141.2 237.46 141.18 237.67 141.44 237.69 141.46 237.49"/><path class="cls-1" d="M120.1,234.78l-.09.32.25.07,0-.11c0-.14,0-.23-.19-.28"/><path class="cls-1" d="M139.94,246.85a3.4,3.4,0,0,0-.38.87l.28.14.7,0v-.12c-.32,0-.47-.31-.47-.83Z"/><path class="cls-1" d="M135.63,246.52c-.19,0-.3.07-.31.2l.29,0Z"/><rect class="cls-1" x="138.28" y="247.39" width="0.12" height="0.29" transform="translate(-122.09 359.72) rotate(-84.11)"/><path class="cls-1" d="M140.16,246.09a1,1,0,0,1-.22-.58l-.29,0c-.18,0-.27.07-.28.2l.64.51c0-.08.06-.11.15-.1"/><rect class="cls-1" x="117.71" y="239.95" width="0.21" height="0.14" transform="translate(-145.13 288.53) rotate(-74.31)"/><path class="cls-1" d="M119,234.59c-.18,0-.28,0-.31.13l.33.33.27.08a.63.63,0,0,1-.15-.5Z"/><path class="cls-1" d="M118.1,236.76l-.28-.08,0,.11q-.06.68.21.75l.14,0,0-.11a.91.91,0,0,1-.07-.71"/><path class="cls-1" d="M117.51,243.4l-.14,0c-.28,0-.47.18-.57.53l-.07.22.53.15.29-.49a.65.65,0,0,1,0-.37"/><path class="cls-1" d="M118.72,240.17l-.19.16.39.11c0-.13,0-.22-.2-.27"/><polygon class="cls-1" points="118.39 237.75 118.33 237.97 118.46 238.01 118.53 237.79 118.39 237.75"/><path class="cls-1" d="M120.61,234.47l-.14,0,0,.1c0,.11.07.26.32.44l.06-.22c0-.13,0-.22-.22-.28"/><path class="cls-1" d="M88.21,227.87l.1.07c.09-.12.35-.16.79-.11l-.56-.41Z"/><path class="cls-1" d="M90.27,221.42l-.68-.49c-.12.18-.26.21-.4.11l0-.27c.07.06.13.06.17,0-.53-.38-.9-.42-1.12-.13a1.48,1.48,0,0,0,.29.33l.57.15.61.59.22.15c.15.11.27.11.36,0l.07-.09c.08-.11.05-.23-.11-.34"/><path class="cls-1" d="M105.29,230.67c-.17,0-.27,0-.32.08l0,.11.85.51c0-.11-.07-.32-.34-.64Z"/><polygon class="cls-1" points="88.46 229.16 88.58 229.24 88.84 228.87 88.73 228.78 88.46 229.16"/><path class="cls-1" d="M102,227.47a.25.25,0,0,0,.17.33l.13-.29-.26-.12Z"/><path class="cls-1" d="M90.53,220.36l-.25.36c.1.07.27.06.52,0l-.15-.24Z"/><path class="cls-1" d="M86.66,233.32l-.32.45.11.09c.07-.1.23-.16.49-.19l-.16-.26Z"/><polygon class="cls-1" points="88.27 229.42 88.39 229.5 88.52 229.32 88.4 229.23 88.27 229.42"/><rect class="cls-1" x="86.62" y="234.95" width="0.23" height="0.14" transform="translate(-154.71 168.21) rotate(-54.28)"/><polygon class="cls-1" points="85.24 228.2 85.12 228.11 84.93 228.38 85.05 228.46 85.24 228.2"/><path class="cls-1" d="M96.8,251.21l0,.1.5.23-.05-.25a1.7,1.7,0,0,1-.41-.08"/><path class="cls-1" d="M103.07,238.32l.13.06c.16.07.27,0,.33-.1a.1.1,0,0,1-.06-.15q.24.1.33-.09l.18-.4c-.19-.08-.49.14-.91.68"/><polygon class="cls-1" points="102.84 239.18 103.08 239.29 103.12 239.2 102.88 239.09 102.84 239.18"/><path class="cls-1" d="M104.13,227.21c.06-.13,0-.23-.17-.31,0,.11-.25.22-.6.34l.63.29Z"/><path class="cls-1" d="M104.54,229l0-.27c-.46-.1-.72-.09-.77,0,.26.12.3.38.11.78l.24.11.37-.46Z"/><path class="cls-1" d="M104.85,233.39a.23.23,0,0,0,.15.31l.13-.29-.24-.11Z"/><polygon class="cls-1" points="104.11 233.3 104.63 233.53 104.68 233.43 104.16 233.19 104.11 233.3"/><path class="cls-1" d="M102.17,238.27l-.14.32.13.06c.18.07.3,0,.36-.1l.13-.29-.13-.06c-.18,0-.3,0-.35.07"/><path class="cls-1" d="M100.3,241.09l-.36.45,0,.1c.12.06.29,0,.51-.14a1,1,0,0,1,0-.35Z"/><path class="cls-1" d="M106.42,229.23l0-.11c-.8-.25-1.22-.33-1.27-.21l0,.1.11.05c.61.28,1,.33,1.16.17"/><rect class="cls-1" x="99.42" y="242.17" width="0.21" height="0.57" transform="translate(-162.39 233.11) rotate(-65.64)"/><path class="cls-1" d="M99.11,244.71l0,.1.53.24.14-.32a1.11,1.11,0,0,1-.62,0"/><polygon class="cls-1" points="106.56 229.9 106.79 229.4 106.68 229.35 106.45 229.85 106.56 229.9"/><path class="cls-1" d="M107.29,230a1.35,1.35,0,0,1,0,.62c-.09,0-.15,0-.18.05l.39.17,0-.27c.17.08.28.06.34-.07l.18-.4-.47-.34a.61.61,0,0,0-.26.24"/><path class="cls-1" d="M129,250.66l.45-.4,0-.34a8.94,8.94,0,0,0-1.12.12v.11c.17,0,.39.19.64.51"/><path class="cls-1" d="M128.31,253.5l.7.19.06-.57a1.27,1.27,0,0,1-.74.15Z"/><path class="cls-1" d="M128.82,251.31l-.38-.27a1.18,1.18,0,0,1-.44.07v.11a3.09,3.09,0,0,1,1.07.55c0-.14.16-.19.43-.16l0-.34-.27.08Z"/><path class="cls-1" d="M129.88,250.63l.14,0c.14,0,.29-.12.45-.4l-.55-.06Z"/><polygon class="cls-1" points="132.25 250.65 132.39 250.66 132.42 250.45 132.27 250.44 132.25 250.65"/><path class="cls-1" d="M131,249.17c.19,0,.29,0,.31-.18v-.11l-.29,0Z"/><path class="cls-1" d="M128,249.54l.17-.2v-.11l-.43,0v.12a.26.26,0,0,0,.26.24"/><rect class="cls-1" x="126.16" y="260.39" width="0.21" height="0.14" transform="translate(-145.54 359.98) rotate(-84.25)"/><path class="cls-1" d="M127.07,260.09c0,.16-.16.22-.45.19v.11c0,.09.26.27.81.53,0-.08,0-.11.13-.1-.18-.47-.33-.71-.48-.73"/><path class="cls-1" d="M126.81,255.92l0-.23c0-.14-.07-.22-.26-.24h-.14l0,.21c0,.15.08.24.26.26Z"/><polygon class="cls-1" points="127.39 247.57 127.67 247.6 127.68 247.49 127.4 247.46 127.39 247.57"/><path class="cls-1" d="M127.83,254.12l0,.21.29,0q0-.21-.27-.24"/><path class="cls-1" d="M140.49,256.43c0-.1-.12-.22-.38-.36l-.42-.05c-.19,0-.3.08-.31.2l0,.21,1.11.12Z"/><polygon class="cls-1" points="139.75 258.16 139.79 257.82 139.65 257.8 139.61 258.15 139.75 258.16"/><path class="cls-1" d="M133.78,250.71l-.06.55h.15q0-.17.33-.42l-.28-.13Z"/><path class="cls-1" d="M137.21,254.19l0-.44-.41,0c-.14,0-.29.08-.46.28l.28.15Z"/><path class="cls-1" d="M140.09,250.78l-.61.52c.19,0,.27.13.25.35l.41,0c0-.29.23-.42.61-.38,0-.09-.24-.26-.66-.53"/><rect class="cls-1" x="135.76" y="250.17" width="0.21" height="0.14" transform="translate(-126.67 360.5) rotate(-84.28)"/><path class="cls-1" d="M127.15,259.32l.17-.2a.73.73,0,0,1-.11-.36c-.19,0-.29.08-.31.2v.12a.26.26,0,0,0,.26.24"/><path class="cls-1" d="M134.81,253l0-.21-.28,0a.25.25,0,0,0,.26.24"/><path class="cls-1" d="M134.24,251.87c0,.15.08.24.26.26l.4,0,0-.23a1.88,1.88,0,0,1-.67-.3Z"/><path class="cls-1" d="M134.92,250.6l-.17.21a.27.27,0,0,0,.27.24l.16-.2c0-.15-.07-.24-.26-.25"/><path class="cls-1" d="M129.63,242.08v.11c.11.32.24.49.38.5l.55.06,0-.34c0-.15-.07-.24-.26-.26Z"/><path class="cls-1" d="M128.93,244.93c.18,0,.25.14.23.36l.28,0q.28,0,.36-.63l-.54-.4h-.12a1.09,1.09,0,0,1-.21.65"/><path class="cls-1" d="M130.12,242.92a1.22,1.22,0,0,0-.41-.16c-.24,0-.51.32-.81,1.05H129a.88.88,0,0,0,1.08-.9"/><rect class="cls-1" x="140.25" y="250.18" width="0.34" height="0.29" transform="translate(-123.26 363.67) rotate(-83.97)"/><path class="cls-1" d="M131.53,241.39v-.11c0-.15-.07-.24-.26-.26l-.26,0c0,.37-.2.54-.49.51q0-.21-.24-.24a1.63,1.63,0,0,1-.58,0l0,.23a1.16,1.16,0,0,1,.67.3l.28,0c.58-.24.88-.39.89-.47"/><path class="cls-1" d="M135.6,248.19h.14a3.07,3.07,0,0,1,.08-.35c0-.14.08-.31.13-.51l-.38-.27a1.25,1.25,0,0,0-.35.64v.11c0,.1.12.22.39.37"/><polygon class="cls-1" points="132.84 243.54 132.89 243.09 132.21 242.92 132.3 243.49 132.84 243.54"/><polygon class="cls-1" points="133.66 243.74 133.4 243.72 133.39 243.81 133.65 243.84 133.66 243.74"/><polygon class="cls-1" points="135.08 246.47 134.94 246.45 134.92 246.68 135.06 246.69 135.08 246.47"/><path class="cls-1" d="M133.61,247a1.15,1.15,0,0,1-.53-.17l-.05.44c.38-.06.57-.15.58-.27"/><rect class="cls-1" x="132.74" y="245.24" width="0.12" height="0.29" transform="translate(-124.9 352.33) rotate(-84.12)"/><path class="cls-1" d="M132.58,247.44l.29,0c0-.15-.07-.23-.26-.25Z"/><polygon class="cls-1" points="129.96 240.33 129.77 240.75 130.31 241.15 130.45 240.94 130.5 240.38 130.23 240.47 129.96 240.33"/><rect class="cls-1" x="128.6" y="241.28" width="0.23" height="0.29" transform="translate(-124.65 344.67) rotate(-84.11)"/><path class="cls-1" d="M128.82,239.08l0-.33-.26,0v.11a.24.24,0,0,0,.24.24"/><path class="cls-1" d="M129.19,236.89A1.73,1.73,0,0,1,129,236l-.29,0v.11l.06.8Z"/><path class="cls-1" d="M129.22,242.15l0-.23c-.49.11-.75.34-.79.71l.57.06Z"/><path class="cls-1" d="M127.06,252.14l0,.21.29,0c0-.14-.07-.22-.26-.24"/><polygon class="cls-1" points="128.15 244.4 128 244.39 127.96 244.82 128.1 244.84 128.15 244.4"/><path class="cls-1" d="M131.76,239.17l0-.23h-.14c-.13,0-.27.08-.44.3l0,.21h.14c.13,0,.27-.08.44-.28"/><path class="cls-1" d="M129.47,235.57c-.2,0-.3.07-.31.18l.29,0Z"/><path class="cls-1" d="M131.57,239.59c-.18,0-.27.08-.28.2l0,.12a.24.24,0,0,0,.24.23l.15,0q.28,0,.3-.18v-.12c0-.15-.07-.23-.26-.25Z"/><path class="cls-1" d="M129,237.2c.09.38.21.57.37.59l1.12.12-.25-.36v-.11a.84.84,0,0,1,.73-.37V237c-.17,0-.25-.06-.25-.14l-.29.08a1.19,1.19,0,0,0-.42-.15l-.47.62-.27-.15Z"/><rect class="cls-1" x="129.5" y="238.98" width="0.32" height="0.26" transform="translate(-121.36 343.87) rotate(-84.18)"/><path class="cls-1" d="M127.2,254.73l.14,0,0-.23-.4,0c0,.15.08.23.24.25"/><path class="cls-1" d="M63.74,212.79c.11-.1.11-.21,0-.34l-.19-.22-.32.3.19.21c.11.13.22.15.33,0"/><path class="cls-1" d="M62.78,214c.34-.17.54-.23.6-.15l.08-.27a.51.51,0,0,0,.33-.11l-.19-.21q-.87.4-.93.45Z"/><path class="cls-1" d="M68,207.14c-.15-.13-.26-.15-.35-.08l.11.29Z"/><path class="cls-1" d="M67.87,208.53a.53.53,0,0,1,.14-.32l-.1-.11a1.49,1.49,0,0,1-.7-.3L67,208l.46.51c.13.14.25.16.37.06"/><rect class="cls-1" x="62.52" y="212.6" width="0.44" height="0.14" transform="translate(-126.28 96.76) rotate(-42.05)"/><path class="cls-1" d="M62.91,211.87l-.19-.21-.08.06a.25.25,0,0,0,0,.37Z"/><polygon class="cls-1" points="70.06 205.62 69.96 205.52 69.79 205.67 69.89 205.78 70.06 205.62"/><rect class="cls-1" x="70.81" y="205.3" width="0.11" height="0.29" transform="translate(-119.1 99.89) rotate(-41.91)"/><path class="cls-1" d="M71.82,204.58l-.1-.1-.17.15.29.32c.11-.1.1-.23,0-.37"/><path class="cls-1" d="M70,207.36c-.14-.11-.25-.12-.35,0l.09.27Z"/><path class="cls-1" d="M72.71,203.58c.12-.1.12-.22,0-.35l-.19-.21-.33.49.27.3Z"/><rect class="cls-1" x="60.85" y="216.64" width="0.23" height="0.14" transform="translate(-129.39 96.53) rotate(-42.02)"/><polygon class="cls-1" points="70.38 206.81 70.2 206.62 70.12 206.69 70.29 206.89 70.38 206.81"/><path class="cls-1" d="M67.34,215.94q1.32,1.45,3.13-.18c1.09-1,2-1.81,2.86-2.48s1.5-1.2,2-1.58a2.6,2.6,0,0,0-.27-3.13l-1.22-1.35q-.19-.16-.33-.06L66,214l.59,1.14a2.23,2.23,0,0,0,.36.25Z"/><path class="cls-1" d="M66.06,210.35l-.26.23.28.3c.08-.08.08-.25,0-.53"/><rect class="cls-1" x="65.61" y="208.55" width="0.32" height="0.14" transform="translate(-122.76 97.71) rotate(-42.03)"/><path class="cls-1" d="M72.4,205.57a1.29,1.29,0,0,1,.28.48,1.9,1.9,0,0,1,.87-.2l-.11-.29-.09-.11c-.07-.07-.36,0-.87,0Z"/><path class="cls-1" d="M68.43,218.14a.25.25,0,0,0,0,.37h.43l-.38-.43Z"/><polygon class="cls-1" points="65.32 211.21 65.5 211.41 65.58 211.33 65.4 211.13 65.32 211.21"/><path class="cls-1" d="M66.89,217.29c-.08.06-.06.24,0,.53l.08.09.41-.37-.36-.41Z"/><rect class="cls-1" x="64.45" y="215.19" width="0.11" height="0.41" transform="translate(-127.66 98.66) rotate(-42.05)"/><polygon class="cls-1" points="64.05 210.46 63.96 210.53 64.16 210.75 64.24 210.67 64.05 210.46"/><path class="cls-1" d="M65,211.32l.18.2.15-.15c-.13-.11-.24-.13-.33-.05"/><polygon class="cls-1" points="60.76 213.8 60.86 214.07 61.34 214.61 61.4 214.36 61.02 213.77 60.76 213.8"/><path class="cls-1" d="M69,219.13l.1.11.17-.16-.29-.32a.25.25,0,0,0,0,.37"/><path class="cls-1" d="M64.56,213c.1-.09.09-.21,0-.35l-.19-.22-.07.07a.24.24,0,0,0,0,.36l.19.22Z"/><path class="cls-1" d="M56.91,218.2l-.17.16.29.32c.12-.11.11-.23,0-.37Z"/><rect class="cls-1" x="56.16" y="220.2" width="0.11" height="0.29" transform="translate(-132.77 93.87) rotate(-41.9)"/><path class="cls-1" d="M55.46,218.58l-.08.26H55l-.17.15a2.32,2.32,0,0,1,.92.68l.16-.14a1.38,1.38,0,0,1-.23-.76Z"/><polygon class="cls-1" points="59.55 215.45 59.25 214.97 59.09 215.12 59.46 215.52 59.55 215.45"/><polygon class="cls-1" points="58.69 217.18 58.87 217.38 58.95 217.3 58.78 217.1 58.69 217.18"/><path class="cls-1" d="M77.13,207.31c.11-.1.11-.22,0-.36l-.1-.11-.08.08c-.09.07-.08.26,0,.55Z"/><polygon class="cls-1" points="78.88 213.42 78.7 213.22 78.62 213.3 78.79 213.5 78.88 213.42"/><polygon class="cls-1" points="77.76 212.18 77.86 212.28 78.1 212.07 78 211.96 77.76 212.18"/><polygon class="cls-1" points="59.48 215.89 59.16 216.18 59.35 216.4 59.67 216.1 59.48 215.89"/><rect class="cls-1" x="77.29" y="208.84" width="0.11" height="0.29" transform="translate(-120.52 106.49) rotate(-42.31)"/><polygon class="cls-1" points="77.98 211.43 78.31 211.13 78.12 210.92 77.7 211.11 77.98 211.43"/><path class="cls-1" d="M78,208.24c.12-.11.11-.22,0-.35l-.34.3c.11.13.23.15.34.05"/><polygon class="cls-1" points="71.5 219.72 71.58 219.81 71.75 219.65 71.67 219.57 71.5 219.72"/><path class="cls-1" d="M74.85,204.29l-.1-.45-.27,0-.07.06a.24.24,0,0,0,0,.35Z"/><path class="cls-1" d="M75.78,215.66l.1.11.08-.08a.68.68,0,0,1,.16-.33q-.21-.2-.36-.06a.25.25,0,0,0,0,.36"/><rect class="cls-1" x="75.01" y="206.66" width="0.32" height="0.14" transform="translate(-119.57 104.44) rotate(-42.31)"/><path class="cls-1" d="M74.42,206a.83.83,0,0,1,.16-.33,2,2,0,0,1-.55-.44l-.08.08c-.08.06,0,.33.14.8a.53.53,0,0,0,.33-.11"/><polygon class="cls-1" points="59.65 217.25 59.83 217.44 59.91 217.37 59.74 217.17 59.65 217.25"/><polygon class="cls-1" points="73.75 203.22 73.66 203.12 73.4 203.35 73.5 203.45 73.75 203.22"/><polygon class="cls-1" points="74.2 206.58 74.38 206.42 74.28 206.32 74.11 206.47 74.2 206.58"/><path class="cls-1" d="M73.31,204.75l.08-.08c.09-.07.08-.31,0-.71l-.25.23a.24.24,0,0,0,0,.35Z"/><path class="cls-1" d="M76.72,215.36l-.17-.19-.17.15c.11.13.23.15.34,0"/><path class="cls-1" d="M72,218.29l-.33.3.1.1c.13.15.24.17.35.08s.1-.23,0-.37Z"/><rect class="cls-1" x="73.12" y="217.74" width="0.34" height="0.14" transform="translate(-126.96 105.07) rotate(-42.02)"/><path class="cls-1" d="M72.42,217.92q.19.21.36.06l.09-.08-.19-.21Z"/><polygon class="cls-1" points="82.85 238.11 82.41 237.79 82.21 238.07 82.59 238.48 82.85 238.11"/><path class="cls-1" d="M80.42,228.68l.23.17.12-.18c-.17-.09-.29-.08-.35,0"/><rect class="cls-1" x="79.78" y="229.83" width="0.12" height="0.29" transform="translate(-153.21 159.58) rotate(-54.05)"/><polygon class="cls-1" points="81.89 228.8 81.96 228.71 81.72 228.54 81.66 228.63 81.89 228.8"/><path class="cls-1" d="M79.72,238.46a.84.84,0,0,1-.56.29l.23.16c.11.08.3,0,.59-.12l-.17-.26Z"/><path class="cls-1" d="M85.43,223.4l.24.16c.08-.11.15-.14.21-.1a1.19,1.19,0,0,1,.11-.35c-.38-.13-.6-.15-.67-.05a.27.27,0,0,0,.11.34"/><rect class="cls-1" x="78.31" y="237.34" width="0.46" height="0.26" transform="translate(-160.13 162.64) rotate(-54.29)"/><path class="cls-1" d="M80.75,228l.06-.09c-.15-.08-.27-.07-.34,0l-.06.08c.14.1.26.1.34,0"/><path class="cls-1" d="M84.36,226.06l-.16-.26-.19.26c.15.12.27.12.35,0"/><polygon class="cls-1" points="85.34 224.01 85.22 223.93 85.09 224.11 85.21 224.2 85.34 224.01"/><rect class="cls-1" x="83.07" y="225.51" width="0.11" height="0.26" transform="translate(-148.76 161.96) rotate(-54.42)"/><path class="cls-1" d="M82,228.18l-.23-.17-.12.17.46.34c.08-.11,0-.23-.11-.34"/><polygon class="cls-1" points="78.16 230.63 78.04 230.54 77.92 230.71 78.03 230.8 78.16 230.63"/><path class="cls-1" d="M84,237.2l-.19.27c-.08.13,0,.25.1.35l.2-.28c.08-.11,0-.23-.11-.34"/><polygon class="cls-1" points="83.75 239.72 83.87 239.81 84 239.62 83.89 239.54 83.75 239.72"/><polygon class="cls-1" points="83.63 238.96 83.4 238.79 83.33 238.88 83.56 239.05 83.63 238.96"/><path class="cls-1" d="M83.38,243.58c.15.1.26.09.35,0l-.21-.15Z"/><rect class="cls-1" x="84.55" y="227.83" width="0.21" height="0.14" transform="translate(-149.69 163.17) rotate(-54.18)"/><path class="cls-1" d="M84.26,228.58l-6.88,5.73.12.08.87.92.12.08q.67.5,2.73,1.68l.65-.89q2.28-5.53,2.33-6.54c.27-.54.33-.87.17-1Z"/><polygon class="cls-1" points="69.7 219.25 69.8 219.35 69.97 219.2 69.88 219.09 69.7 219.25"/><polygon class="cls-1" points="84.86 230.11 85.2 230.36 85.27 230.27 84.92 230.02 84.86 230.11"/><path class="cls-1" d="M81.14,240c0,.07,0,.24.13.51l.2-.28Z"/><path class="cls-1" d="M81.1,239.6c-.1-.07-.36,0-.77.13l-.12.17c-.07.09,0,.27.13.52a.72.72,0,0,1,.55-.28Z"/><rect class="cls-1" x="81.56" y="243.03" width="0.11" height="0.29" transform="translate(-163.14 166.43) rotate(-54.04)"/><path class="cls-1" d="M81.12,241.25l-.11-.09-.14.19a.25.25,0,0,0,.1.35l.25-.1c.09-.13.06-.24-.1-.35"/><polygon class="cls-1" points="71.91 235.99 72 236.06 72.14 235.87 72.04 235.8 71.91 235.99"/><polygon class="cls-1" points="86.53 223.79 86.42 223.7 86.23 223.97 86.34 224.05 86.53 223.79"/><path class="cls-1" d="M72.24,233.61l-.24-.17-.13.19c.16.11.28.1.37,0"/><rect class="cls-1" x="72.05" y="234.13" width="0.11" height="0.29" transform="translate(-160.02 155.53) rotate(-54.15)"/><path class="cls-1" d="M73,235a1,1,0,0,1,.27.6l-.25.1-.06.1.33.23.06-.09a.57.57,0,0,1,.08-.35l.11.09a.92.92,0,0,1,.21-.53l-.62-.33Z"/><polygon class="cls-1" points="72.89 232.71 72.75 232.9 72.87 232.98 73 232.8 72.89 232.71"/><path class="cls-1" d="M71.88,235.54l.33.24.06-.09.35-.69-.46-.34a4.15,4.15,0,0,1-.28.88"/><path class="cls-1" d="M74.57,233.93l.32-.45a1,1,0,0,1-.31-.51l-.25.36c-.07.09,0,.27.14.53Z"/><path class="cls-1" d="M71.09,218.93l-.1-.26-.29-.32a.77.77,0,0,1-.42.19l.19.21c.33.19.53.25.62.18"/><polygon class="cls-1" points="70.16 235.55 70.37 235.71 70.61 235.17 70.5 235.09 70.16 235.55"/><polygon class="cls-1" points="75.36 231.89 75.03 231.65 74.9 231.84 75.23 232.07 75.36 231.89"/><path class="cls-1" d="M75.43,231.11l.09.07.19-.27-.33-.23-.06.09a.26.26,0,0,0,.11.34"/><path class="cls-1" d="M73.36,234.42c-.08.13,0,.25.1.35l.23.17.32-.45c-.36-.14-.58-.16-.65-.07"/><polygon class="cls-1" points="76.22 233.07 76.1 233.24 76.21 233.32 76.33 233.15 76.22 233.07"/><path class="cls-1" d="M74.73,235.13l-.21-.15-.24.53.12.08c.15.12.27.11.36,0l.07-.1c.09-.12.06-.24-.1-.35"/><rect class="cls-1" x="76.37" y="237.14" width="0.23" height="0.43" transform="translate(-160.76 160.52) rotate(-54.19)"/><polygon class="cls-1" points="88.48 222.03 88.13 221.78 87.92 222.31 88.15 222.48 88.48 222.03"/><rect class="cls-1" x="87.12" y="222.54" width="0.34" height="0.14" transform="translate(-144.01 161.96) rotate(-53.89)"/><path class="cls-1" d="M87.34,223.12l.23.17c.22-.3.39-.4.54-.3s.51,0,1.26-.31a2,2,0,0,0-.43-.6l-.33.45c-.13.19-.34.17-.64,0l-.07.1c0,.06,0,.11,0,.17a1.46,1.46,0,0,0-.61.36"/><path class="cls-1" d="M89.42,220l-.21-.15-.12.17c.14.1.25.1.33,0"/><path class="cls-1" d="M74.61,234.36c.16.11.27.11.36,0L74.5,234a.27.27,0,0,0,.11.34"/><polygon class="cls-1" points="75.89 233.52 76.13 233.69 76.19 233.59 75.96 233.43 75.89 233.52"/><path class="cls-1" d="M75.63,236.74,76,237l.07-.09c0-.32,0-.52-.1-.61Z"/><path class="cls-1" d="M75.82,235.79l-.12-.08q-.26-.14-.36,0l.35.25Z"/><path class="cls-1" d="M75.12,233.9l.41.86-.12.17c.16.12.42,0,.77-.38L76,234.3a1.79,1.79,0,0,1-.92-.4"/><rect class="cls-1" x="213.18" y="236.71" width="0.41" height="0.11" transform="translate(-96 160.14) rotate(-34.06)"/><path class="cls-1" d="M225,215.22l.09-.09-.17-.15-.28.29a.24.24,0,0,0,.36-.05"/><path class="cls-1" d="M225.67,214.53l-.23-.23-.18.19.07.07a.23.23,0,0,0,.34,0"/><rect class="cls-1" x="224.58" y="213.83" width="0.55" height="0.21" transform="translate(-85.11 229.66) rotate(-46.48)"/><path class="cls-1" d="M221.84,216.62l.25.23c.25-.52.34-.83.24-.92a2,2,0,0,1-.54.44Z"/><polygon class="cls-1" points="224.26 212.79 224.1 212.64 224 212.74 224.16 212.9 224.26 212.79"/><polygon class="cls-1" points="213.96 235.77 214.08 235.94 214.2 235.87 214.08 235.69 213.96 235.77"/><path class="cls-1" d="M231.6,219.57l-.08-.08c-.1-.09-.22-.07-.35.07l.08.08a.26.26,0,0,0,.35-.07"/><rect class="cls-1" x="230.58" y="218.85" width="0.14" height="0.23" transform="translate(-87.04 233.77) rotate(-46.18)"/><polygon class="cls-1" points="222.17 213.86 221.97 214.07 222.05 214.15 222.25 213.94 222.17 213.86"/><rect class="cls-1" x="228.96" y="216.59" width="0.29" height="0.1" transform="translate(-85.82 232.24) rotate(-46.23)"/><rect class="cls-1" x="227.54" y="215.32" width="0.12" height="0.32" transform="translate(-85.4 231.85) rotate(-46.43)"/><path class="cls-1" d="M227.85,217.56a1,1,0,0,1-.38-.57l-.28.3.48.46Z"/><path class="cls-1" d="M224.52,213.8l-.15-.15c-.11.16-.13.28-.05.36Z"/><path class="cls-1" d="M220.66,210.12q-.16-.15-.36.06l.06.26Z"/><path class="cls-1" d="M221,215.59c.09-.09.1-.26.05-.52l-.17-.15-.28.29Z"/><path class="cls-1" d="M222.51,217.05c-.11-.1-.23-.09-.37,0l.07.26Z"/><polygon class="cls-1" points="219.81 207.8 219.73 207.72 219.55 207.91 219.63 207.99 219.81 207.8"/><rect class="cls-1" x="219.45" y="208.13" width="0.29" height="0.44" transform="translate(-82.7 224.13) rotate(-46.48)"/><rect class="cls-1" x="221.53" y="217.72" width="0.14" height="0.23" transform="translate(-88.98 227.83) rotate(-46.35)"/><path class="cls-1" d="M220.88,216.66l.18-.19c.13-.14.15-.26.05-.36l-.2.21c-.1.15-.11.26,0,.34"/><path class="cls-1" d="M223.07,216.63l.08-.09c.18-.35.23-.57.14-.65l-.29.31c-.1.15-.11.26,0,.35Z"/><path class="cls-1" d="M223.94,215.55a.88.88,0,0,1-.5-.28l-.2.21.4.38Z"/><path class="cls-1" d="M222.92,215.17c-.09-.08-.33,0-.73.27l.31.49.2-.21a1.14,1.14,0,0,1,.22-.55"/><path class="cls-1" d="M223,213.15l.39-.42a.94.94,0,0,1-.15-.5l-.28.29c-.1.1-.11.28-.05.55Z"/><path class="cls-1" d="M222,212.31a1.27,1.27,0,0,0,.47-.32l-.07-.26a2.39,2.39,0,0,1-.76.63l.25.24Z"/><path class="cls-1" d="M222.3,214.19l.3.49.09.07.81-.18c-.07.07-.08.13,0,.17l.3-.31-.49-.46c-.07-.07-.4,0-1,.22"/><polygon class="cls-1" points="199.67 235 199.8 235.19 199.92 235.1 199.79 234.91 199.67 235"/><path class="cls-1" d="M199.89,234.85a.24.24,0,0,0,.36,0l.12-.08-.13-.19Z"/><path class="cls-1" d="M200.61,236.64a.25.25,0,0,0,.37,0l-.26-.38c-.14.13-.18.24-.11.35"/><path class="cls-1" d="M201.73,236.28c-.15.13-.18.24-.11.35l.12-.08c.14-.1.17-.21.08-.34Z"/><rect class="cls-1" x="201.5" y="236.98" width="0.14" height="0.44" transform="translate(-98.42 154.13) rotate(-34.16)"/><rect class="cls-1" x="202.56" y="236.91" width="0.14" height="0.21" transform="translate(-98.22 155) rotate(-34.22)"/><path class="cls-1" d="M202,237.18l.07.1a.26.26,0,0,0,.35,0l-.18-.27Z"/><path class="cls-1" d="M198.92,232.15c-.08-.12-.2-.13-.36,0s-.18.24-.11.35l.05.07.48-.32Z"/><path class="cls-1" d="M197.81,231l-.07-.09c-.05-.09-.23-.1-.53,0l.24.36Z"/><path class="cls-1" d="M219.28,206.9l-.09-.08L219,207l.25.23q.19-.21,0-.36"/><path class="cls-1" d="M213.33,237.82l-.43-.13-.32.5a.78.78,0,0,1,.36.28l.34-.22c.16-.11.19-.23.11-.36Z"/><path class="cls-1" d="M197.61,232c-.12.08-.19.31-.21.67l.07.1.21-.15c.12-.08.19-.3.21-.67l-.06-.1Z"/><path class="cls-1" d="M202.86,238.46c-.13.09-.2.32-.2.69l.46-.31Z"/><path class="cls-1" d="M199.36,233.06a1.34,1.34,0,0,1-.44.58l.12.17c.39-.27.56-.52.51-.74l-.07-.09Z"/><polygon class="cls-1" points="197.55 230.39 197.37 230.12 197.25 230.2 197.43 230.47 197.55 230.39"/><path class="cls-1" d="M211.15,233.11l.13.19.23-.16c-.08-.13-.21-.14-.36,0"/><rect class="cls-1" x="209.26" y="242.56" width="0.14" height="0.23" transform="translate(-100.22 159.69) rotate(-34.21)"/><path class="cls-1" d="M208.56,242.65l.26.38.22-.15-.13-.19c-.09-.13-.2-.14-.35,0"/><path class="cls-1" d="M212.9,237.44c.12-.08.18-.26.16-.53l-.06-.09a1.44,1.44,0,0,1-.59.15l-.1.06.25.37a.23.23,0,0,0,.34,0"/><polygon class="cls-1" points="203.04 239.7 203.09 239.78 203.31 239.63 203.26 239.56 203.04 239.7"/><path class="cls-1" d="M207.76,243.47v.27a.38.38,0,0,1,.6.12l.12-.08-.31-.46a1.3,1.3,0,0,1-.42.15"/><path class="cls-1" d="M213,234l-.13-.44-.48.32a.78.78,0,0,1,.49.2Z"/><path class="cls-1" d="M203.12,239.09l-.12.09.13.18a.24.24,0,0,0,.36,0l.12-.08-.12-.19c-.09-.12-.21-.13-.37,0"/><polygon class="cls-1" points="204.49 241.12 204.56 241.21 205.07 241 204.95 240.81 204.49 241.12"/><path class="cls-1" d="M208.14,242.54l-.22.15.13.19c.15-.1.18-.21.09-.34"/><path class="cls-1" d="M206.68,242.34l-.24.16q-.21.19-.12.33l.69-.47c-.08-.11-.19-.12-.33,0"/><path class="cls-1" d="M206.32,241.35l-.06-.09-.12.08a2.25,2.25,0,0,1-.78.8l.07.1c0,.08.23.1.51,0,.3-.56.43-.87.38-.93"/><path class="cls-1" d="M220.12,217.29c-.11.15-.12.28,0,.36l.17.16.37-.4-.33-.31Z"/><path class="cls-1" d="M224.25,226.19l.28-.29-.25-.24c-.09.09-.09.27,0,.53"/><polygon class="cls-1" points="223.38 227.11 223.53 227.25 223.63 227.15 223.48 227 223.38 227.11"/><path class="cls-1" d="M217,220.44l-.19.21.4.38c.13-.14.14-.26,0-.37Z"/><path class="cls-1" d="M226.68,227.18c-.18.2-.39.19-.61,0l-.1.11a.72.72,0,0,1,.21.59l.56-.43Z"/><polygon class="cls-1" points="226.81 226.72 226.99 226.53 226.91 226.45 226.73 226.64 226.81 226.72"/><path class="cls-1" d="M222.45,224.68l-.2.21-.39.57c.23.09.51,0,.83-.36l.09-.11-.26-.05Z"/><path class="cls-1" d="M227.66,227l.07.07.2-.21-.24-.23c-.11.16-.12.28,0,.37"/><path class="cls-1" d="M218.54,221.55l.24.23.2-.21-.41-.38c-.11.15-.12.28,0,.36"/><path class="cls-1" d="M218.39,220.25l-.27.11c.11.11.07.26-.13.47l.32.3.2-.2c-.09-.08-.13-.31-.12-.68"/><path class="cls-1" d="M219,223.74c.32.11.53.12.62,0l.09-.1-.33-.31Z"/><path class="cls-1" d="M195.18,228.37c-.15.13-.18.25-.11.36a.26.26,0,0,0,.35,0c.12-.08.15-.28.09-.59Z"/><path class="cls-1" d="M221,217.8l-.38.39c.08.08.28,0,.61-.17Z"/><path class="cls-1" d="M219.89,224l.4.38.1-.1c.14-.15.11-.39-.1-.7Z"/><path class="cls-1" d="M227.58,224.77l1.25-1.31c.41-.88.09-1.82-1-2.83a7.9,7.9,0,0,0-1-1.19,9.68,9.68,0,0,1-1-.74l-.39-.56a2.36,2.36,0,0,0-2.65.54l-1.53,1.61,5.4,5.14c.56-.39.86-.61.91-.66"/><rect class="cls-1" x="229.66" y="216.99" width="0.29" height="0.23" transform="translate(-85.92 233.44) rotate(-46.33)"/><path class="cls-1" d="M231,220.54c-.11-.1-.22-.09-.34,0l.16.15a.23.23,0,0,0,.35,0Z"/><path class="cls-1" d="M230,225.75l.07.26a.26.26,0,0,0,.35-.06l.18-.19c-.3-.11-.5-.11-.6,0"/><path class="cls-1" d="M231.29,222.18l-.08.08a.58.58,0,0,0-.06.54l.28-.13a1.21,1.21,0,0,1,.29-.48l-.08-.08c-.1-.09-.22-.07-.35.07"/><path class="cls-1" d="M231.28,221.38l.32.3.1-.1c.12-.13.12-.25,0-.35Z"/><path class="cls-1" d="M227.06,227.9l-.1.1c-.33.72-.46,1.12-.37,1.2l.16.16a.25.25,0,0,0,.36-.05c.19-.73.25-1.12.19-1.17Z"/><path class="cls-1" d="M227.71,228.52a.24.24,0,0,0,.33-.05l.1-.1-.15-.14Z"/><polygon class="cls-1" points="227.56 227.06 227.38 227.25 227.53 227.4 227.71 227.21 227.56 227.06"/><path class="cls-1" d="M228.76,225.14l.25.24.29-.32a.53.53,0,0,1-.34-.13Z"/><polygon class="cls-1" points="228.38 227.65 228.46 227.72 228.76 227.41 228.68 227.33 228.38 227.65"/><path class="cls-1" d="M229.69,218.71l.06.06.18-.19-.23-.22c-.1.14-.11.26,0,.35"/><path class="cls-1" d="M218.91,219.4l-.32-.5-.07-.07a3.71,3.71,0,0,1-.82.37c-.06.06-.29.35-.69.89l.08.08a4.63,4.63,0,0,1,1.82-.77"/><polygon class="cls-1" points="209.55 212.61 209.4 212.46 209.3 212.56 209.45 212.71 209.55 212.61"/><path class="cls-1" d="M211.3,209.66l-.1.1c-.11.16-.13.28,0,.35.13-.13.28-.12.44,0l.28-.29-.25-.24c-.1-.09-.21-.08-.33,0"/><rect class="cls-1" x="208.85" y="212.47" width="0.26" height="0.34" transform="translate(-89.11 218.16) rotate(-46.56)"/><rect class="cls-1" x="211.38" y="213.98" width="0.26" height="0.23" transform="translate(-89.4 219.29) rotate(-46.34)"/><path class="cls-1" d="M209,211.64c-.31-.1-.52-.1-.62,0l-.1.11.09.08c.09.09.33,0,.71-.12Z"/><path class="cls-1" d="M210.86,210.59c-.22-.08-.37-.08-.43,0-.6.7-.81,1.13-.64,1.3l.09.08c.07.07.42,0,1.06-.14-.25-.24-.28-.65-.08-1.23"/><path class="cls-1" d="M209.63,212.69l-.1.1c-.18.2-.09.53.28,1,.16-.49.21-.76.14-.82Z"/><path class="cls-1" d="M214.77,207.78a.21.21,0,0,0,0-.34l-.26.11-.1.1.25.24Z"/><polygon class="cls-1" points="210.69 209.47 210.37 209.17 210.27 209.27 210.59 209.57 210.69 209.47"/><path class="cls-1" d="M216.72,206.21l.09-.1-.31-.31a11.35,11.35,0,0,1-1.12.85l.08.08Z"/><polygon class="cls-1" points="215.83 207.47 216.13 207.16 216.04 207.08 215.75 207.4 215.83 207.47"/><path class="cls-1" d="M213.59,207.25l-.25-.23-.18.19a.84.84,0,0,1,.15.34Z"/><path class="cls-1" d="M135.81,254.28l.25.14.17-.21,0-.23q0-.21-.24-.24Z"/><path class="cls-1" d="M219.44,215.12q1.35-1.41-.91-3.56l-2.17-2.07c-.76-.71-1.83-.45-3.21.8l-1,1q-.15.21,0,.33l5.17,4.91c.18.16.89-.32,2.11-1.42"/><path class="cls-1" d="M219.48,222.64l-.15-.14c-.1.14-.11.26,0,.33Z"/><path class="cls-1" d="M219.24,219.52l-.2.2a.25.25,0,0,0,.37-.05Z"/><polygon class="cls-1" points="217.11 218.84 216.92 219.05 217.25 219.37 217.35 219.26 217.11 218.84"/><path class="cls-1" d="M213.44,216.11c-.1.1-.12.34-.07.72l.16.15.1-.1a1,1,0,0,1,.23-.57l-.32-.3Z"/><path class="cls-1" d="M218.32,218.08l-.18.19.15.14.38-.4c-.1-.09-.22-.07-.35.07"/><path class="cls-1" d="M214.58,217a2.19,2.19,0,0,1-.19,1.17c.08.08.26.06.53,0l.1-.11c.07-.08.09-.26,0-.55Z"/><polygon class="cls-1" points="217.28 206.75 217.12 206.59 217.03 206.68 217.2 206.84 217.28 206.75"/><path class="cls-1" d="M219.89,218l.17.15c.12-.12.13-.24,0-.34Z"/><polygon class="cls-1" points="215.61 219.32 215.76 219.47 215.86 219.36 215.71 219.22 215.61 219.32"/><path class="cls-1" d="M219.63,221l.48-.5q.19-.21,0-.36L220,220l-.1.1c-.25.53-.34.83-.26.91"/><rect class="cls-1" x="220.01" y="218.42" width="0.14" height="0.55" transform="translate(-90.06 227.59) rotate(-46.46)"/><path class="cls-1" d="M220.1,219.58l-.08-.08c-.11-.11-.23-.09-.36.05l.25.24Z"/><path class="cls-1" d="M213.47,208.65l-.24-.22a1.09,1.09,0,0,1-.38.23l.06.25a1.21,1.21,0,0,1,.56-.26"/><path class="cls-1" d="M164.36,249.83l.14,0-.09-.43-.42.09,0,.21a.25.25,0,0,0,.33.16"/><path class="cls-1" d="M162.19,236l-.09.24.4-.09c0-.13-.13-.18-.31-.15"/><polygon class="cls-1" points="195.36 226.91 195.23 226.72 195.12 226.8 195.25 226.99 195.36 226.91"/><rect class="cls-1" x="161.46" y="241.01" width="0.14" height="0.23" transform="translate(-47.58 39.86) rotate(-12.28)"/><path class="cls-1" d="M161.75,241.76l.67-.15,0-.11a1.38,1.38,0,0,1-.89-.16l0,.12a.6.6,0,0,1,.22.3"/><rect class="cls-1" x="161.5" y="239.85" width="0.26" height="0.21" transform="matrix(0.98, -0.21, 0.21, 0.98, -47.51, 40.05)"/><path class="cls-1" d="M163.92,251.06l0-.11-.28.06.07.34c.19,0,.26-.14.23-.29"/><rect class="cls-1" x="167.29" y="235.07" width="0.14" height="0.34" transform="translate(-46.3 41.09) rotate(-12.31)"/><rect class="cls-1" x="160.4" y="238.06" width="0.12" height="0.23" transform="translate(-46.83 39.42) rotate(-12.24)"/><polygon class="cls-1" points="167.49 234.82 167.44 234.6 167.3 234.63 167.35 234.85 167.49 234.82"/><polygon class="cls-1" points="166.11 235 166.09 234.89 165.67 234.98 165.69 235.09 166.11 235"/><rect class="cls-1" x="160.28" y="242.75" width="0.14" height="0.21" transform="translate(-48.84 40.54) rotate(-12.52)"/><path class="cls-1" d="M160.29,240.92,160,241l.1.45.4-.08,0-.12a.85.85,0,0,1-.19-.31"/><polygon class="cls-1" points="163.15 235.88 163.17 235.98 163.45 235.91 163.43 235.82 163.15 235.88"/><polygon class="cls-1" points="161.35 241.28 161.32 241.17 161.07 241.22 161.09 241.34 161.35 241.28"/><path class="cls-1" d="M168.26,235.79l0-.23-.14,0a1.2,1.2,0,0,0-.56.69l.14,0c.43-.2.64-.35.61-.46"/><path class="cls-1" d="M162.93,249.22l-.11,0,.05.22.39-.08c0-.15-.14-.21-.33-.17"/><path class="cls-1" d="M163.55,252.06l-.07.23,0,.11.11,0c.19,0,.27-.14.23-.29Z"/><path class="cls-1" d="M164.28,253.37l-.42.09c0,.11.19.19.49.24Z"/><path class="cls-1" d="M164.62,258.18l-.28.06.07.34c.19,0,.27-.14.23-.29Z"/><path class="cls-1" d="M162.13,247.46l.1.45c.13,0,.23-.17.32-.42l0-.11Z"/><polygon class="cls-1" points="162.37 245.95 162.11 246 162.13 246.11 162.39 246.06 162.37 245.95"/><polygon class="cls-1" points="161.42 242.28 161.02 242.37 161.07 242.59 161.47 242.5 161.42 242.28"/><path class="cls-1" d="M161.7,243.59l-.11-.54c-.17.06-.24.15-.22.26a.83.83,0,0,1,.22.3Z"/><path class="cls-1" d="M162.15,245q0-.21-.3-.15l.09.43c.17,0,.24-.13.21-.28"/><path class="cls-1" d="M161.51,249.2l.05.21.28-.07c0-.13-.14-.18-.33-.14"/><path class="cls-1" d="M140.64,251h.15c.17,0,.26,0,.28-.18l-.41,0Z"/><rect class="cls-1" x="139.49" y="259.21" width="0.44" height="0.14" transform="translate(-132.94 370.66) rotate(-83.9)"/><path class="cls-1" d="M139.89,258.29h-.15c-.39.06-.59.15-.6.26l.4.27.29,0Z"/><path class="cls-1" d="M138.56,260.35l-.57,0c0,.1.38.37,1.17.79l.16-.19,0-.23-.25-.35h-.54"/><path class="cls-1" d="M140.1,257.64v.1a.23.23,0,0,0,.23.25l.17-.21-.27-.13Z"/><polygon class="cls-1" points="138.79 261.86 138.94 261.88 138.96 261.67 138.82 261.65 138.79 261.86"/><path class="cls-1" d="M139.81,260.41c.17,0,.27-.05.28-.2l0-.11-.26,0Z"/><path class="cls-1" d="M137.81,258a5.3,5.3,0,0,1,1.61-.74l0-.22-.94-.43c0,.43-.39.7-1,.8l-.14,0a.73.73,0,0,1-.11-.35c-.13,0-.37.14-.75.48l.84.08,0,.34Z"/><path class="cls-1" d="M136.84,256.4a6.85,6.85,0,0,1-1.08-.23l.5.5c.38-.07.57-.16.58-.27"/><path class="cls-1" d="M140.09,254.93l0,.34.55.06.05-.44a1.56,1.56,0,0,1-.56,0"/><polygon class="cls-1" points="137.75 261.31 138.01 261.34 138.02 261.23 137.76 261.2 137.75 261.31"/><path class="cls-1" d="M138.46,259.81c0,.16.08.24.26.26s.27-.05.28-.2l-.51-.38Z"/><path class="cls-1" d="M169.08,235.61l.14,0a.71.71,0,0,1,.16-.49l0-.22-.11,0c-.18.07-.26.16-.24.29Z"/><rect class="cls-1" x="170.19" y="235.45" width="0.29" height="0.11" transform="translate(-46.69 42.18) rotate(-12.43)"/><path class="cls-1" d="M142.08,239.68l.27.12c.19,0,.29,0,.3-.17l0-.46-.42,0a1,1,0,0,1-.2.56"/><polygon class="cls-1" points="142.3 237.46 142.19 237.44 142.16 237.67 142.28 237.69 142.3 237.46"/><rect class="cls-1" x="169.69" y="236.44" width="0.43" height="0.11" transform="translate(-43.81 38.7) rotate(-11.52)"/><path class="cls-1" d="M170.06,236.88l0-.11-.4.08.1.43c.12,0,.23-.16.32-.4"/><path class="cls-1" d="M141.57,248.71l0-.23-.28,0c0,.16.09.24.26.26"/><polygon class="cls-1" points="141.04 241.59 141.18 241.6 141.2 241.38 141.06 241.36 141.04 241.59"/><polygon class="cls-1" points="140.72 255.57 141 255.6 141.01 255.49 140.73 255.46 140.72 255.57"/><path class="cls-1" d="M164.06,257l0,.21c0,.12.28.19.75.19l.09-.26-.07-.31Z"/><polygon class="cls-1" points="141.43 237.81 141.29 237.79 141.26 238.02 141.4 238.04 141.43 237.81"/><rect class="cls-1" x="141.28" y="244.46" width="0.21" height="0.14" transform="translate(-115.99 360.91) rotate(-84.3)"/><path class="cls-1" d="M141,254.58v-.11q0-.21-.27-.24l-.54-.06,0,.21c.26,0,.39.16.36.38l.15,0c.19,0,.29-.05.31-.2"/><path class="cls-1" d="M161.82,237.52l.08-.23-.05-.22-.12,0a1.19,1.19,0,0,1-.4.21c0,.1.19.17.49.22"/><path class="cls-1" d="M203,221.17c-.15.12-.19.24-.12.33l.06.1.12-.08a1,1,0,0,1,.29-.34c-.08-.12-.2-.12-.35,0"/><polygon class="cls-1" points="203.14 222.3 203.27 222.49 203.39 222.41 203.26 222.22 203.14 222.3"/><rect class="cls-1" x="203.97" y="220.94" width="0.41" height="0.11" transform="translate(-88.84 152.66) rotate(-34.14)"/><path class="cls-1" d="M204.35,223.62l-.09.07.12.18a.25.25,0,0,0,.34,0v-.25c-.09-.13-.21-.14-.37,0"/><rect class="cls-1" x="205.55" y="223.42" width="0.29" height="0.34" transform="translate(-90.24 154.85) rotate(-34.31)"/><path class="cls-1" d="M204.68,221.39c-.13.12-.16.22-.09.32l.25.38c.12-.08.11-.34,0-.79Z"/><path class="cls-1" d="M203.3,218.84l-.69.47a.56.56,0,0,1,.06.35l.48-.32a.62.62,0,0,0,.15-.5"/><polygon class="cls-1" points="191.21 251.49 191.25 251.59 191.5 251.49 191.45 251.39 191.21 251.49"/><rect class="cls-1" x="191.12" y="251.16" width="0.12" height="0.21" transform="translate(-83.85 96.21) rotate(-23.32)"/><rect class="cls-1" x="192.37" y="252.3" width="0.14" height="0.23" transform="translate(-84.34 97.05) rotate(-23.37)"/><path class="cls-1" d="M190.79,252.27l0-.1-.14.05c.07.15-.14.37-.63.65l.05.1.77-.33a.61.61,0,0,1,0-.37"/><polygon class="cls-1" points="192.38 252.09 192.11 252.2 192.15 252.29 192.41 252.18 192.38 252.09"/><path class="cls-1" d="M200.72,219.5l.19.27.35-.24c-.06-.08-.23-.09-.54,0"/><polygon class="cls-1" points="205.58 224.4 205.52 224.31 205.28 224.47 205.34 224.56 205.58 224.4"/><path class="cls-1" d="M210.07,231.28l-.5.23.18.27.22-.15c.15-.11.19-.23.1-.35"/><polygon class="cls-1" points="210.24 231.05 210.42 231.32 210.54 231.24 210.36 230.97 210.24 231.05"/><polygon class="cls-1" points="208.98 230.43 209.1 230.6 209.22 230.52 209.1 230.35 208.98 230.43"/><polygon class="cls-1" points="193.64 225.65 193.77 225.84 193.89 225.76 193.76 225.57 193.64 225.65"/><path class="cls-1" d="M193.7,225.22l-.07-.09-.23.16.18.27c.16-.11.2-.22.12-.34"/><polygon class="cls-1" points="210.06 232.23 210.13 232.33 210.34 232.18 210.28 232.09 210.06 232.23"/><polygon class="cls-1" points="206.93 224.43 206.76 224.66 206.47 224.74 206.72 225.1 207.18 224.8 206.93 224.43"/><path class="cls-1" d="M205.66,225.55l-.57.39.07.09a.72.72,0,0,1,.31.2l.45-.3c.16-.11.2-.23.11-.36s-.21-.13-.37,0"/><polygon class="cls-1" points="207.57 227.34 207.64 227.44 207.98 227.21 207.91 227.11 207.57 227.34"/><path class="cls-1" d="M209.83,229.43l.2.54.06.1a.92.92,0,0,1,.32-.5c-.31-.23-.52-.31-.64-.23l-.12.08c0,.06.1.07.18,0"/><path class="cls-1" d="M207.54,226.31c-.07-.1-.25-.11-.55-.05-.13.12-.16.23-.09.34l.25.36.11-.08a1,1,0,0,1,.33-.49Z"/><path class="cls-1" d="M173.3,256.29c.22.14.35.27.37.38.65-.46,1-.76.93-.88l-.28-.06a1.64,1.64,0,0,1-1,.56"/><rect class="cls-1" x="179.98" y="231.5" width="0.14" height="0.34" transform="translate(-76.78 89.81) rotate(-23.23)"/><polygon class="cls-1" points="168.29 260 168.31 260.11 168.57 260.06 168.55 259.94 168.29 260"/><rect class="cls-1" x="179.89" y="234.19" width="0.14" height="0.23" transform="translate(-77.65 89.66) rotate(-23.16)"/><path class="cls-1" d="M182.13,238.82l-.22-.51c-.11.05-.19.2-.24.46a.24.24,0,0,0,.33.11Z"/><polygon class="cls-1" points="181.98 239.49 182.03 239.59 182.4 239.43 182.35 239.33 181.98 239.49"/><polygon class="cls-1" points="173.14 257.48 173.19 257.68 173.32 257.65 173.28 257.45 173.14 257.48"/><path class="cls-1" d="M184.83,243.36l-.37.16.13.29.11,0c.17-.08.23-.19.17-.33Z"/><path class="cls-1" d="M169.29,259.45l0-.11c-.17.06-.24.15-.21.28l0,.09.33.28-.09.24a2.52,2.52,0,0,0,1,.12l0-.11c0-.1-.36-.36-1-.79"/><polygon class="cls-1" points="190.05 251.63 189.7 251.18 189.57 251.24 189.68 251.79 189.96 251.79 190.09 251.74 190.05 251.63"/><path class="cls-1" d="M174.2,255.19c.13.12.2.21.21.29s.27-.25.42-.66l0-.21c-.39.23-.59.42-.59.58"/><path class="cls-1" d="M164.47,256.28a.25.25,0,0,0,.33.16l.21-.38-.3-.05q-.27.11-.24.27"/><path class="cls-1" d="M185.31,245.19l0,.26.09.21.37-.16q.27-.12.18-.33Z"/><rect class="cls-1" x="189.42" y="252.57" width="0.29" height="0.1" transform="translate(-84.35 95.38) rotate(-23.26)"/><rect class="cls-1" x="167.53" y="259.12" width="0.29" height="0.11" transform="translate(-51.73 42.04) rotate(-12.4)"/><path class="cls-1" d="M189.5,251.75l-.5.21c-.17.1-.23.21-.18.32l.09.2c.43-.19.65-.4.63-.63Z"/><path class="cls-1" d="M165.88,259.39l.07-.25-.39.09c0,.14.15.2.32.16"/><path class="cls-1" d="M170.57,258.82l-.11,0c.17.28.33.4.49.36l.28-.06,0-.22a1.17,1.17,0,0,1-.61-.1"/><path class="cls-1" d="M187.57,251.12a1.06,1.06,0,0,1-.35.27l0,.11c.27-.11.44-.07.53.13l.13-.06c.12,0,.2-.2.24-.46a1,1,0,0,0-.59,0"/><rect class="cls-1" x="186.33" y="247.48" width="0.29" height="0.11" transform="translate(-82.89 94.27) rotate(-23.37)"/><path class="cls-1" d="M187.86,250.39c.07.14.19.17.35.1l-.09-.21Z"/><path class="cls-1" d="M247.27,42.43A144.85,144.85,0,0,0,42.42,247.27,144.85,144.85,0,1,0,247.27,42.43m-3.46,201.38A140,140,0,0,1,45.88,45.88,140,140,0,1,1,243.81,243.81"/></g></g></svg>